<svg height="40.29" viewBox="0 0 82 40.29" width="82" xmlns="http://www.w3.org/2000/svg"><g fill="#ef4823"><path d="m36.21 1.68a1.68 1.68 0 1 1 -1.68-1.68 1.69 1.69 0 0 1 1.68 1.68"/><path d="m47.62 1.68a1.68 1.68 0 0 1 -3.31 0 1.68 1.68 0 0 1 1.69-1.68 1.7 1.7 0 0 1 1.69 1.68"/><path d="m59.08 1.68a1.69 1.69 0 1 1 -1.68-1.68 1.69 1.69 0 0 1 1.68 1.68"/><path d="m70.42 1.68a1.69 1.69 0 1 1 -1.68-1.68 1.69 1.69 0 0 1 1.68 1.68"/><path d="m81.82 1.68a1.68 1.68 0 1 1 -1.68-1.68 1.69 1.69 0 0 1 1.68 1.68"/><path d="m14.06 10.9a1.68 1.68 0 0 1 -1.68 1.68 1.65 1.65 0 0 1 -1.66-1.65 1.68 1.68 0 0 1 1.66-1.68 1.71 1.71 0 0 1 1.68 1.68"/><path d="m25.34 10.9a1.68 1.68 0 1 1 -3.33.44 1.62 1.62 0 0 1 0-.44 1.68 1.68 0 0 1 3.33-.45 1.69 1.69 0 0 1 0 .45"/><path d="m36.66 10.9a1.69 1.69 0 1 1 -1.66-1.68 1.69 1.69 0 0 1 1.69 1.68"/><path d="m47.94 10.9a1.68 1.68 0 1 1 -3.34.44 1.62 1.62 0 0 1 0-.44 1.69 1.69 0 1 1 3.34 0"/><path d="m59.26 10.9a1.69 1.69 0 1 1 -3.37 0 1.69 1.69 0 0 1 3.37 0"/><path d="m70.54 10.9a1.68 1.68 0 1 1 -3.34.44 1.62 1.62 0 0 1 0-.44 1.69 1.69 0 1 1 3.34 0"/><path d="m48 20.15a1.69 1.69 0 0 1 -3.37 0 1.69 1.69 0 0 1 1.69-1.69 1.69 1.69 0 0 1 1.68 1.69"/><path d="m59.28 20.15a1.68 1.68 0 1 1 -1.68-1.69 1.65 1.65 0 0 1 1.68 1.63z"/><path d="m70.54 20.15a1.69 1.69 0 1 1 -1.68-1.69 1.66 1.66 0 0 1 1.66 1.66"/><path d="m81.82 20.15a1.68 1.68 0 1 1 -1.68-1.69 1.69 1.69 0 0 1 1.68 1.69"/><path d="m3.34 29.36a1.69 1.69 0 0 1 -1.66 1.69 1.69 1.69 0 0 1 0-3.37 1.68 1.68 0 0 1 1.66 1.68"/><path d="m14.56 29.36a1.68 1.68 0 1 1 -1.68-1.68 1.7 1.7 0 0 1 1.68 1.68"/><path d="m25.76 29.36a1.69 1.69 0 1 1 -3.37 0 1.68 1.68 0 0 1 1.68-1.68 1.71 1.71 0 0 1 1.69 1.68"/><path d="m37 29.36a1.68 1.68 0 1 1 -1.68-1.68 1.7 1.7 0 0 1 1.68 1.68"/><path d="m48.15 29.36a1.69 1.69 0 1 1 -3.37 0 1.68 1.68 0 0 1 1.68-1.68 1.69 1.69 0 0 1 1.69 1.68"/><path d="m59.34 29.36a1.68 1.68 0 1 1 -1.68-1.68 1.67 1.67 0 0 1 1.65 1.68"/><path d="m70.54 29.36a1.69 1.69 0 1 1 -1.68-1.68 1.68 1.68 0 0 1 1.66 1.68"/><path d="m59.61 38.61a1.69 1.69 0 0 1 -3.37 0 1.69 1.69 0 0 1 1.69-1.69 1.69 1.69 0 0 1 1.68 1.69"/><path d="m70.89 38.61a1.68 1.68 0 1 1 -1.68-1.69 1.69 1.69 0 0 1 1.68 1.69"/><path d="m82 38.61a1.69 1.69 0 0 1 -3.37 0 1.69 1.69 0 0 1 1.69-1.69 1.69 1.69 0 0 1 1.68 1.69"/></g></svg>