<svg height="119.7" viewBox="0 0 440.78 119.7" width="440.78" xmlns="http://www.w3.org/2000/svg" xmlns:xlink="http://www.w3.org/1999/xlink"><clipPath id="a"><path d="m0 0h440.78v119.7h-440.78z"/></clipPath><mask id="b" height="120" maskUnits="userSpaceOnUse" width="439.68" x=".7" y=".7"><path d="m18.46 14.62h404.16v103.2h-404.16z"/></mask><clipPath id="c"><path d="m18.46 14.62h404.16v103.2h-404.16z"/></clipPath><g clip-path="url(#a)"><g clip-path="url(#a)"><g mask="url(#b)"><g clip-path="url(#c)"><g clip-path="url(#c)"><g clip-path="url(#c)" opacity=".1"><path d="m18.46 14.62h404.16v103.2h-404.16z" fill="#231f20"/></g></g></g></g><g fill="#fff"><path d="m24.7 13a7.7 7.7 0 0 0 -7.7 7.7v53.9a7.7 7.7 0 0 0 15.4 0v-53.9a7.7 7.7 0 0 0 -7.7-7.7"/><path d="m136.35 28.4h22.93a7.7 7.7 0 0 0 0-15.4h-22.93a7.7 7.7 0 1 0 0 15.4"/><path d="m159.28 66.9h-22.93a7.7 7.7 0 1 0 0 15.4h22.93a7.7 7.7 0 0 0 0-15.4"/><path d="m78.6 13a7.7 7.7 0 0 0 -7.7 7.7v77a7.7 7.7 0 0 0 15.4 0v-77a7.7 7.7 0 0 0 -7.7-7.7"/><path d="m51.65 13a11.55 11.55 0 1 0 11.55 11.55 11.55 11.55 0 0 0 -11.55-11.55"/><path d="m128.65 47.65a11.55 11.55 0 1 0 11.55-11.55 11.55 11.55 0 0 0 -11.55 11.55"/><path d="m104.83 15.26a7.72 7.72 0 0 0 -10.83 7.06 7.6 7.6 0 0 0 4.53 7 11.54 11.54 0 0 1 0 21.22 7.6 7.6 0 0 0 -4.53 7 7.71 7.71 0 0 0 10.83 7 27 27 0 0 0 0-49.37"/><path d="m270.12 35.06v-9.21h10.72v10.72h-9.21a.94.94 0 0 0 -.94.94v14.55h-9.69a2.82 2.82 0 0 0 -2.82 2.82v8.64a2.81 2.81 0 0 0 2.82 2.81h9.68v14.56a.94.94 0 0 0 .94.94h9.21v10.71h-10.71v-9.2a.94.94 0 0 0 -.94-.94h-14.56v-9.67a2.82 2.82 0 0 0 -2.82-2.82h-8.64a2.82 2.82 0 0 0 -2.82 2.82v9.67h-14.56a.94.94 0 0 0 -.94.94v9.2h-10.72v-10.71h9.21a.94.94 0 0 0 .93-.94v-14.56h9.68a2.81 2.81 0 0 0 2.82-2.81v-8.64a2.81 2.81 0 0 0 -2.76-2.82h-9.69v-14.55a.93.93 0 0 0 -.93-.94h-9.21v-10.72h10.72v9.21a.94.94 0 0 0 .93.94h14.57v9.67a2.82 2.82 0 0 0 2.82 2.82h8.64a2.82 2.82 0 0 0 2.82-2.82v-9.67h14.56a1 1 0 0 0 .94-.94m-68.88 29.49h10.71v-10.71h-10.71zm40.83 40.81h10.72v-10.71h-10.72zm10.72-92.36h-10.72v10.75h10.72zm30.16 51.55h10.71v-10.71h-10.71z"/><path d="m308.83 40.26h2.67a6 6 0 0 0 4.2-1.54 5.94 5.94 0 0 0 1.69-4.6 5.58 5.58 0 0 0 -5.89-6.12h-2.67zm-1.91 1.74v-15.74h4.62a7.84 7.84 0 0 1 5.63 2.1 7.55 7.55 0 0 1 2.22 5.76 7.57 7.57 0 0 1 -2.22 5.77 7.84 7.84 0 0 1 -5.63 2.1z"/><path d="m325.15 38.64a5.58 5.58 0 0 0 8.21 0 6.42 6.42 0 0 0 1.64-4.52 6.41 6.41 0 0 0 -1.64-4.51 5.58 5.58 0 0 0 -8.21 0 6.45 6.45 0 0 0 -1.63 4.51 6.45 6.45 0 0 0 1.63 4.52m9.63 1.24a7.81 7.81 0 0 1 -11 0 8 8 0 0 1 -2.19-5.76 8 8 0 0 1 2.19-5.75 7.81 7.81 0 0 1 11 0 8 8 0 0 1 2.2 5.75 8 8 0 0 1 -2.2 5.76"/><path d="m346.69 42.17a7.48 7.48 0 0 1 -5.37-2.1 7.83 7.83 0 0 1 -2.2-6 9.43 9.43 0 0 1 .62-3.54 6.71 6.71 0 0 1 1.7-2.52 7.4 7.4 0 0 1 2.41-1.48 8.08 8.08 0 0 1 2.84-.5 7.18 7.18 0 0 1 4.46 1.41 5.55 5.55 0 0 1 2.19 3.67h-2a3.85 3.85 0 0 0 -1.55-2.44 5.1 5.1 0 0 0 -3.08-.91 5.27 5.27 0 0 0 -4.06 1.66 6.62 6.62 0 0 0 -1.54 4.65 6.59 6.59 0 0 0 1.54 4.65 5.79 5.79 0 0 0 7.2.75 3.55 3.55 0 0 0 1.51-2.43h2a5.18 5.18 0 0 1 -2.1 3.66 7.23 7.23 0 0 1 -4.53 1.42"/></g></g><path d="m365.97 41.99-5.8-8.05-2.32 2.39v5.66h-1.93v-15.73h1.93v7.48l7.31-7.48h2.42l-6.11 6.33 6.81 9.4z" fill="#fff"/><g clip-path="url(#a)"><path d="m313.77 67.33a7.5 7.5 0 0 1 -5.37-2.1 7.81 7.81 0 0 1 -2.2-5.94 9.39 9.39 0 0 1 .63-3.54 6.82 6.82 0 0 1 1.69-2.53 7.66 7.66 0 0 1 2.41-1.47 7.9 7.9 0 0 1 2.84-.51 7.16 7.16 0 0 1 4.46 1.42 5.45 5.45 0 0 1 2.19 3.66h-2a3.76 3.76 0 0 0 -1.55-2.43 5.1 5.1 0 0 0 -3.08-.91 5.27 5.27 0 0 0 -4.06 1.66 6.62 6.62 0 0 0 -1.54 4.65 6.62 6.62 0 0 0 1.54 4.65 5.82 5.82 0 0 0 7.21.74 3.53 3.53 0 0 0 1.5-2.42h2a5.22 5.22 0 0 1 -2.1 3.66 7.28 7.28 0 0 1 -4.53 1.41" fill="#fff"/></g><path d="m323 67.15v-15.73h9.85v1.74h-7.94v5.01h6.45v1.73h-6.45v5.52h8.18v1.73z" fill="#fff"/><g clip-path="url(#a)"><path d="m337.5 53.13v5.87h4a2.85 2.85 0 0 0 2.29-.85 3.14 3.14 0 0 0 .75-2.14 2.71 2.71 0 0 0 -3-2.9zm6.58 6.56a4.07 4.07 0 0 1 2.09 3.55l.27 3.91h-1.84l-.27-3.79a2.85 2.85 0 0 0 -.77-1.89 2.37 2.37 0 0 0 -1.79-.72h-4.27v6.4h-1.91v-15.73h6a5.12 5.12 0 0 1 3.66 1.27 4.38 4.38 0 0 1 1.3 3.31 3.83 3.83 0 0 1 -2.47 3.66" fill="#fff"/></g><g fill="#fff"><path d="m353.74 67.15v-13.99h-5.03v-1.74h11.98v1.74h-5.01v13.99z"/><path d="m363 51.42h1.91v15.73h-1.91z"/><path d="m367.99 67.15v-15.73h10v1.74h-8.09v5.19h6.6v1.73h-6.6v7.07z"/><path d="m380.44 51.42h1.91v15.73h-1.91z"/><path d="m385.43 67.15v-15.73h9.84v1.74h-7.94v5.01h6.45v1.73h-6.45v5.52h8.18v1.73z"/><g clip-path="url(#a)"><path d="m399.92 65.42h2.67a6 6 0 0 0 4.2-1.54 5.87 5.87 0 0 0 1.69-4.59 5.91 5.91 0 0 0 -1.69-4.6 6 6 0 0 0 -4.2-1.54h-2.67zm-1.92 1.73v-15.73h4.63a7.88 7.88 0 0 1 5.63 2.11 7.58 7.58 0 0 1 2.21 5.76 7.58 7.58 0 0 1 -2.21 5.76 7.87 7.87 0 0 1 -5.63 2.1z"/><path d="m308.83 84.19h4a2.93 2.93 0 0 0 2.31-.84 3.38 3.38 0 0 0 0-4.22 3 3 0 0 0 -2.31-.83h-4zm-1.91 8.13v-15.73h5.91a5.12 5.12 0 0 1 3.66 1.28 4.88 4.88 0 0 1 0 6.74 5.07 5.07 0 0 1 -3.66 1.28h-4v6.43z"/></g><path d="m322 86.37h5.68l-2.88-7.37zm8 5.95-1.62-4.25h-7l-1.64 4.25h-2l6.27-15.73h1.73l6.27 15.73z"/></g><g clip-path="url(#a)"><path d="m336 78.3v5.89h4a2.87 2.87 0 0 0 2.29-.86 3.11 3.11 0 0 0 .74-2.13 2.7 2.7 0 0 0 -3-2.9zm6.58 6.56a4.06 4.06 0 0 1 2.09 3.55l.27 3.91h-1.84l-.27-3.8a2.85 2.85 0 0 0 -.77-1.89 2.4 2.4 0 0 0 -1.79-.71h-4.27v6.4h-1.91v-15.73h5.95a5.09 5.09 0 0 1 3.66 1.27 4.38 4.38 0 0 1 1.35 3.34 3.84 3.84 0 0 1 -2.47 3.66" fill="#fff"/></g><g fill="#fff"><path d="m352.28 92.32v-14h-5.03v-1.73h11.98v1.73h-5.02v14z"/><path d="m361.54 92.32v-15.73h2.14l8.11 12.69v-12.69h1.86v15.73h-2.16l-8.09-12.67v12.67z"/><path d="m376.77 92.32v-15.73h9.85v1.73h-7.94v5.01h6.45v1.73h-6.45v5.53h8.18v1.73z"/></g><g clip-path="url(#a)"><path d="m391.27 78.3v5.89h4a2.87 2.87 0 0 0 2.29-.86 3.11 3.11 0 0 0 .74-2.13 2.7 2.7 0 0 0 -3-2.9zm6.58 6.56a4.06 4.06 0 0 1 2.09 3.55l.27 3.91h-1.84l-.27-3.8a2.85 2.85 0 0 0 -.77-1.89 2.4 2.4 0 0 0 -1.79-.71h-4.27v6.4h-1.91v-15.73h5.95a5.09 5.09 0 0 1 3.69 1.27 4.38 4.38 0 0 1 1.35 3.34 3.84 3.84 0 0 1 -2.47 3.66" fill="#fff"/></g></g></svg>