<svg height="92.27" viewBox="0 0 392.94 92.27" width="392.94" xmlns="http://www.w3.org/2000/svg" xmlns:xlink="http://www.w3.org/1999/xlink"><clipPath id="a"><path d="m0 0h392.94v92.27h-392.94z"/></clipPath><g clip-path="url(#a)" fill="#fff"><path d="m7.69 0a7.69 7.69 0 0 0 -7.69 7.69v53.83a7.69 7.69 0 0 0 15.38 0v-53.83a7.69 7.69 0 0 0 -7.69-7.69"/><path d="m119.18 15.38h22.9a7.69 7.69 0 0 0 0-15.38h-22.9a7.69 7.69 0 0 0 0 15.38"/><path d="m142.08 53.83h-22.9a7.69 7.69 0 1 0 0 15.37h22.9a7.69 7.69 0 1 0 0-15.37"/><path d="m61.51 0a7.68 7.68 0 0 0 -7.68 7.69v76.89a7.69 7.69 0 1 0 15.37 0v-76.89a7.69 7.69 0 0 0 -7.69-7.69"/><path d="m34.6 0a11.54 11.54 0 1 0 11.54 11.53 11.53 11.53 0 0 0 -11.54-11.53"/><path d="m111.49 34.6a11.54 11.54 0 1 0 11.51-11.53 11.54 11.54 0 0 0 -11.51 11.53"/><path d="m87.71 2.26a7.71 7.71 0 0 0 -10.82 7.05 7.6 7.6 0 0 0 4.53 7 11.52 11.52 0 0 1 0 21.19 7.6 7.6 0 0 0 -4.53 7 7.7 7.7 0 0 0 10.82 7 26.92 26.92 0 0 0 0-49.3"/><path d="m252.78 22v-9.16h10.7v10.7h-9.19a.94.94 0 0 0 -.94.93v14.53h-9.67a2.81 2.81 0 0 0 -2.81 2.82v8.62a2.81 2.81 0 0 0 2.81 2.81h9.67v14.55a.94.94 0 0 0 .94.94h9.19v10.7h-10.7v-9.19a.94.94 0 0 0 -.94-.94h-14.55v-9.66a2.81 2.81 0 0 0 -2.81-2.82h-8.63a2.81 2.81 0 0 0 -2.85 2.82v9.66h-14.51a.94.94 0 0 0 -.94.94v9.19h-10.7v-10.7h9.15a.94.94 0 0 0 .94-.94v-14.54h9.67a2.81 2.81 0 0 0 2.81-2.81v-8.63a2.81 2.81 0 0 0 -2.77-2.82h-9.65v-14.53a.94.94 0 0 0 -.94-.93h-9.19v-10.7h10.7v9.16a1 1 0 0 0 .94.94h14.49v9.66a2.81 2.81 0 0 0 2.81 2.81h8.63a2.81 2.81 0 0 0 2.81-2.81v-9.6h14.55a1 1 0 0 0 .94-.94m-68.74 29.43h10.7v-10.7h-10.7zm40.77 40.75h10.71v-10.7h-10.67zm10.75-92.24h-10.71v10.73h10.71zm30.06 51.45h10.71v-10.66h-10.71z"/><path d="m291.43 27.22h2.67a6 6 0 0 0 4.19-1.54 5.87 5.87 0 0 0 1.71-4.59 5.86 5.86 0 0 0 -1.69-4.58 6 6 0 0 0 -4.21-1.51h-2.67zm-1.91 1.78v-15.76h4.62a7.81 7.81 0 0 1 5.62 2.1 7.53 7.53 0 0 1 2.24 5.75 7.54 7.54 0 0 1 -2.21 5.76 7.81 7.81 0 0 1 -5.62 2.1z"/><path d="m307.73 25.6a5.57 5.57 0 0 0 8.2 0 6.44 6.44 0 0 0 1.64-4.51 6.45 6.45 0 0 0 -1.64-4.51 5.59 5.59 0 0 0 -8.2 0 6.45 6.45 0 0 0 -1.63 4.51 6.43 6.43 0 0 0 1.63 4.51m9.61 1.24a7.77 7.77 0 0 1 -11 0 8 8 0 0 1 -2.19-5.75 8 8 0 0 1 2.19-5.74 7.77 7.77 0 0 1 11 0 8 8 0 0 1 2.2 5.74 8 8 0 0 1 -2.2 5.75"/><path d="m329.24 29.13a7.5 7.5 0 0 1 -5.37-2.1 7.84 7.84 0 0 1 -2.19-5.94 9.37 9.37 0 0 1 .62-3.53 6.71 6.71 0 0 1 1.7-2.56 7.26 7.26 0 0 1 2.4-1.47 7.86 7.86 0 0 1 2.84-.51 7.13 7.13 0 0 1 4.45 1.41 5.48 5.48 0 0 1 2.19 3.66h-2a3.75 3.75 0 0 0 -1.55-2.43 5.07 5.07 0 0 0 -3.07-.91 5.23 5.23 0 0 0 -4.05 1.66 6.57 6.57 0 0 0 -1.54 4.64 6.57 6.57 0 0 0 1.54 4.65 5.79 5.79 0 0 0 7.19.74 3.53 3.53 0 0 0 1.5-2.42h2a5.18 5.18 0 0 1 -2.1 3.65 7.2 7.2 0 0 1 -4.52 1.42"/></g><path d="m348.49 28.95-5.79-8.04-2.31 2.38v5.66h-1.93v-15.71h1.93v7.47l7.29-7.47h2.43l-6.11 6.33 6.8 9.38z" fill="#fff"/><g clip-path="url(#a)"><path d="m296.36 54.26a7.49 7.49 0 0 1 -5.36-2.1 7.84 7.84 0 0 1 -2.2-5.93 9.39 9.39 0 0 1 .63-3.54 6.69 6.69 0 0 1 1.69-2.52 7.41 7.41 0 0 1 2.41-1.47 7.85 7.85 0 0 1 2.83-.51 7.1 7.1 0 0 1 4.46 1.42 5.51 5.51 0 0 1 2.18 3.65h-2a3.81 3.81 0 0 0 -1.55-2.43 5.08 5.08 0 0 0 -3.08-.91 5.26 5.26 0 0 0 -4.05 1.66 6.62 6.62 0 0 0 -1.53 4.65 6.59 6.59 0 0 0 1.53 4.64 5.8 5.8 0 0 0 7.2.74 3.53 3.53 0 0 0 1.5-2.42h2a5.17 5.17 0 0 1 -2.09 3.66 7.28 7.28 0 0 1 -4.53 1.41" fill="#fff"/></g><path d="m305.59 54.08v-15.71h9.83v1.73h-7.93v5h6.44v1.73h-6.44v5.52h8.17v1.73z" fill="#fff"/><g clip-path="url(#a)"><path d="m320.06 40.08v5.92h4a2.88 2.88 0 0 0 2.29-.86 3.12 3.12 0 0 0 .74-2.13 2.7 2.7 0 0 0 -3-2.89zm6.57 6.55a4 4 0 0 1 2.09 3.55l.27 3.9h-1.84l-.27-3.79a2.85 2.85 0 0 0 -.76-1.89 2.39 2.39 0 0 0 -1.8-.71h-4.26v6.39h-1.91v-15.71h6a5.16 5.16 0 0 1 3.66 1.27 4.4 4.4 0 0 1 1.29 3.36 3.84 3.84 0 0 1 -2.47 3.66" fill="#fff"/></g><g fill="#fff"><path d="m336.28 54.08v-13.98h-5.02v-1.73h11.96v1.73h-5.01v13.98z"/><path d="m345.53 38.37h1.91v15.71h-1.91z"/><path d="m350.51 54.08v-15.71h9.98v1.73h-8.07v5.18h6.59v1.73h-6.59v7.07z"/><path d="m362.94 38.37h1.91v15.71h-1.91z"/><path d="m367.92 54.08v-15.71h9.83v1.73h-7.92v5h6.44v1.73h-6.44v5.52h8.17v1.73z"/><g clip-path="url(#a)"><path d="m382.4 52.35h2.67a5.56 5.56 0 0 0 5.93-6.12 5.58 5.58 0 0 0 -5.88-6.13h-2.72zm-1.91 1.73v-15.71h4.62a7.83 7.83 0 0 1 5.62 2.1 7.54 7.54 0 0 1 2.21 5.76 7.52 7.52 0 0 1 -2.21 5.77 7.83 7.83 0 0 1 -5.62 2.1z"/><path d="m291.43 71.09h4a3 3 0 0 0 2.31-.83 3.38 3.38 0 0 0 0-4.22 3 3 0 0 0 -2.31-.83h-4zm-1.91 8.12v-15.71h5.9a5.12 5.12 0 0 1 3.66 1.28 4.88 4.88 0 0 1 0 6.74 5.11 5.11 0 0 1 -3.66 1.27h-4v6.42z"/></g><path d="m304.53 73.27h5.68l-2.83-7.41zm8 5.94-1.65-4.21h-7l-1.64 4.24h-2l6.26-15.71h1.72l6.26 15.71z"/></g><g clip-path="url(#a)"><path d="m318.6 65.21v5.88h4a2.9 2.9 0 0 0 2.29-.85 3.16 3.16 0 0 0 .74-2.14 2.7 2.7 0 0 0 -3-2.89zm6.58 6.55a4.05 4.05 0 0 1 2.08 3.55l.27 3.9h-1.84l-.27-3.79a2.85 2.85 0 0 0 -.76-1.89 2.4 2.4 0 0 0 -1.79-.71h-4.27v6.39h-1.91v-15.71h5.95a5.16 5.16 0 0 1 3.66 1.27 4.36 4.36 0 0 1 1.34 3.33 3.84 3.84 0 0 1 -2.46 3.66" fill="#fff"/></g><g fill="#fff"><path d="m334.82 79.21v-13.98h-5.02v-1.72h11.96v1.72h-5.01v13.98z"/><path d="m344.07 79.21v-15.7h2.13l8.1 12.67v-12.67h1.87v15.7h-2.16l-8.08-12.65v12.65z"/><path d="m359.28 79.21v-15.7h9.83v1.72h-7.92v5.01h6.44v1.72h-6.44v5.52h8.17v1.73z"/></g><g clip-path="url(#a)"><path d="m373.76 65.21v5.88h4a2.89 2.89 0 0 0 2.29-.85 3.12 3.12 0 0 0 .74-2.14 2.7 2.7 0 0 0 -3-2.89zm6.57 6.55a4.06 4.06 0 0 1 2.09 3.55l.27 3.9h-1.84l-.27-3.79a2.85 2.85 0 0 0 -.77-1.89 2.4 2.4 0 0 0 -1.79-.71h-4.26v6.39h-1.91v-15.71h5.94a5.14 5.14 0 0 1 3.66 1.27 4.37 4.37 0 0 1 1.35 3.33 3.84 3.84 0 0 1 -2.47 3.66" fill="#fff"/></g></svg>