<svg height="22.82" viewBox="0 0 115.49 22.82" width="115.49" xmlns="http://www.w3.org/2000/svg" xmlns:xlink="http://www.w3.org/1999/xlink"><clipPath id="a"><path d="m.34 14.46h113.85v8.36h-113.85z"/></clipPath><clipPath id="b"><path d="m58.61 14.54h55.61v7.26h-55.61z"/></clipPath><clipPath id="c"><path d="m.18 12.83h114.1v7.58h-114.1z"/></clipPath><clipPath id="d"><path d="m.18 13.09h114.1v7.6h-114.1z"/></clipPath><clipPath id="e"><path d="m.67 8.82h113.85v10.08h-113.85z"/></clipPath><clipPath id="f"><path d="m.19 12.64h114.08v7.76h-114.08z"/></clipPath><clipPath id="g"><path d="m.64 8.62h113.93v9.95h-113.93z"/></clipPath><clipPath id="h"><path d="m.68 9.13h113.76v10.06h-113.76z"/></clipPath><clipPath id="i"><path d="m.18 13.41h114.1v7.51h-114.1z"/></clipPath><clipPath id="j"><path d="m.21 12.51h114.04v7.96h-114.04z"/></clipPath><clipPath id="k"><path d="m.41 11.21h113.68v9.24h-113.68z"/></clipPath><clipPath id="l"><path d="m.47 10.97h113.62v9.41h-113.62z"/></clipPath><clipPath id="m"><path d="m.61 8.5h114.02v9.67h-114.02z"/></clipPath><clipPath id="n"><path d="m.2 13.78h114.08v7.44h-114.08z"/></clipPath><clipPath id="o"><path d="m.69 9.52h113.69v9.94h-113.69z"/></clipPath><clipPath id="p"><path d="m.36 11.56h113.75v8.93h-113.75z"/></clipPath><clipPath id="q"><path d="m.52 10.83h113.58v9.51h-113.58z"/></clipPath><clipPath id="r"><path d="m.26 14.54h113.97v7.79h-113.97z"/></clipPath><clipPath id="s"><path d="m.23 12.47h113.99v8.04h-113.99z"/></clipPath><clipPath id="t"><path d="m.57 8.46h114.11v9.3h-114.11z"/></clipPath><clipPath id="u"><path d="m.21 14.18h114.05v7.51h-114.05z"/></clipPath><clipPath id="v"><path d="m.31 12.01h113.83v8.5h-113.83z"/></clipPath><clipPath id="w"><path d="m.57 10.77h113.55v9.47h-113.55z"/></clipPath><clipPath id="x"><path d="m.69 9.99h113.63v9.69h-113.63z"/></clipPath><clipPath id="y"><path d="m.24 14.53h114.02v7.53h-114.02z"/></clipPath><clipPath id="z"><path d="m.42 7.7h114.31v8.24h-114.31z"/></clipPath><clipPath id="A"><path d="m.39 7.47h114.33v8.03h-114.33z"/></clipPath><clipPath id="B"><path d="m.46 7.96h114.3v8.44h-114.3z"/></clipPath><clipPath id="C"><path d="m.36 7.25h114.35v7.85h-114.35z"/></clipPath><clipPath id="D"><path d="m.49 8.2h114.25v8.67h-114.25z"/></clipPath><clipPath id="E"><path d="m.53 8.46h114.19v8.87h-114.19z"/></clipPath><clipPath id="F"><path d="m.26 12.51h113.91v8.01h-113.91z"/></clipPath><clipPath id="G"><path d="m.32 7.06h114.37v7.69h-114.37z"/></clipPath><clipPath id="H"><path d="m.67 10.39h113.59v9.47h-113.59z"/></clipPath><clipPath id="I"><path d="m.61 10.79h113.55v9.35h-113.55z"/></clipPath><clipPath id="J"><path d="m.28 6.93h114.41v7.55h-114.41z"/></clipPath><clipPath id="K"><path d="m.65 10.75h113.56v9.26h-113.56z"/></clipPath><clipPath id="L"><path d="m.25 6.81h114.44v7.45h-114.44z"/></clipPath><clipPath id="M"><path d="m.19 2.29h115.22v10.39h-115.22z"/></clipPath><clipPath id="N"><path d="m.21 2.55h115.17v10.4h-115.17z"/></clipPath><clipPath id="O"><path d="m.17 2.1h115.26v10.27h-115.26z"/></clipPath><clipPath id="P"><path d="m.23 2.87h115.13v10.32h-115.13z"/></clipPath><clipPath id="Q"><path d="m.21 6.74h114.49v7.36h-114.49z"/></clipPath><clipPath id="R"><path d="m.15 1.98h115.31v10.05h-115.31z"/></clipPath><clipPath id="S"><path d="m.24 3.23h115.09v10.15h-115.09z"/></clipPath><clipPath id="T"><path d="m.12 1.94h115.35v9.73h-115.35z"/></clipPath><clipPath id="U"><path d="m.19 6.72h114.53v7.29h-114.53z"/></clipPath><clipPath id="V"><path d="m.24 3.64h115.06v10.01h-115.06z"/></clipPath><clipPath id="W"><path d="m.23 4.08h115.04v9.9h-115.04z"/></clipPath><clipPath id="X"><path d="m.16 6.71h114.58v7.26h-114.58z"/></clipPath><clipPath id="Y"><path d="m.1 2.02h115.38v9.28h-115.38z"/></clipPath><clipPath id="Z"><path d="m.22 4.54h115.03v9.68h-115.03z"/></clipPath><clipPath id="aa"><path d="m.15 6.76h114.63v7.23h-114.63z"/></clipPath><clipPath id="ab"><path d="m.07 2.13h115.41v8.8h-115.41z"/></clipPath><clipPath id="ac"><path d="m.2 5.03h115v9.34h-115z"/></clipPath><clipPath id="ad"><path d="m.14 6.81h114.68v7.23h-114.68z"/></clipPath><clipPath id="ae"><path d="m.29 16.8h53.18v5.88h-53.18z"/></clipPath><clipPath id="af"><path d="m.18 5.55h114.97v8.9h-114.97z"/></clipPath><clipPath id="ag"><path d="m.13 6.84h114.74v7.28h-114.74z"/></clipPath><clipPath id="ah"><path d="m.05 2.33h115.43v8.21h-115.43z"/></clipPath><clipPath id="ai"><path d="m.17 6.06h114.93v8.38h-114.93z"/></clipPath><clipPath id="aj"><path d="m.13 6.9h114.79v7.32h-114.79z"/></clipPath><clipPath id="ak"><path d="m.15 6.57h114.88v7.82h-114.88z"/></clipPath><clipPath id="al"><path d="m.02 1.41h115.36v6.89h-115.36z"/></clipPath><clipPath id="am"><path d="m.04 2.6h115.44v7.56h-115.44z"/></clipPath><clipPath id="an"><path d="m.02 1.66h115.39v7.01h-115.39z"/></clipPath><clipPath id="ao"><path d="m.04 1.21h115.32v6.76h-115.32z"/></clipPath><clipPath id="ap"><path d="m.14 6.95h114.84v7.37h-114.84z"/></clipPath><clipPath id="aq"><path d="m.01 1.97h115.42v7.07h-115.42z"/></clipPath><clipPath id="ar"><path d="m.06 1.06h115.28v7.28h-115.28z"/></clipPath><clipPath id="as"><path d="m.08.96h115.24v7.74h-115.24z"/></clipPath><clipPath id="at"><path d="m.02 2.76h115.44v7.02h-115.44z"/></clipPath><clipPath id="au"><path d="m.1.86h115.2v8.19h-115.2z"/></clipPath><clipPath id="av"><path d="m.1.78h115.17v8.58h-115.17z"/></clipPath><clipPath id="aw"><path d="m.1.7h115.14v8.95h-115.14z"/></clipPath><clipPath id="ax"><path d="m.09.6h115.12v9.31h-115.12z"/></clipPath><clipPath id="ay"><path d="m.07.48h115.11v9.68h-115.11z"/></clipPath><clipPath id="az"><path d="m.05.35h115.11v10.06h-115.11z"/></clipPath><clipPath id="aA"><path d="m.03.2h115.11v10.47h-115.11z"/></clipPath><clipPath id="aB"><path d="m0 0h115.12v10.97h-115.12z"/></clipPath><g clip-path="url(#a)"><path d="m114.18 15.78c-.41-.25-.82-.55-1.25-.77a4.75 4.75 0 0 0 -1.39-.47 4.65 4.65 0 0 0 -1.49 0 6.57 6.57 0 0 0 -1.42.47 11.64 11.64 0 0 0 -2.47 1.52c-.79.63-1.55 1.31-2.33 2a18.88 18.88 0 0 1 -2.26 1.71 10.92 10.92 0 0 1 -2.71 1.25 13.08 13.08 0 0 1 -2.85.42 25.69 25.69 0 0 1 -2.91 0 12.47 12.47 0 0 1 -2.91-.55 20 20 0 0 1 -2.82-1.19c-.85-.42-1.67-.9-2.49-1.37s-1.73-1-2.63-1.43a8.33 8.33 0 0 0 -2.74-.9 9.14 9.14 0 0 0 -3 .17c-1 .2-1.94.49-2.9.78s-1.9.55-2.87.74a11.47 11.47 0 0 1 -2.92.21c-1-.06-1.93-.4-2.91-.54a8.28 8.28 0 0 0 -2.89.21 17.35 17.35 0 0 0 -2.79 1c-.93.38-1.85.81-2.78 1.2a10.64 10.64 0 0 1 -2.66.81 7 7 0 0 1 -1.52 0 8.66 8.66 0 0 0 -1.44 0 15.51 15.51 0 0 0 -2.83.65c-.94.28-1.88.58-2.84.79a12.49 12.49 0 0 1 -2.92.31 10.49 10.49 0 0 1 -2.89-.5c-.93-.3-1.81-.72-2.76-1s-1.93-.42-2.91-.58-1.95-.32-2.92-.54a21.7 21.7 0 0 1 -2.85-.85 21.59 21.59 0 0 1 -2.63-1.22 13.8 13.8 0 0 0 -1.37-.73 4.82 4.82 0 0 0 -1.34-.35 8.61 8.61 0 0 0 -2.9.25c-.94.23-1.86.54-2.78.82a14.31 14.31 0 0 1 -2.89.7 5.28 5.28 0 0 1 -2.86-.38 29.36 29.36 0 0 0 -2.59-1.32 6.16 6.16 0 0 0 -2.88-.43 9.45 9.45 0 0 0 -2.84.87c-.83.46-1.66.91-2.47 1.4" fill="none" stroke="#2a247f" stroke-linecap="round" stroke-width=".03"/></g><g clip-path="url(#b)"><path d="m114.2 15.52c-.46-.22-.93-.4-1.42-.59a6.11 6.11 0 0 0 -1.39-.33 5.33 5.33 0 0 0 -2.85.61 12.09 12.09 0 0 0 -2.35 1.55c-.77.62-1.52 1.27-2.28 1.9a15.94 15.94 0 0 1 -2.29 1.64 9.83 9.83 0 0 1 -2.73 1.1 11.92 11.92 0 0 1 -2.86.28 20.24 20.24 0 0 1 -2.91-.21 14.62 14.62 0 0 1 -2.9-.78 20.27 20.27 0 0 1 -2.58-1.22c-.89-.48-1.75-1-2.62-1.51s-1.65-1-2.51-1.4a11.27 11.27 0 0 0 -2.82-.94 7.93 7.93 0 0 0 -2.87.11 21.56 21.56 0 0 0 -2.82.81c-.91.3-1.82.6-2.75.84a12.62 12.62 0 0 1 -2.87.38 27.91 27.91 0 0 1 -2.88-.22 9.57 9.57 0 0 0 -2.87.2 15 15 0 0 0 -2.75 1l-.65.29-.24.12c-.06 0-.34.11-.36.17s.3-.14.36-.16l.25-.12.68-.29c.49-.2 1-.38 1.47-.55a10.23 10.23 0 0 1 2.85-.51 18.52 18.52 0 0 1 2.87.31 11.1 11.1 0 0 0 2.89 0 18.47 18.47 0 0 0 2.83-.67c.93-.27 1.84-.57 2.77-.83a11.55 11.55 0 0 1 2.85-.5 8 8 0 0 1 2.85.52 17.26 17.26 0 0 1 2.52 1.23l2.6 1.49a27.82 27.82 0 0 0 2.58 1.31 15 15 0 0 0 2.75.91 14.79 14.79 0 0 0 2.89.32 21.57 21.57 0 0 0 2.9-.11 10.15 10.15 0 0 0 2.8-.78 12 12 0 0 0 2.4-1.45c.8-.61 1.57-1.26 2.33-1.91a21.86 21.86 0 0 1 2.3-1.76 7.78 7.78 0 0 1 2.68-1.15 5.19 5.19 0 0 1 2.95.38c.42.18.82.42 1.23.62" fill="none" stroke="#3555bf" stroke-linecap="round" stroke-width=".03"/></g><g clip-path="url(#c)"><path d="m.19 18a8.46 8.46 0 0 1 2.93-.59 7.88 7.88 0 0 1 2.8.59c.94.38 1.8.89 2.69 1.34a7.18 7.18 0 0 0 2.79.92 6 6 0 0 0 2.87-.65 19.25 19.25 0 0 0 2.52-1.47c.81-.52 1.61-1.05 2.46-1.49a7.15 7.15 0 0 1 2.89-.88 6.37 6.37 0 0 1 2.81.66c.92.41 1.79.91 2.71 1.31a12.32 12.32 0 0 0 2.83.86 17.37 17.37 0 0 0 2.88.21h2.89s1.94.18 2.91.27a19.54 19.54 0 0 0 3 .06c1-.07 2-.2 3-.34a29.77 29.77 0 0 1 3-.3 19.52 19.52 0 0 1 3 .17 20.88 20.88 0 0 0 2.83.33 10.09 10.09 0 0 0 2.88-.52c1-.31 1.85-.72 2.76-1.12a20.66 20.66 0 0 1 2.75-1 10.36 10.36 0 0 1 2.95-.36c1 0 2 .11 2.92.09a10.45 10.45 0 0 0 2.88-.52 25.28 25.28 0 0 0 2.75-1.14 27.44 27.44 0 0 1 2.7-1.12 7.58 7.58 0 0 1 2.91-.4 8.9 8.9 0 0 1 2.87.76 21.9 21.9 0 0 1 2.56 1.29c.89.5 1.76 1 2.65 1.52s1.68.93 2.55 1.33a26.83 26.83 0 0 0 2.87 1.06c.91.3 1.83.55 2.75.8a21.74 21.74 0 0 0 2.85.65 7.44 7.44 0 0 0 3-.15 8.12 8.12 0 0 0 2.58-1.33c.82-.6 1.59-1.28 2.35-2a21.25 21.25 0 0 1 2.2-1.82 6.53 6.53 0 0 1 2.72-1.2 5.32 5.32 0 0 1 1.49 0 6.55 6.55 0 0 1 1.36.38" fill="none" stroke="#3555bf" stroke-linecap="round" stroke-width=".03"/></g><g clip-path="url(#d)"><path d="m.19 18.25a9.31 9.31 0 0 1 2.93-.71 7.37 7.37 0 0 1 2.88.46 23.86 23.86 0 0 1 2.72 1.24 7.89 7.89 0 0 0 2.78.9 6.2 6.2 0 0 0 2.93-.63 23 23 0 0 0 2.51-1.41 26.3 26.3 0 0 1 2.64-1.49 6.29 6.29 0 0 1 2.78-.7 6 6 0 0 1 1.52.24 8.33 8.33 0 0 1 1.28.51c.88.43 1.73.91 2.62 1.32a13.35 13.35 0 0 0 2.81 1 19.11 19.11 0 0 0 2.92.37c1 .06 2 .1 2.94.2s2 .24 3 .35a17.43 17.43 0 0 0 3 .05c1-.06 2-.22 3-.36a26.6 26.6 0 0 1 3-.32 19.9 19.9 0 0 1 2.89.12 17.76 17.76 0 0 0 2.91.17 9.84 9.84 0 0 0 2.75-.67c1-.36 1.88-.8 2.81-1.23a21.8 21.8 0 0 1 2.77-1.09 9.84 9.84 0 0 1 2.91-.35c1 0 1.92.11 2.88.07a11 11 0 0 0 2.84-.53 29.32 29.32 0 0 0 2.79-1.16 22.83 22.83 0 0 1 2.76-1.13 7.26 7.26 0 0 1 2.85-.34 9.32 9.32 0 0 1 2.87.81 25.55 25.55 0 0 1 2.52 1.38l2.63 1.58c.82.48 1.65 1 2.51 1.35a23.07 23.07 0 0 0 2.86 1.12c.93.3 1.89.54 2.84.77a20.09 20.09 0 0 0 2.89.51 7.33 7.33 0 0 0 2.94-.36 8.81 8.81 0 0 0 2.5-1.41c.81-.62 1.57-1.3 2.34-2a18.73 18.73 0 0 1 2.2-1.77 11.47 11.47 0 0 1 1.47-.78 3.81 3.81 0 0 1 1.29-.31 6.32 6.32 0 0 1 1.5.11 8.84 8.84 0 0 1 1.3.4" fill="none" stroke="#3555bf" stroke-linecap="round" stroke-width=".03"/></g><g clip-path="url(#e)"><path d="m.68 10.36c.91.45 1.89.76 2.76 1.26a13.33 13.33 0 0 1 2.49 1.92c.73.69 1.39 1.46 2.07 2.15a15.05 15.05 0 0 0 2.39 2 6.88 6.88 0 0 0 2.87 1.09 7.87 7.87 0 0 0 3-.25 27.7 27.7 0 0 0 2.91-1c.94-.35 1.89-.68 2.87-.94s2-.45 3-.74a10 10 0 0 0 2.65-1.3c.86-.58 1.66-1.21 2.46-1.87s1.61-1.32 2.48-1.91a8.09 8.09 0 0 1 2.72-1.32 5.59 5.59 0 0 1 1.63-.13 6.71 6.71 0 0 1 1.47.29c1 .29 1.92.7 2.9 1a10.31 10.31 0 0 0 3 .48 14.5 14.5 0 0 0 3-.38c1-.23 2.07-.49 3.12-.64a11.09 11.09 0 0 1 3 0 27.45 27.45 0 0 1 3 .54c1 .23 2.06.47 3.1.67s2 .37 3 .48 2 .17 2.95.19 2.07 0 3.1 0a15.15 15.15 0 0 1 3.07.37 13.43 13.43 0 0 1 2.87 1.08c.9.43 1.75 1 2.6 1.48a17.4 17.4 0 0 0 2.84 1.54 4.47 4.47 0 0 0 2.93.21 7.53 7.53 0 0 0 2.68-1.69 28.18 28.18 0 0 0 2.13-2.24c.69-.77 1.37-1.54 2.12-2.25a5.86 5.86 0 0 1 2.56-1.53 4.34 4.34 0 0 1 3 .58 16.1 16.1 0 0 1 2.53 1.72c.82.63 1.63 1.26 2.48 1.85a11.54 11.54 0 0 0 2.57 1.44 7.12 7.12 0 0 0 3 .48 10.1 10.1 0 0 0 3-.8c.93-.38 1.83-.86 2.76-1.27a21.62 21.62 0 0 1 2.73-1" fill="none" stroke="#3555bf" stroke-linecap="round" stroke-width=".03"/></g><g clip-path="url(#f)"><path d="m.2 17.69a7.86 7.86 0 0 1 2.92-.45 7.85 7.85 0 0 1 2.78.76c.92.41 1.78.95 2.67 1.44a7.27 7.27 0 0 0 2.75.95 5.59 5.59 0 0 0 2.8-.64 19.28 19.28 0 0 0 2.59-1.55c.82-.54 1.63-1.1 2.49-1.57a8.71 8.71 0 0 1 1.28-.63 6.73 6.73 0 0 1 1.52-.32 5.91 5.91 0 0 1 2.86.59c.9.38 1.77.85 2.68 1.23a11.26 11.26 0 0 0 2.86.74 16 16 0 0 0 2.94 0c1-.06 1.93-.13 2.9-.12s1.92.1 2.88.17a20.2 20.2 0 0 0 2.91.06c1-.07 2-.2 3-.33a24.45 24.45 0 0 1 3-.26 17.2 17.2 0 0 1 3 .21 29.29 29.29 0 0 0 3 .35 9.74 9.74 0 0 0 2.8-.32 27.65 27.65 0 0 0 2.76-1 20.52 20.52 0 0 1 2.76-1 10.74 10.74 0 0 1 2.94-.32c1 0 2 .12 2.94.12a10.06 10.06 0 0 0 2.88-.49 23 23 0 0 0 2.74-1.1 25.83 25.83 0 0 1 2.67-1.1 8.22 8.22 0 0 1 2.91-.42 9 9 0 0 1 2.88.69 22 22 0 0 1 2.55 1.21c.92.48 1.83 1 2.74 1.47s1.69.87 2.56 1.25a29.24 29.24 0 0 0 2.84 1.04c.93.3 1.87.58 2.81.87a25.27 25.27 0 0 0 2.81.74 7 7 0 0 0 2.92 0 7.39 7.39 0 0 0 2.61-1.24 27.94 27.94 0 0 0 2.38-2c.74-.66 1.49-1.3 2.29-1.89a6.29 6.29 0 0 1 2.55-1.19 5.72 5.72 0 0 1 1.49 0 8 8 0 0 1 1.35.32" fill="none" stroke="#3555bf" stroke-linecap="round" stroke-width=".03"/></g><g clip-path="url(#g)"><path d="m.66 10.31a26.19 26.19 0 0 1 2.84 1.06 11.39 11.39 0 0 1 2.5 1.81c.74.69 1.43 1.44 2.16 2.16a16.69 16.69 0 0 0 2.46 2.06 7 7 0 0 0 2.82 1.08 7.86 7.86 0 0 0 3-.17 29.45 29.45 0 0 0 2.93-.95c1-.36 2-.71 3-1s2-.48 3-.83a11.93 11.93 0 0 0 2.63-1.46c.85-.59 1.65-1.26 2.46-1.91a27.66 27.66 0 0 1 2.49-1.85 7.13 7.13 0 0 1 2.76-1.11 6.27 6.27 0 0 1 3 .42c.95.34 1.86.79 2.82 1.09a9.4 9.4 0 0 0 3 .5 14.32 14.32 0 0 0 3.13-.44c1-.23 2-.51 3-.67a10.66 10.66 0 0 1 2.92-.1 25.34 25.34 0 0 1 3.1.61c1 .25 2 .52 3 .75a29.13 29.13 0 0 0 2.94.51 26.72 26.72 0 0 0 3.1.18c1 0 2.06-.07 3.08-.07a13.2 13.2 0 0 1 2.94.28 12.38 12.38 0 0 1 2.88 1.09c.93.48 1.82 1 2.7 1.61a15.67 15.67 0 0 0 2.68 1.49 4.28 4.28 0 0 0 3 .19 7.07 7.07 0 0 0 1.47-.76 8.81 8.81 0 0 0 1.15-1 28.6 28.6 0 0 0 2.1-2.31c.67-.78 1.34-1.54 2.07-2.27a5.82 5.82 0 0 1 2.54-1.6 4.25 4.25 0 0 1 3 .54 16.34 16.34 0 0 1 2.55 1.76c.82.63 1.63 1.28 2.47 1.88a12.92 12.92 0 0 0 2.58 1.47 7.36 7.36 0 0 0 3 .61 9.71 9.71 0 0 0 3.06-.68c1-.35 1.86-.81 2.78-1.21a15.12 15.12 0 0 1 2.76-.91" fill="none" stroke="#3555bf" stroke-linecap="round" stroke-width=".03"/></g><g clip-path="url(#h)"><path d="m.7 10.49c.87.5 1.81.87 2.67 1.39a14.15 14.15 0 0 1 2.49 2c.73.71 1.4 1.48 2.1 2.21a12.53 12.53 0 0 0 2.23 1.95 6.51 6.51 0 0 0 2.86 1.09 8.51 8.51 0 0 0 3.09-.32 29.77 29.77 0 0 0 2.83-1 20.7 20.7 0 0 1 2.88-1c1-.24 2-.38 3-.64a9.86 9.86 0 0 0 2.81-1.17 26.94 26.94 0 0 0 2.47-1.81c.79-.65 1.58-1.32 2.42-1.91a10.53 10.53 0 0 1 2.78-1.5 5.45 5.45 0 0 1 2.89-.08c1 .22 1.93.61 2.91.89a12.07 12.07 0 0 0 3.1.48 14.53 14.53 0 0 0 3-.33c1-.19 2-.43 2.95-.55a13.7 13.7 0 0 1 3.07 0c1 .11 2 .31 3.05.51s1.94.39 2.91.56 2 .32 3.06.42 2 .18 3.08.22 2 .06 3 .11a17.7 17.7 0 0 1 3 .37 14.06 14.06 0 0 1 2.89 1c1 .44 1.87 1 2.78 1.47a21.57 21.57 0 0 0 2.71 1.38 6.38 6.38 0 0 0 1.42.4 4.78 4.78 0 0 0 1.6-.09 6.25 6.25 0 0 0 2.61-1.45 26.73 26.73 0 0 0 2.22-2.17c.71-.75 1.41-1.5 2.18-2.19a5.8 5.8 0 0 1 2.59-1.5 4.5 4.5 0 0 1 3 .56 17.46 17.46 0 0 1 2.55 1.71c.8.59 1.58 1.2 2.41 1.75a11.52 11.52 0 0 0 2.69 1.42 6.77 6.77 0 0 0 3 .33 10.5 10.5 0 0 0 2.94-.93c.93-.42 1.81-.9 2.73-1.32s1.8-.74 2.72-1.06" fill="none" stroke="#3555bf" stroke-linecap="round" stroke-width=".03"/></g><g clip-path="url(#i)"><path d="m.2 18.45a10.66 10.66 0 0 1 1.33-.45 11.81 11.81 0 0 1 1.55-.31 7.23 7.23 0 0 1 2.92.24 19.8 19.8 0 0 1 2.74 1.14 8.53 8.53 0 0 0 2.78.89 6.31 6.31 0 0 0 2.9-.55 18.3 18.3 0 0 0 2.52-1.32 26.74 26.74 0 0 1 2.7-1.43 6.38 6.38 0 0 1 2.88-.61 7.06 7.06 0 0 1 2.79.84c.86.43 1.69.92 2.56 1.33a15.3 15.3 0 0 0 2.79 1 22.16 22.16 0 0 0 2.93.51c1 .1 2 .2 3 .33s2 .31 3 .43a16.25 16.25 0 0 0 3 .07c1-.06 2-.23 2.94-.38s1.93-.29 2.9-.35a20.2 20.2 0 0 1 2.91.05 16.51 16.51 0 0 0 3 .07 10.87 10.87 0 0 0 2.66-.7c.93-.39 1.83-.84 2.74-1.28a21.26 21.26 0 0 1 2.76-1.12 9.54 9.54 0 0 1 2.91-.38c1 0 1.92.1 2.88.06a11 11 0 0 0 2.87-.53 27.12 27.12 0 0 0 2.84-1.13 21.86 21.86 0 0 1 2.77-1.1 7.11 7.11 0 0 1 2.86-.31 9.32 9.32 0 0 1 2.86.84 28.1 28.1 0 0 1 2.51 1.42c.86.53 1.71 1.07 2.57 1.59s1.69 1 2.56 1.41a20 20 0 0 0 2.78 1.09 27.83 27.83 0 0 0 2.83.7 16.45 16.45 0 0 0 2.95.39 7.64 7.64 0 0 0 2.92-.49 9.69 9.69 0 0 0 2.48-1.41c.81-.64 1.58-1.32 2.35-2a17.18 17.18 0 0 1 2.23-1.75 6.24 6.24 0 0 1 1.29-.65 5.07 5.07 0 0 1 1.48-.35 6.43 6.43 0 0 1 1.52.15 8.72 8.72 0 0 1 1.31.43" fill="none" stroke="#3555bf" stroke-linecap="round" stroke-width=".03"/></g><g clip-path="url(#j)"><path d="m.22 17.33a7.51 7.51 0 0 1 2.9-.33 8.35 8.35 0 0 1 2.76.89c.9.45 1.75 1 2.62 1.53a9.14 9.14 0 0 0 1.21.61 6.05 6.05 0 0 0 1.52.38 5.2 5.2 0 0 0 2.77-.59 20.16 20.16 0 0 0 2.55-1.55c.81-.55 1.62-1.11 2.47-1.61a7 7 0 0 1 2.64-1 5.44 5.44 0 0 1 1.56 0 6 6 0 0 1 1.32.38c.92.36 1.79.82 2.72 1.16a10.13 10.13 0 0 0 2.87.65 16.38 16.38 0 0 0 3-.14c1-.12 2-.26 3-.31a24.17 24.17 0 0 1 3 .08 23.75 23.75 0 0 0 2.92.05c1 0 1.95-.17 2.92-.29a27.93 27.93 0 0 1 2.79-.24 16.06 16.06 0 0 1 2.86.21c1 .15 1.94.38 2.92.45a10 10 0 0 0 2.94-.19 23.28 23.28 0 0 0 2.8-.88 27 27 0 0 1 2.8-.93 10.58 10.58 0 0 1 2.92-.35c1 0 2 .16 2.93.16a10.7 10.7 0 0 0 2.93-.36 20.62 20.62 0 0 0 2.75-1c.91-.39 1.81-.8 2.75-1.1a8.91 8.91 0 0 1 2.94-.46 10.06 10.06 0 0 1 2.87.6 26.77 26.77 0 0 1 2.65 1.14l2.73 1.34c.85.41 1.71.81 2.59 1.16s1.91.71 2.88 1l2.8.89c.92.31 1.83.63 2.77.85a7.29 7.29 0 0 0 2.94.15 7 7 0 0 0 2.68-1.16 23.86 23.86 0 0 0 2.37-1.91c.71-.62 1.41-1.28 2.17-1.84a7.28 7.28 0 0 1 2.64-1.35 5.86 5.86 0 0 1 2.85.14" fill="none" stroke="#3555bf" stroke-linecap="round" stroke-width=".03"/></g><g clip-path="url(#k)"><path d="m.43 14.62a11.55 11.55 0 0 1 2.77.73 11.72 11.72 0 0 1 2.57 1.59c.75.57 1.44 1.22 2.18 1.81a8.45 8.45 0 0 0 2.63 1.52 4.65 4.65 0 0 0 2.9-.18 12.19 12.19 0 0 0 2.52-1.34c.82-.52 1.62-1.08 2.45-1.59a10.36 10.36 0 0 1 2.69-1.22 6.36 6.36 0 0 1 2.91 0c1 .19 1.9.48 2.88.59a7.25 7.25 0 0 0 2.89-.3 17.63 17.63 0 0 0 2.63-1.06 27.8 27.8 0 0 1 2.8-1.17 9.33 9.33 0 0 1 2.87-.47c1 0 1.9.1 2.85.14a27.25 27.25 0 0 0 2.86 0c1-.07 1.91-.18 2.87-.23a17.56 17.56 0 0 1 2.9.06c1 .11 1.93.31 2.89.5a16.69 16.69 0 0 0 2.9.38 16.8 16.8 0 0 0 2.92-.2c1-.15 1.94-.35 2.92-.5a16.58 16.58 0 0 1 2.9-.21 28.37 28.37 0 0 1 2.91.28 23.41 23.41 0 0 0 2.9.19 23 23 0 0 0 2.87-.25c1-.13 1.9-.3 2.86-.4a18.07 18.07 0 0 1 2.85-.11 27.56 27.56 0 0 1 2.86.35c1 .15 1.93.3 2.9.41s1.94.2 2.91.26 2 .1 2.92.17a20.19 20.19 0 0 1 2.9.38 15.52 15.52 0 0 1 2.8.91c.91.39 1.79.84 2.7 1.24a8.51 8.51 0 0 0 2.75.79 5.79 5.79 0 0 0 2.85-.48 13.06 13.06 0 0 0 2.54-1.59c.77-.59 1.5-1.23 2.27-1.8a11.69 11.69 0 0 1 2.49-1.5c.46-.18.92-.34 1.39-.49a11.7 11.7 0 0 0 1.28-.5" fill="none" stroke="#3555bf" stroke-linecap="round" stroke-width=".03"/></g><g clip-path="url(#l)"><path d="m.48 14a17.32 17.32 0 0 1 2.73 1 12.84 12.84 0 0 1 2.51 1.69c.75.62 1.45 1.3 2.2 1.93a8.42 8.42 0 0 0 2.41 1.55 4.47 4.47 0 0 0 2.89.06 12.17 12.17 0 0 0 2.72-1.31c.83-.5 1.63-1.05 2.47-1.54a10.94 10.94 0 0 1 2.66-1.19 6.56 6.56 0 0 1 2.93-.19 23.44 23.44 0 0 0 2.89.44 7.54 7.54 0 0 0 2.85-.44 20.9 20.9 0 0 0 2.62-1.24 27.64 27.64 0 0 1 2.64-1.35 8.54 8.54 0 0 1 2.86-.59 28.41 28.41 0 0 1 2.92.16 23.22 23.22 0 0 0 2.89 0c1-.05 1.94-.15 2.91-.22a20.05 20.05 0 0 1 2.9 0 27 27 0 0 1 2.84.44 23.2 23.2 0 0 0 2.86.42 16.29 16.29 0 0 0 2.88-.08c1-.11 1.93-.26 2.89-.38a19 19 0 0 1 2.95-.16 26 26 0 0 1 2.92.27 28.54 28.54 0 0 0 2.92.27 28.26 28.26 0 0 0 2.91-.06c1-.06 1.94-.14 2.91-.17a21.76 21.76 0 0 1 2.91.08c1 .08 1.94.24 2.91.37a25.4 25.4 0 0 0 2.89.24c1 0 1.9 0 2.85-.07s1.88-.14 2.88-.16a13.5 13.5 0 0 1 2.91.15 12.94 12.94 0 0 1 2.85.9c.89.4 1.75.87 2.63 1.29a10.4 10.4 0 0 0 2.76 1 5.57 5.57 0 0 0 2.86-.25 11.71 11.71 0 0 0 2.65-1.49c.77-.56 1.51-1.17 2.27-1.73a13 13 0 0 1 2.5-1.51c.45-.2.91-.37 1.38-.53a13.25 13.25 0 0 0 1.27-.57" fill="none" stroke="#3555bf" stroke-linecap="round" stroke-width=".03"/></g><g clip-path="url(#m)"><path d="m.63 10.3a18.1 18.1 0 0 1 2.9.82 10.08 10.08 0 0 1 2.54 1.7c.78.7 1.52 1.45 2.27 2.18a16.23 16.23 0 0 0 2.36 1.94 7.44 7.44 0 0 0 2.83 1.14 8.45 8.45 0 0 0 3.13-.14 22.57 22.57 0 0 0 2.89-.94c1-.35 1.92-.7 2.9-1a24.57 24.57 0 0 0 2.91-.92 15.15 15.15 0 0 0 2.79-1.6c.84-.6 1.63-1.26 2.44-1.91a19.57 19.57 0 0 1 2.47-1.74 6.48 6.48 0 0 1 2.94-.9 6.91 6.91 0 0 1 2.93.64l1.51.67c.49.21 1 .39 1.49.57a8.84 8.84 0 0 0 3 .47 12.36 12.36 0 0 0 3-.48 30.13 30.13 0 0 1 2.95-.71 11.42 11.42 0 0 1 2.97-.09 24 24 0 0 1 3 .65c1 .26 1.92.54 2.88.78a25.78 25.78 0 0 0 3 .58 21.8 21.8 0 0 0 3.13.14c1 0 2-.13 3-.17a11.56 11.56 0 0 1 3 .2 10.86 10.86 0 0 1 2.85 1c.94.51 1.84 1.08 2.74 1.67a13.81 13.81 0 0 0 2.57 1.45 7.13 7.13 0 0 0 .78.26 6 6 0 0 0 .83.14 3.32 3.32 0 0 0 1.43-.2 6.91 6.91 0 0 0 2.56-1.71 27.26 27.26 0 0 0 2.1-2.33c.67-.79 1.35-1.58 2.08-2.32a5.87 5.87 0 0 1 2.52-1.61 4.18 4.18 0 0 1 3 .52 16.34 16.34 0 0 1 2.55 1.73c.82.63 1.63 1.27 2.47 1.87a13.24 13.24 0 0 0 2.55 1.48 7.84 7.84 0 0 0 3 .7 9.5 9.5 0 0 0 3.08-.58c1-.32 1.89-.77 2.83-1.16a11.5 11.5 0 0 1 2.79-.84" fill="none" stroke="#3555bf" stroke-linecap="round" stroke-width=".03"/></g><g clip-path="url(#n)"><path d="m.21 18.6a12.69 12.69 0 0 1 2.88-.91 7.52 7.52 0 0 1 2.91.14 16 16 0 0 1 2.74 1.05 9.69 9.69 0 0 0 2.78.88 6.28 6.28 0 0 0 2.9-.45 20.19 20.19 0 0 0 2.58-1.25 28 28 0 0 1 2.75-1.35 6.58 6.58 0 0 1 2.87-.5 7.45 7.45 0 0 1 2.78.9c.87.43 1.7.92 2.57 1.34a16.81 16.81 0 0 0 2.73 1.07 24.5 24.5 0 0 0 3 .61c1 .15 2 .28 2.94.45s2 .35 3 .49a14.44 14.44 0 0 0 2.94.1 26.18 26.18 0 0 0 2.92-.37c1-.16 1.93-.32 2.91-.4a20.47 20.47 0 0 1 2.93 0c.53 0 1.05.05 1.58.06s1-.05 1.5-.1a9.31 9.31 0 0 0 2.58-.81c.93-.4 1.83-.86 2.73-1.31a19.92 19.92 0 0 1 2.75-1.14 9.5 9.5 0 0 1 2.9-.4c1 0 1.93.1 2.9.06a11.44 11.44 0 0 0 2.85-.5 28 28 0 0 0 2.8-1.1 23.37 23.37 0 0 1 2.78-1.06 7.65 7.65 0 0 1 2.85-.27 9.31 9.31 0 0 1 2.86.88 25.15 25.15 0 0 1 2.58 1.42c.86.53 1.7 1.07 2.56 1.59s1.72 1 2.61 1.45a17.4 17.4 0 0 0 2.76 1 23.55 23.55 0 0 0 2.86.63 14.77 14.77 0 0 0 3 .25 7.84 7.84 0 0 0 2.9-.64 10.67 10.67 0 0 0 2.31-1.41c.8-.64 1.56-1.31 2.32-2a17.48 17.48 0 0 1 2.29-1.74 7.62 7.62 0 0 1 1.42-.66 3.91 3.91 0 0 1 .68-.14 4.33 4.33 0 0 1 .71-.1 7.5 7.5 0 0 1 1.49.19 11.9 11.9 0 0 1 1.31.45" fill="none" stroke="#3555bf" stroke-linecap="round" stroke-width=".03"/></g><g clip-path="url(#o)"><path d="m.7 10.68c.86.55 1.79 1 2.65 1.51a13.63 13.63 0 0 1 2.34 1.94c.74.73 1.42 1.51 2.13 2.26a13.24 13.24 0 0 0 2.24 2 6.23 6.23 0 0 0 2.79 1 7.86 7.86 0 0 0 3-.37c1-.3 2-.71 2.95-1.1a21.52 21.52 0 0 1 2.93-1c1-.25 2-.33 3-.51a9.15 9.15 0 0 0 1.43-.38 11.25 11.25 0 0 0 1.46-.66 16.79 16.79 0 0 0 2.38-1.69c.8-.63 1.58-1.28 2.4-1.89a11.33 11.33 0 0 1 2.6-1.52 5.91 5.91 0 0 1 1.55-.41 5.8 5.8 0 0 1 1.5 0 23.7 23.7 0 0 1 3 .77c.48.12 1 .23 1.45.31a11.41 11.41 0 0 0 1.5.16 14.68 14.68 0 0 0 3-.26c1-.17 2-.37 3.07-.49a13 13 0 0 1 2.93 0c1 .1 2 .28 3 .45s2 .36 3.07.51 2 .25 3 .34 1.94.15 2.91.21 2 .11 3 .19a24.62 24.62 0 0 1 3.09.39 15.86 15.86 0 0 1 2.92.89 27.85 27.85 0 0 1 2.59 1.23 26.27 26.27 0 0 0 2.82 1.38 5.62 5.62 0 0 0 3 .47 6.53 6.53 0 0 0 1.55-.5 6.73 6.73 0 0 0 1.19-.74 23.41 23.41 0 0 0 2.31-2c.75-.73 1.5-1.47 2.31-2.14a6 6 0 0 1 2.57-1.43 4.65 4.65 0 0 1 3 .57 18.38 18.38 0 0 1 2.57 1.69c.81.59 1.62 1.22 2.48 1.75a11.21 11.21 0 0 0 2.71 1.28 6.59 6.59 0 0 0 3.06.12 10.23 10.23 0 0 0 2.85-1.01c.91-.45 1.8-.94 2.72-1.37s1.79-.76 2.7-1.12" fill="none" stroke="#3555bf" stroke-linecap="round" stroke-width=".03"/></g><g clip-path="url(#p)"><path d="m.37 15.26a9.14 9.14 0 0 1 2.8.48 11 11 0 0 1 2.64 1.48c.77.55 1.48 1.18 2.24 1.74a7.5 7.5 0 0 0 2.61 1.4 4.81 4.81 0 0 0 2.9-.3 14.13 14.13 0 0 0 2.49-1.39c.81-.54 1.61-1.12 2.44-1.63a10.39 10.39 0 0 1 2.69-1.23 6 6 0 0 1 2.91 0c1 .23 1.89.56 2.86.74a7.45 7.45 0 0 0 2.9-.08 14.46 14.46 0 0 0 2.72-.9 26.48 26.48 0 0 1 2.74-1 10.37 10.37 0 0 1 2.88-.39c1 0 1.92.1 2.89.12s1.94 0 2.91-.11 1.94-.19 2.91-.19a17 17 0 0 1 2.94.12c1 .12 1.94.35 2.9.54a14.87 14.87 0 0 0 2.9.3 15.83 15.83 0 0 0 2.9-.34c1-.19 1.92-.42 2.89-.6a14.45 14.45 0 0 1 2.87-.24c1 0 1.91.16 2.86.27a17 17 0 0 0 2.85.1 19.59 19.59 0 0 0 2.85-.42c1-.2 1.9-.44 2.86-.61a14 14 0 0 1 2.89-.27 19 19 0 0 1 2.91.35c1 .18 1.88.38 2.82.57s1.94.39 2.92.56 2 .32 2.95.48 1.9.31 2.84.54a22.41 22.41 0 0 1 2.8.93c.93.39 1.84.83 2.78 1.2a8 8 0 0 0 2.81.62 5.89 5.89 0 0 0 2.78-.68 14.54 14.54 0 0 0 2.43-1.67c.76-.61 1.48-1.26 2.25-1.84a10.4 10.4 0 0 1 2.49-1.47 11.17 11.17 0 0 1 1.39-.43c.45-.12.88-.26 1.31-.42" fill="none" stroke="#3555bf" stroke-linecap="round" stroke-width=".03"/></g><g clip-path="url(#q)"><path d="m.54 13.34a29.14 29.14 0 0 1 2.69 1.17 13.43 13.43 0 0 1 2.42 1.75c.75.66 1.46 1.36 2.2 2a8 8 0 0 0 2.31 1.62 5.15 5.15 0 0 0 1.53.39 4.16 4.16 0 0 0 1.36-.12 11.8 11.8 0 0 0 2.78-1.15c.86-.47 1.68-1 2.53-1.49a11.56 11.56 0 0 1 2.64-1.2 7.61 7.61 0 0 1 3-.15 17.92 17.92 0 0 0 2.92.27 7.58 7.58 0 0 0 2.8-.72 26 26 0 0 0 2.65-1.43 21.37 21.37 0 0 1 2.49-1.35 8.13 8.13 0 0 1 2.83-.71 21.31 21.31 0 0 1 2.88.17 21.93 21.93 0 0 0 2.92.1c.95 0 1.89-.12 2.83-.19a28.24 28.24 0 0 1 3-.08 20.65 20.65 0 0 1 2.92.38c1 .17 1.93.35 2.91.44a18.45 18.45 0 0 0 2.88 0c1-.07 1.9-.18 2.85-.28a25.06 25.06 0 0 1 2.87-.13 28.22 28.22 0 0 1 2.89.27c1 .13 1.94.27 2.92.34s2 .09 2.93.1 2 0 2.94.07 2 .15 2.94.28 2 .32 3 .43a15.82 15.82 0 0 0 2.92.07 23.36 23.36 0 0 0 2.87-.42c.94-.18 1.87-.38 2.82-.51a10.54 10.54 0 0 1 2.86-.08 10.24 10.24 0 0 1 2.9.88c.86.39 1.67.87 2.51 1.3a13.54 13.54 0 0 0 2.85 1.16 5.55 5.55 0 0 0 1.35.17 7.18 7.18 0 0 0 .81-.06 3.5 3.5 0 0 0 .64-.15 7.42 7.42 0 0 0 1.39-.5 15.44 15.44 0 0 0 1.35-.8c.8-.52 1.54-1.12 2.32-1.67a15.68 15.68 0 0 1 2.47-1.51c.45-.21.92-.39 1.38-.57a10 10 0 0 0 1.28-.6" fill="none" stroke="#3e5fdf" stroke-linecap="round" stroke-width=".03"/></g><g clip-path="url(#r)"><path d="m.28 18.84a17 17 0 0 1 2.56-1.09 8.25 8.25 0 0 1 2.79-.41 9.73 9.73 0 0 1 2.76.66c.9.34 1.78.77 2.71 1a6.56 6.56 0 0 0 2.79.09 12.16 12.16 0 0 0 2.61-.82c.91-.37 1.81-.76 2.74-1.09a8.37 8.37 0 0 1 2.76-.5 6.49 6.49 0 0 1 2.67.62c.86.38 1.69.84 2.53 1.26a28.52 28.52 0 0 0 2.66 1.16 23.07 23.07 0 0 0 2.7.77c.92.21 1.85.39 2.78.58s1.85.43 2.78.66a17.48 17.48 0 0 0 2.78.53 13.47 13.47 0 0 0 2.84 0c.94-.13 1.88-.3 2.81-.49s1.9-.39 2.87-.51 1.89-.12 2.84-.14a12.19 12.19 0 0 0 2.82-.37 8.1 8.1 0 0 0 1.26-.42 11.08 11.08 0 0 1 -2.26.67h-.26a1 1 0 0 0 -.35.05.93.93 0 0 1 .24 0l.29-.05.55-.1c.34-.08.68-.18 1-.29a16.57 16.57 0 0 0 1.91-.77l.56-.26.31-.14s.24-.08.26-.12-.27.12-.3.14l-.28.12-.57.26c-.38.16-.76.33-1.15.48 1-.38 1.89-.85 2.83-1.3a25.41 25.41 0 0 1 2.88-1.22 9.14 9.14 0 0 1 2.94-.47c1 0 2 .15 3 .15a12.59 12.59 0 0 0 3.06-.33 27 27 0 0 0 2.93-.93 24.68 24.68 0 0 1 2.92-.91 7.86 7.86 0 0 1 2.9-.15 9.47 9.47 0 0 1 2.88.95c1 .46 1.86 1 2.76 1.55s1.68 1 2.54 1.52a24.66 24.66 0 0 0 2.84 1.36 15 15 0 0 0 2.94.78 19.13 19.13 0 0 0 3 .25 10.39 10.39 0 0 0 2.94-.35 10.17 10.17 0 0 0 2.66-1.22 27.54 27.54 0 0 0 2.51-2c.75-.63 1.49-1.29 2.29-1.86a8.79 8.79 0 0 1 2.71-1.42 4.62 4.62 0 0 1 1.48-.17 7.41 7.41 0 0 1 1.61.32 12.24 12.24 0 0 1 1.31.51" fill="none" stroke="#3555bf" stroke-linecap="round" stroke-width=".03"/></g><g clip-path="url(#s)"><path d="m.25 16.91a7.18 7.18 0 0 1 2.88-.15 8.92 8.92 0 0 1 2.74 1c.88.5 1.71 1.08 2.57 1.62a6.83 6.83 0 0 0 2.7 1 5.09 5.09 0 0 0 2.78-.59 19.65 19.65 0 0 0 2.56-1.56c.8-.55 1.59-1.12 2.42-1.61a7.71 7.71 0 0 1 2.67-1.1 5.63 5.63 0 0 1 2.87.32c.92.34 1.8.77 2.73 1.08a9.17 9.17 0 0 0 2.88.49 16.86 16.86 0 0 0 2.95-.25 28.34 28.34 0 0 1 2.9-.5 17.67 17.67 0 0 1 2.91 0c1 .05 2 .1 2.95.07s2-.15 3-.27 2-.21 2.94-.23a13.8 13.8 0 0 1 2.8.21c1 .17 2 .39 3 .52a9.73 9.73 0 0 0 2.9-.07 19.82 19.82 0 0 0 2.84-.76c.94-.31 1.87-.62 2.83-.85a11.57 11.57 0 0 1 2.87-.3c1 0 1.91.16 2.86.2a11.11 11.11 0 0 0 2.88-.24 19.93 19.93 0 0 0 2.8-.92c.92-.36 1.83-.75 2.78-1a8.87 8.87 0 0 1 2.85-.47 10.34 10.34 0 0 1 2.86.49c1 .3 1.91.68 2.85 1.07l2.65 1.15c.89.38 1.78.75 2.69 1.08s1.92.64 2.88.93 1.88.59 2.8.92 1.82.68 2.75.93a7.24 7.24 0 0 0 2.89.31 6.45 6.45 0 0 0 2.73-1 21.54 21.54 0 0 0 2.39-1.86c.72-.63 1.43-1.29 2.19-1.87a8 8 0 0 1 2.64-1.43 6.59 6.59 0 0 1 2.83-.07" fill="none" stroke="#3555bf" stroke-linecap="round" stroke-width=".03"/></g><g clip-path="url(#t)"><path d="m.59 10.33a13.09 13.09 0 0 1 3 .59 8.49 8.49 0 0 1 2.6 1.58c.81.68 1.57 1.43 2.35 2.16a15.25 15.25 0 0 0 2.32 1.84 8.27 8.27 0 0 0 2.86 1.15 8.46 8.46 0 0 0 3.13-.11 19.71 19.71 0 0 0 2.91-.93c.95-.35 1.9-.7 2.86-1a26.11 26.11 0 0 0 2.86-1 15.88 15.88 0 0 0 2.72-1.61c.84-.6 1.63-1.26 2.45-1.89a15.25 15.25 0 0 1 2.44-1.63 5.74 5.74 0 0 1 2.91-.77 6.7 6.7 0 0 1 1.62.29 11.38 11.38 0 0 1 1.38.53c.93.42 1.85.9 2.81 1.25a9 9 0 0 0 3.05.56 11.43 11.43 0 0 0 3-.47c1-.25 1.92-.57 2.91-.74a10.33 10.33 0 0 1 3.03-.13 18.67 18.67 0 0 1 3.05.68c1 .27 1.93.58 2.9.84a22.29 22.29 0 0 0 2.92.62 16.76 16.76 0 0 0 3.09.14c1-.05 2.06-.18 3.1-.28a11.58 11.58 0 0 1 2.94.05 10 10 0 0 1 2.9 1 28.7 28.7 0 0 1 2.71 1.64 18 18 0 0 0 2.59 1.52 4.28 4.28 0 0 0 3 .33 5.16 5.16 0 0 0 .77-.31 6.23 6.23 0 0 0 .71-.41 8.61 8.61 0 0 0 1.19-1 28.6 28.6 0 0 0 2.1-2.31c.67-.78 1.34-1.56 2.06-2.3a5.83 5.83 0 0 1 2.5-1.62 3.18 3.18 0 0 1 1.47-.08 6 6 0 0 1 1.54.55 15.5 15.5 0 0 1 2.5 1.66c.85.64 1.69 1.29 2.56 1.9a14.55 14.55 0 0 0 2.56 1.48 8.11 8.11 0 0 0 3 .73 9.88 9.88 0 0 0 3.09-.49c1-.31 1.92-.75 2.87-1.14a13.23 13.23 0 0 1 1.33-.48 7.38 7.38 0 0 1 1.46-.28" fill="none" stroke="#4769ff" stroke-linecap="round" stroke-width=".03"/></g><g clip-path="url(#u)"><path d="m.23 18.71a13.49 13.49 0 0 1 2.82-1 7.81 7.81 0 0 1 2.95-.01 13.23 13.23 0 0 1 2.78.95 11 11 0 0 0 2.78.9 6.46 6.46 0 0 0 2.92-.36 20.35 20.35 0 0 0 2.6-1.19 23.13 23.13 0 0 1 2.78-1.25 6.56 6.56 0 0 1 2.88-.38 8.31 8.31 0 0 1 2.76.95c.88.44 1.73.93 2.61 1.36a19.07 19.07 0 0 0 2.71 1.07 24.46 24.46 0 0 0 2.91.66c1 .18 2 .34 2.93.53s1.94.41 2.92.56a14.91 14.91 0 0 0 2.91.14 28 28 0 0 0 2.9-.37c1-.17 2-.36 2.94-.46a24.17 24.17 0 0 1 3-.11h1.57a12.66 12.66 0 0 0 1.51-.15 9.26 9.26 0 0 0 2.59-.78c.92-.41 1.82-.88 2.72-1.33a19.42 19.42 0 0 1 2.75-1.14 9.8 9.8 0 0 1 2.9-.38c1 0 1.93.1 2.9.07a11.55 11.55 0 0 0 2.85-.47 29.55 29.55 0 0 0 2.8-1 22.58 22.58 0 0 1 2.79-1 7.56 7.56 0 0 1 2.84-.23 9.14 9.14 0 0 1 2.87.9 26.6 26.6 0 0 1 2.5 1.4c.85.53 1.69 1.07 2.54 1.59a29.47 29.47 0 0 0 2.65 1.44 16.32 16.32 0 0 0 2.76 1 20.31 20.31 0 0 0 2.88.55 14.94 14.94 0 0 0 3 .11 8.46 8.46 0 0 0 2.83-.78 11.32 11.32 0 0 0 2.42-1.58c.79-.64 1.55-1.31 2.32-2a15.44 15.44 0 0 1 2.31-1.7 7.92 7.92 0 0 1 1.44-.62 4.41 4.41 0 0 1 .7-.16h.8a7 7 0 0 1 2.69.68" fill="none" stroke="#3555bf" stroke-linecap="round" stroke-width=".03"/></g><g clip-path="url(#v)"><path d="m.32 15.87a7.8 7.8 0 0 1 2.84.25 9.67 9.67 0 0 1 2.67 1.33c.79.52 1.52 1.13 2.3 1.67a7.09 7.09 0 0 0 2.59 1.29 4.75 4.75 0 0 0 1.55 0 5.3 5.3 0 0 0 1.34-.4 14.38 14.38 0 0 0 2.49-1.41c.81-.55 1.6-1.13 2.43-1.64a9.92 9.92 0 0 1 2.73-1.25 5.6 5.6 0 0 1 2.9.11c.94.25 1.84.63 2.79.86a8.14 8.14 0 0 0 2.91.15 14.28 14.28 0 0 0 2.79-.71 25.57 25.57 0 0 1 2.74-.85 11.84 11.84 0 0 1 2.91-.27c1 0 1.94.1 2.91.1a26 26 0 0 0 2.92-.16c1-.09 1.95-.19 2.93-.23a16.88 16.88 0 0 1 2.93.15c1 .13 1.92.37 2.88.55a12.68 12.68 0 0 0 2.88.23 16.35 16.35 0 0 0 2.87-.46c1-.23 1.9-.5 2.86-.69a13.13 13.13 0 0 1 2.87-.29c1 0 1.92.15 2.89.24a14 14 0 0 0 2.89 0 19 19 0 0 0 2.89-.6c1-.27 1.9-.58 2.87-.81a12 12 0 0 1 2.93-.36 13.66 13.66 0 0 1 2.91.38c.94.21 1.87.48 2.8.75l2.81.79c.94.25 1.88.5 2.83.72s1.9.43 2.84.69a28.18 28.18 0 0 1 2.86.95c.91.36 1.8.76 2.72 1.09a7.9 7.9 0 0 0 2.84.53 6 6 0 0 0 2.77-.82 16.32 16.32 0 0 0 2.44-1.75c.72-.59 1.4-1.24 2.15-1.8a10.27 10.27 0 0 1 2.58-1.51 25 25 0 0 1 2.75-.63" fill="none" stroke="#3e5fdf" stroke-linecap="round" stroke-width=".03"/></g><g clip-path="url(#w)"><path d="m.59 12.75c.88.45 1.8.83 2.66 1.33a13.48 13.48 0 0 1 2.29 1.75c.74.68 1.43 1.4 2.15 2.09a10.51 10.51 0 0 0 2.31 1.79 4.68 4.68 0 0 0 2.85.46 9.39 9.39 0 0 0 2.8-1.05c.89-.45 1.74-1 2.61-1.44a12.22 12.22 0 0 1 2.74-1.15 8.5 8.5 0 0 1 2.93-.23 15.43 15.43 0 0 0 3 .09 7.83 7.83 0 0 0 2.74-.9 29.7 29.7 0 0 0 2.6-1.55 25 25 0 0 1 2.55-1.49 7.69 7.69 0 0 1 2.82-.77 13.92 13.92 0 0 1 2.88.21 21 21 0 0 0 2.85.18c1 0 2-.1 3-.18a26.64 26.64 0 0 1 2.82-.15 22 22 0 0 1 2.81.26c1 .16 2 .35 2.93.46a20.54 20.54 0 0 0 2.94.13c1 0 1.95-.09 2.92-.15s1.94-.1 2.91-.08a27.71 27.71 0 0 1 2.89.27c1 .12 1.91.26 2.87.36s1.93.17 2.9.25 2 .16 2.92.29 2 .31 3 .51 2 .4 3 .51a11.58 11.58 0 0 0 2.94-.08 20.18 20.18 0 0 0 2.78-.75c.95-.31 1.89-.65 2.85-.91a8.74 8.74 0 0 1 2.88-.32 8.54 8.54 0 0 1 2.86.83c.86.39 1.68.9 2.51 1.36a16.28 16.28 0 0 0 2.77 1.3 6.45 6.45 0 0 0 1.37.3 8 8 0 0 0 1.62-.08 4.43 4.43 0 0 0 1.26-.37 13.37 13.37 0 0 0 1.41-.72c.82-.48 1.58-1.06 2.37-1.6a18.25 18.25 0 0 1 2.56-1.51c.88-.42 1.79-.74 2.65-1.21" fill="none" stroke="#3e5fdf" stroke-linecap="round" stroke-width=".03"/></g><g clip-path="url(#x)"><path d="m.7 11c.85.57 1.77 1 2.63 1.58a13.78 13.78 0 0 1 2.27 1.9c.72.73 1.4 1.5 2.1 2.24a13.5 13.5 0 0 0 2.31 2 5.57 5.57 0 0 0 2.82 1 8 8 0 0 0 2.95-.51c1-.32 1.87-.74 2.79-1.13a18.32 18.32 0 0 1 2.8-1 25.6 25.6 0 0 1 3-.45 9.27 9.27 0 0 0 2.87-.78 15.61 15.61 0 0 0 2.63-1.67c.82-.61 1.61-1.25 2.42-1.87a14.09 14.09 0 0 1 2.47-1.56 5.83 5.83 0 0 1 2.93-.57 21.74 21.74 0 0 1 3 .62 13.71 13.71 0 0 0 2.92.42 19.38 19.38 0 0 0 3-.21c1-.14 2-.33 3-.41a16.25 16.25 0 0 1 3 0c1 .11 2 .28 3 .45s1.94.29 2.92.4 2 .18 2.94.25l3 .19 3.06.24c1 .09 2 .2 3 .38a19.45 19.45 0 0 1 2.89.74c1 .34 1.93.75 2.88 1.19s1.83.86 2.77 1.23a8 8 0 0 0 1.43.33 7 7 0 0 0 1.58.11 6.23 6.23 0 0 0 2.85-1 17.13 17.13 0 0 0 2.29-1.78c.78-.68 1.55-1.37 2.39-2a6.32 6.32 0 0 1 2.72-1.28 4.89 4.89 0 0 1 2.94.58 18.27 18.27 0 0 1 2.61 1.66c.82.58 1.63 1.17 2.5 1.67a10 10 0 0 0 2.83 1.18 6.3 6.3 0 0 0 3-.12 13.1 13.1 0 0 0 2.74-1.2c.89-.48 1.76-1 2.67-1.42s1.8-.76 2.69-1.16" fill="none" stroke="#4769ff" stroke-linecap="round" stroke-width=".03"/></g><g clip-path="url(#y)"><path d="m.25 18.79a15.41 15.41 0 0 1 2.75-1.06 7.61 7.61 0 0 1 2.93-.18 11.36 11.36 0 0 1 2.84.86 15 15 0 0 0 2.77.92 6.46 6.46 0 0 0 2.9-.24 17.91 17.91 0 0 0 2.66-1.09 25 25 0 0 1 2.78-1.14 6.7 6.7 0 0 1 2.88-.32 8.88 8.88 0 0 1 2.77 1c.89.45 1.75.93 2.65 1.36a18.93 18.93 0 0 0 2.74 1.1 28.48 28.48 0 0 0 2.9.7c1 .19 1.94.37 2.91.58s1.91.46 2.88.62a13.3 13.3 0 0 0 2.89.1 20.77 20.77 0 0 0 2.93-.37c1-.17 1.93-.38 2.91-.51a24.22 24.22 0 0 1 2.95-.12 13.75 13.75 0 0 0 2.87-.15 14.15 14.15 0 0 0 1.59-.38c.43-.14.86-.32 1.28-.5.92-.42 1.82-.89 2.73-1.33a17.09 17.09 0 0 1 2.74-1.11 9.56 9.56 0 0 1 2.91-.36c1 0 1.93.13 2.9.1a12 12 0 0 0 2.85-.43c1-.27 1.88-.63 2.8-1a23 23 0 0 1 2.8-.94 7.82 7.82 0 0 1 2.85-.19 9.3 9.3 0 0 1 2.86.92 27 27 0 0 1 2.53 1.37c.85.53 1.69 1.06 2.55 1.57a26.81 26.81 0 0 0 2.64 1.43 15.86 15.86 0 0 0 2.77.94 19.11 19.11 0 0 0 2.91.44 13.94 13.94 0 0 0 3 0 8.76 8.76 0 0 0 2.81-.92 12.65 12.65 0 0 0 2.32-1.62c.78-.65 1.54-1.32 2.32-2a12.55 12.55 0 0 1 2.33-1.64 7.66 7.66 0 0 1 1.46-.58 4.77 4.77 0 0 1 1.51-.11 7.42 7.42 0 0 1 2.64.72" fill="none" stroke="#3555bf" stroke-linecap="round" stroke-width=".03"/></g><g clip-path="url(#z)"><path d="m.44 10.46a10.41 10.41 0 0 1 2.93-.4 6.13 6.13 0 0 1 2.85.94 26.14 26.14 0 0 1 2.5 1.82 24.94 24.94 0 0 0 2.44 1.78 9.45 9.45 0 0 0 2.78 1.17 7.59 7.59 0 0 0 3 0 14.6 14.6 0 0 0 2.88-.91c.91-.36 1.81-.73 2.72-1.08s1.89-.69 2.79-1.12a18.37 18.37 0 0 0 2.67-1.51c.86-.58 1.69-1.19 2.54-1.76a10.33 10.33 0 0 1 2.63-1.39 7.1 7.1 0 0 1 1.59-.31 4.86 4.86 0 0 1 1.42.14 11.56 11.56 0 0 1 2.82 1.28c.83.47 1.64 1 2.51 1.39a8.36 8.36 0 0 0 2.88.87 10.21 10.21 0 0 0 3-.24c1-.22 1.94-.53 2.92-.74a10 10 0 0 1 3-.2 12.44 12.44 0 0 1 2.93.67c1 .31 1.91.67 2.87 1a20.53 20.53 0 0 0 2.87.75 11.37 11.37 0 0 0 3 .18 19.55 19.55 0 0 0 3-.54 24.44 24.44 0 0 1 3-.66 7.39 7.39 0 0 1 3 .23 12.78 12.78 0 0 1 2.77 1.25c.85.49 1.67 1 2.54 1.49a6.91 6.91 0 0 0 2.92.93 5.18 5.18 0 0 0 2.83-.87 14.68 14.68 0 0 0 2.3-1.85c.75-.71 1.49-1.44 2.28-2.1a11.71 11.71 0 0 1 1.38-.95 4.22 4.22 0 0 1 1.25-.55 5.66 5.66 0 0 1 .81-.12 4 4 0 0 1 .77 0 4.67 4.67 0 0 1 1.28.35c.51.24 1 .46 1.5.74s.9.53 1.34.81c.84.53 1.67 1.07 2.53 1.57a15.34 15.34 0 0 0 2.73 1.26 9.85 9.85 0 0 0 3 .53 11.32 11.32 0 0 0 3-.42 22.67 22.67 0 0 0 2.79-1 26.19 26.19 0 0 1 2.73-1" fill="none" stroke="#3555bf" stroke-linecap="round" stroke-width=".03"/></g><g clip-path="url(#A)"><path d="m.41 10.46a11.3 11.3 0 0 1 2.93-.54 5.77 5.77 0 0 1 2.84.75 21.3 21.3 0 0 1 2.55 1.75c.8.61 1.6 1.21 2.45 1.74a9.7 9.7 0 0 0 2.82 1.16 7.37 7.37 0 0 0 3 0 14.79 14.79 0 0 0 2.83-.9c.91-.36 1.81-.75 2.73-1.11s1.91-.72 2.84-1.15a19.71 19.71 0 0 0 2.6-1.45c.85-.56 1.68-1.16 2.54-1.7a10.34 10.34 0 0 1 2.63-1.28 5.55 5.55 0 0 1 3-.08 11.23 11.23 0 0 1 2.74 1.23c.88.52 1.75 1.07 2.67 1.53a9.1 9.1 0 0 0 2.83.91 8.93 8.93 0 0 0 3-.15c1-.21 1.94-.49 2.92-.69a10.15 10.15 0 0 1 3-.21 13 13 0 0 1 3 .68c1 .31 1.92.66 2.88 1a23.76 23.76 0 0 0 2.9.76 11.91 11.91 0 0 0 3 .16 14.11 14.11 0 0 0 2.88-.56c1-.27 1.9-.6 2.88-.78a8 8 0 0 1 3-.07 9.93 9.93 0 0 1 2.79 1c.93.49 1.83 1 2.75 1.52a7.82 7.82 0 0 0 2.59 1.02 5.16 5.16 0 0 0 3-.57 12.71 12.71 0 0 0 2.39-1.65c.78-.65 1.53-1.33 2.34-1.94a12.27 12.27 0 0 1 1.27-.9 4.62 4.62 0 0 1 1.31-.53 5.07 5.07 0 0 1 1.6-.08 7 7 0 0 1 1.48.43 15.64 15.64 0 0 1 2.61 1.35c.83.49 1.66 1 2.51 1.44a16.8 16.8 0 0 0 2.88 1.19 10 10 0 0 0 3 .41 11.35 11.35 0 0 0 2.89-.43 21.55 21.55 0 0 0 2.78-1l2.66-1.19" fill="none" stroke="#3555bf" stroke-linecap="round" stroke-width=".03"/></g><g clip-path="url(#B)"><path d="m.47 10.47a8.9 8.9 0 0 1 3-.24 7 7 0 0 1 2.81 1.1 30.11 30.11 0 0 1 2.46 1.92 23.72 23.72 0 0 0 2.42 1.8 9.17 9.17 0 0 0 2.81 1.18 7.64 7.64 0 0 0 3 0 17.16 17.16 0 0 0 2.9-.92c.92-.36 1.83-.73 2.76-1.07a26.71 26.71 0 0 0 2.78-1.09 20.51 20.51 0 0 0 2.71-1.6c.84-.58 1.65-1.2 2.49-1.78a10.92 10.92 0 0 1 2.55-1.4 5.54 5.54 0 0 1 3-.31 9.3 9.3 0 0 1 2.73 1.07c.9.5 1.79 1 2.74 1.46a8.71 8.71 0 0 0 2.91.81 10.66 10.66 0 0 0 3.08-.32c1-.24 2-.55 2.94-.77a9.27 9.27 0 0 1 3-.2 14.84 14.84 0 0 1 2.88.65c1 .31 1.93.67 2.9 1a21.45 21.45 0 0 0 3 .77 13.82 13.82 0 0 0 3.08.16 18.26 18.26 0 0 0 3-.51 16.7 16.7 0 0 1 2.9-.47 7.69 7.69 0 0 1 3 .44 16.54 16.54 0 0 1 2.68 1.37c.85.52 1.67 1.09 2.55 1.54a5.55 5.55 0 0 0 2.9.79 4.86 4.86 0 0 0 1.55-.36 6.21 6.21 0 0 0 1.22-.72 20 20 0 0 0 2.32-2.09c.72-.73 1.42-1.48 2.19-2.17a12.69 12.69 0 0 1 1.23-1 3.91 3.91 0 0 1 1.27-.51 4.26 4.26 0 0 1 1.59-.12 5.64 5.64 0 0 1 1.38.42 19 19 0 0 1 2.72 1.59c.84.57 1.67 1.15 2.53 1.67a14.78 14.78 0 0 0 2.66 1.35 9.12 9.12 0 0 0 3 .61 10.42 10.42 0 0 0 3-.41 25 25 0 0 0 2.82-1c.44-.18.88-.36 1.33-.51l.77-.22a4.91 4.91 0 0 1 .67-.08" fill="none" stroke="#3555bf" stroke-linecap="round" stroke-width=".03"/></g><g clip-path="url(#C)"><path d="m.37 10.48a12 12 0 0 1 2.94-.69 5.68 5.68 0 0 1 2.81.6 17.75 17.75 0 0 1 2.6 1.68c.78.57 1.56 1.15 2.4 1.65a9.45 9.45 0 0 0 2.73 1.18 7.68 7.68 0 0 0 3 .07 14 14 0 0 0 2.82-.88c.92-.37 1.83-.77 2.76-1.14s1.92-.75 2.86-1.18a18.57 18.57 0 0 0 2.5-1.4c.86-.54 1.69-1.13 2.56-1.65a10.67 10.67 0 0 1 2.74-1.27 5.42 5.42 0 0 1 2.91 0 12.07 12.07 0 0 1 2.73 1.26c.89.53 1.77 1.09 2.69 1.57a9.76 9.76 0 0 0 2.83 1 8.62 8.62 0 0 0 2.91-.08c1-.16 1.92-.43 2.88-.62a9.68 9.68 0 0 1 2.94-.2 15.32 15.32 0 0 1 2.91.66c1 .32 1.9.68 2.86 1a20.78 20.78 0 0 0 2.91.77 12.82 12.82 0 0 0 3 .15 13.33 13.33 0 0 0 2.94-.59c.95-.28 1.88-.62 2.83-.88a8.5 8.5 0 0 1 3-.3 8.82 8.82 0 0 1 2.87.82c.89.38 1.72.88 2.58 1.33a10.91 10.91 0 0 0 2.8 1.11 5.37 5.37 0 0 0 2.89-.21 12.09 12.09 0 0 0 2.69-1.52c.78-.55 1.51-1.16 2.3-1.69a8.49 8.49 0 0 1 2.68-1.32 5.63 5.63 0 0 1 1.53-.09 4 4 0 0 1 .69.14 5.94 5.94 0 0 1 .7.17 18.44 18.44 0 0 1 2.84 1.29c.85.45 1.7.92 2.57 1.33a16 16 0 0 0 2.92 1.08 10.44 10.44 0 0 0 3 .33 12 12 0 0 0 2.85-.44 17.64 17.64 0 0 0 2.79-1 29.28 29.28 0 0 0 2.62-1.33" fill="none" stroke="#3555bf" stroke-linecap="round" stroke-width=".03"/></g><g clip-path="url(#D)"><path d="m.51 10.44a8.89 8.89 0 0 1 3 0 7.47 7.47 0 0 1 2.75 1.29c.84.61 1.62 1.31 2.4 2a20.48 20.48 0 0 0 2.42 1.83 8.93 8.93 0 0 0 2.84 1.17 7.42 7.42 0 0 0 3 0 17.56 17.56 0 0 0 2.91-.92c.93-.36 1.86-.72 2.8-1a25.07 25.07 0 0 0 2.81-1.08 17.89 17.89 0 0 0 2.73-1.73c.84-.59 1.66-1.23 2.49-1.83a11.48 11.48 0 0 1 2.53-1.48 7.19 7.19 0 0 1 1.57-.44 4.83 4.83 0 0 1 1.47 0 9.27 9.27 0 0 1 2.86 1.08c.91.48 1.79 1 2.74 1.38a8.9 8.9 0 0 0 3 .67 10.11 10.11 0 0 0 2.95-.38c1-.25 1.92-.58 2.9-.77a9.52 9.52 0 0 1 3.06-.14 17.11 17.11 0 0 1 3 .71l2.93 1a19.59 19.59 0 0 0 3 .69 13 13 0 0 0 2.92.12 28.4 28.4 0 0 0 3-.46 15.25 15.25 0 0 1 3.09-.28 8.43 8.43 0 0 1 2.95.74 17.87 17.87 0 0 1 2.56 1.39 28.67 28.67 0 0 0 2.72 1.62 4.82 4.82 0 0 0 2.93.53 5.7 5.7 0 0 0 2.64-1.38 20.49 20.49 0 0 0 2.19-2.18c.7-.75 1.38-1.51 2.12-2.22a5.84 5.84 0 0 1 2.47-1.57 3.77 3.77 0 0 1 1.53-.11 5.59 5.59 0 0 1 1.45.47 17.94 17.94 0 0 1 2.67 1.65c.83.58 1.65 1.19 2.51 1.75a15.06 15.06 0 0 0 2.58 1.44 8.85 8.85 0 0 0 3 .68 10.31 10.31 0 0 0 3.08-.41 26.68 26.68 0 0 0 2.92-1.11c.44-.18.88-.35 1.33-.49.26-.07.51-.13.77-.18a3.82 3.82 0 0 1 .68-.05" fill="none" stroke="#3e5fdf" stroke-linecap="round" stroke-width=".03"/></g><g clip-path="url(#E)"><path d="m.55 10.39a10.09 10.09 0 0 1 3 .27 8.09 8.09 0 0 1 2.69 1.46c.83.65 1.59 1.37 2.37 2.06a17 17 0 0 0 2.39 1.82 8.49 8.49 0 0 0 2.86 1.16 7.75 7.75 0 0 0 3.07-.07 18.29 18.29 0 0 0 2.89-.91c.94-.36 1.88-.71 2.84-1a26.46 26.46 0 0 0 2.86-1 17.55 17.55 0 0 0 2.7-1.62c.84-.6 1.64-1.26 2.47-1.88a13 13 0 0 1 2.51-1.56 5.75 5.75 0 0 1 3-.57 8.83 8.83 0 0 1 2.91 1c.92.46 1.81.95 2.77 1.32a8.88 8.88 0 0 0 3 .61 10.85 10.85 0 0 0 2.94-.45c1-.26 1.93-.59 2.93-.77a9.94 9.94 0 0 1 3.08-.12 17.41 17.41 0 0 1 3 .7c1 .29 1.94.62 2.92.9a21 21 0 0 0 2.91.65 14.15 14.15 0 0 0 3.05.13c1-.07 2.06-.24 3.09-.38a11.91 11.91 0 0 1 3-.1 9.18 9.18 0 0 1 2.9.87 24.43 24.43 0 0 1 2.66 1.57 20.28 20.28 0 0 0 2.64 1.52 4.62 4.62 0 0 0 2.92.43 6.37 6.37 0 0 0 2.68-1.58 22.25 22.25 0 0 0 2.11-2.23c.68-.77 1.35-1.55 2.07-2.27a6.06 6.06 0 0 1 2.48-1.64 3.55 3.55 0 0 1 1.52-.1 5.3 5.3 0 0 1 1.47.49 18 18 0 0 1 2.69 1.72c.82.59 1.62 1.21 2.46 1.79a14.89 14.89 0 0 0 2.6 1.39 8.3 8.3 0 0 0 3 .72 9.85 9.85 0 0 0 3.1-.43 29.44 29.44 0 0 0 2.88-1.1c.43-.17.87-.34 1.32-.48.26-.07.5-.13.77-.18a5.51 5.51 0 0 1 .71-.06" fill="none" stroke="#4769ff" stroke-linecap="round" stroke-width=".03"/></g><g clip-path="url(#F)"><path d="m.28 16.42a7.07 7.07 0 0 1 2.86 0 9.25 9.25 0 0 1 2.71 1.19c.84.51 1.63 1.11 2.46 1.66a6.74 6.74 0 0 0 2.63 1.15 4.88 4.88 0 0 0 2.79-.42 19 19 0 0 0 2.53-1.51c.8-.55 1.6-1.13 2.43-1.64a9.29 9.29 0 0 1 2.78-1.21 5.61 5.61 0 0 1 2.87.24c.93.3 1.82.71 2.76 1a8.2 8.2 0 0 0 2.87.31 15 15 0 0 0 2.9-.54c1-.25 1.9-.53 2.87-.69a14.74 14.74 0 0 1 2.89-.14c.95 0 1.9.11 2.86.09s1.93-.11 2.89-.21 1.93-.22 2.9-.24a16 16 0 0 1 2.94.19c1 .16 2 .39 2.93.55a11.5 11.5 0 0 0 2.93.09 17.72 17.72 0 0 0 2.92-.67c.93-.26 1.86-.55 2.8-.76a12.53 12.53 0 0 1 2.92-.29c1 0 2 .16 2.93.23a12.25 12.25 0 0 0 2.9-.15 18.41 18.41 0 0 0 2.82-.78c.93-.32 1.85-.66 2.79-.94a10 10 0 0 1 2.84-.41 11.68 11.68 0 0 1 2.87.45c1 .25 1.89.59 2.82.92s1.81.66 2.72 1 1.79.62 2.7.9l2.89.81c1 .28 1.94.6 2.89 1s1.76.7 2.66 1a7.57 7.57 0 0 0 2.9.42 6.23 6.23 0 0 0 2.74-.91 18.42 18.42 0 0 0 2.34-1.77c.74-.64 1.47-1.31 2.25-1.9a7.31 7.31 0 0 1 5.4-1.81" fill="none" stroke="#4769ff" stroke-linecap="round" stroke-width=".03"/></g><g clip-path="url(#G)"><path d="m.33 10.51a12.31 12.31 0 0 1 2.92-.82 5.57 5.57 0 0 1 2.84.48 15.51 15.51 0 0 1 2.58 1.58c.79.56 1.57 1.13 2.4 1.62a9.65 9.65 0 0 0 2.72 1.17 7.67 7.67 0 0 0 3 .1 13.92 13.92 0 0 0 2.82-.86l2.85-1.2c.91-.37 1.84-.73 2.74-1.14a23 23 0 0 0 2.6-1.44c.81-.51 1.61-1.07 2.44-1.55a11.23 11.23 0 0 1 2.82-1.23 5.48 5.48 0 0 1 2.87.08 11.9 11.9 0 0 1 2.72 1.3c.84.5 1.65 1 2.51 1.49a9.83 9.83 0 0 0 2.76 1.05 9.16 9.16 0 0 0 3 .06c1-.13 2-.38 3-.56a10.8 10.8 0 0 1 2.95-.16 13.54 13.54 0 0 1 2.88.67c1 .32 1.9.68 2.86 1a19 19 0 0 0 2.88.73 12.16 12.16 0 0 0 2.89.14 13.36 13.36 0 0 0 2.88-.57c1-.29 1.88-.67 2.83-1a9.45 9.45 0 0 1 2.91-.55 8 8 0 0 1 2.91.49 26.4 26.4 0 0 1 2.81 1.29 14.24 14.24 0 0 0 2.68 1.1 6.18 6.18 0 0 0 3 .08 9.69 9.69 0 0 0 2.6-1.16c.85-.5 1.67-1.06 2.51-1.57a9 9 0 0 1 2.79-1.19 4.51 4.51 0 0 1 1.37-.07 8.64 8.64 0 0 1 1.52.27 19.19 19.19 0 0 1 2.81 1.2c.87.42 1.72.86 2.61 1.23a17.41 17.41 0 0 0 2.89.94 11.51 11.51 0 0 0 2.92.26 12.25 12.25 0 0 0 2.89-.44 19.78 19.78 0 0 0 2.78-1 20.8 20.8 0 0 0 2.56-1.45" fill="none" stroke="#3555bf" stroke-linecap="round" stroke-width=".03"/></g><g clip-path="url(#H)"><path d="m.69 11.29c.84.58 1.76 1 2.61 1.59a14.2 14.2 0 0 1 2.23 1.86c.71.72 1.38 1.47 2.08 2.2a13.89 13.89 0 0 0 2.31 2 4.68 4.68 0 0 0 1.27.62 6 6 0 0 0 1.58.27 8.09 8.09 0 0 0 2.94-.64c.91-.33 1.78-.77 2.66-1.17a18.42 18.42 0 0 1 2.84-1.02 15.36 15.36 0 0 1 2.94-.37 9.16 9.16 0 0 0 2.94-.54 13.63 13.63 0 0 0 2.73-1.55c.83-.58 1.61-1.21 2.42-1.81a15.25 15.25 0 0 1 2.53-1.61 6.24 6.24 0 0 1 2.87-.67 14.57 14.57 0 0 1 2.87.47 15.69 15.69 0 0 0 3 .39 22.3 22.3 0 0 0 3-.19c1-.13 2-.28 3-.35a17.33 17.33 0 0 1 2.88.07c1 .11 2 .28 2.94.42s2 .27 3 .34 2 .13 3 .17 2 .08 3 .14 1.93.15 2.89.26 2 .22 3 .38a25.34 25.34 0 0 1 3 .64c1 .27 1.9.6 2.83 1s1.86.78 2.81 1.1a8.46 8.46 0 0 0 3 .6 6.75 6.75 0 0 0 2.82-.89 18.37 18.37 0 0 0 2.49-1.63c.83-.61 1.64-1.24 2.51-1.79a7.94 7.94 0 0 1 1.32-.64 5.79 5.79 0 0 1 1.54-.38 5.42 5.42 0 0 1 2.91.69 20.16 20.16 0 0 1 2.55 1.58 26.64 26.64 0 0 0 2.49 1.56 8.67 8.67 0 0 0 2.92 1 6.36 6.36 0 0 0 2.87-.36 16.81 16.81 0 0 0 2.69-1.33c.87-.51 1.74-1 2.65-1.47s1.79-.77 2.67-1.19" fill="none" stroke="#4769ff" stroke-linecap="round" stroke-width=".03"/></g><g clip-path="url(#I)"><path d="m.63 12.2c.86.51 1.78.93 2.63 1.46a13.32 13.32 0 0 1 2.27 1.82c.73.7 1.41 1.43 2.13 2.14a11.54 11.54 0 0 0 2.34 1.89 4.8 4.8 0 0 0 2.85.59 8.93 8.93 0 0 0 2.8-.91c.9-.41 1.76-.91 2.63-1.36a14.42 14.42 0 0 1 2.76-1.13 9.51 9.51 0 0 1 3-.26h1.38a10.46 10.46 0 0 0 1.58-.13 8.56 8.56 0 0 0 2.7-1.13c.87-.51 1.69-1.09 2.52-1.66a21.35 21.35 0 0 1 2.51-1.52 7.24 7.24 0 0 1 2.84-.77 13.34 13.34 0 0 1 2.88.29 19.34 19.34 0 0 0 2.85.24 29 29 0 0 0 2.94-.17c1-.1 2-.2 2.95-.21a19.46 19.46 0 0 1 3 .21c1 .14 2 .31 3 .44a23.86 23.86 0 0 0 2.92.19h2.88s1.92-.05 2.89 0 2 .15 2.94.28l3 .38c1 .12 2 .24 3 .39s2 .33 2.94.55 1.91.47 2.86.72a17 17 0 0 0 2.78.46 8.27 8.27 0 0 0 2.93-.3 17.1 17.1 0 0 0 2.78-1.1c.9-.42 1.78-.86 2.7-1.22a7.33 7.33 0 0 1 2.88-.57 7.21 7.21 0 0 1 2.88.8c.86.41 1.67.94 2.48 1.43a19.28 19.28 0 0 0 2.66 1.4 7.73 7.73 0 0 0 1.49.44 6 6 0 0 0 .73.05 4 4 0 0 0 .69 0 7.43 7.43 0 0 0 2.82-.88 28.44 28.44 0 0 0 2.48-1.53 20.93 20.93 0 0 1 2.58-1.52c.88-.41 1.79-.75 2.65-1.21" fill="none" stroke="#4769ff" stroke-linecap="round" stroke-width=".03"/></g><g clip-path="url(#J)"><path d="m.3 10.54a12.56 12.56 0 0 1 2.86-.92 5.5 5.5 0 0 1 2.89.38 13.16 13.16 0 0 1 2.54 1.48c.78.53 1.55 1.1 2.37 1.57a10.58 10.58 0 0 0 2.72 1.18 7.34 7.34 0 0 0 2.95.14 13.94 13.94 0 0 0 2.85-.84c1-.38 1.9-.81 2.86-1.21s1.77-.71 2.63-1.11a26.66 26.66 0 0 0 2.69-1.44c.84-.51 1.66-1.06 2.51-1.55a10.24 10.24 0 0 1 2.69-1.13 5.9 5.9 0 0 1 3 .09 5 5 0 0 1 .64.25 6.11 6.11 0 0 1 .64.26c.46.23.91.48 1.35.74.83.51 1.65 1.05 2.51 1.51a10.87 10.87 0 0 0 2.79 1.12 9.06 9.06 0 0 0 2.89.15c1-.1 2-.32 3-.47a11.67 11.67 0 0 1 2.95-.15 13.22 13.22 0 0 1 2.91.67c.94.32 1.87.67 2.82 1a16.75 16.75 0 0 0 2.87.72 13 13 0 0 0 3 .12 13.17 13.17 0 0 0 2.92-.6c1-.29 1.87-.68 2.8-1a12.41 12.41 0 0 1 2.87-.76 7.72 7.72 0 0 1 3 .25 16.1 16.1 0 0 1 2.55 1.01 23.91 23.91 0 0 0 2.72 1.12 7.21 7.21 0 0 0 2.92.32 9.71 9.71 0 0 0 2.83-.84c.92-.43 1.8-.93 2.71-1.39a9.86 9.86 0 0 1 2.78-1 7.91 7.91 0 0 1 1.54-.06 6.06 6.06 0 0 1 1.34.23 21.84 21.84 0 0 1 2.86 1.08c.88.38 1.75.78 2.65 1.11a17.7 17.7 0 0 0 2.84.82 12.72 12.72 0 0 0 3 .22 13.48 13.48 0 0 0 2.91-.46 16.05 16.05 0 0 0 2.78-1.05 16.88 16.88 0 0 0 2.47-1.52" fill="none" stroke="#3555bf" stroke-linecap="round" stroke-width=".03"/></g><g clip-path="url(#K)"><path d="m.66 11.71c.86.56 1.78 1 2.63 1.56a13.49 13.49 0 0 1 2.23 1.83c.71.71 1.38 1.45 2.08 2.16a13.07 13.07 0 0 0 2.38 2 5 5 0 0 0 2.83.72 8.27 8.27 0 0 0 2.87-.77c.89-.37 1.74-.83 2.61-1.25a17.54 17.54 0 0 1 2.89-1.14 11.68 11.68 0 0 1 2.95-.29 10.13 10.13 0 0 0 2.87-.33 10.82 10.82 0 0 0 2.74-1.37c.86-.56 1.67-1.18 2.5-1.78a17.32 17.32 0 0 1 2.49-1.56 6.62 6.62 0 0 1 2.86-.72 15.24 15.24 0 0 1 2.85.37 18 18 0 0 0 2.93.32 27.82 27.82 0 0 0 3-.19c1-.11 2-.22 3-.27a18.11 18.11 0 0 1 2.94.15c1 .13 1.9.3 2.86.43s1.94.21 2.91.25 2 .05 3 .06 2 0 3 .08 2 .17 3 .29 2 .24 2.93.38 1.94.29 2.9.5 1.93.47 2.88.77 1.91.64 2.88.94a11.48 11.48 0 0 0 2.9.58 7.08 7.08 0 0 0 2.88-.52 19.28 19.28 0 0 0 2.7-1.42c.85-.49 1.71-1.06 2.61-1.49a7 7 0 0 1 2.83-.81 6.12 6.12 0 0 1 2.89.74 22.87 22.87 0 0 1 2.52 1.47 20.57 20.57 0 0 0 2.53 1.47 7.34 7.34 0 0 0 1.35.51 5.91 5.91 0 0 0 4.43-.32 22.07 22.07 0 0 0 2.6-1.45 26 26 0 0 1 2.62-1.49c.89-.43 1.8-.77 2.67-1.22" fill="none" stroke="#4769ff" stroke-linecap="round" stroke-width=".03"/></g><g clip-path="url(#L)"><path d="m.26 10.55a11.5 11.5 0 0 1 2.74-.98 4.63 4.63 0 0 1 1.43-.07 6.64 6.64 0 0 1 1.57.36 11.48 11.48 0 0 1 2.56 1.43c.8.53 1.58 1.09 2.42 1.56a11.19 11.19 0 0 0 2.68 1.15 7.42 7.42 0 0 0 2.93.15 14 14 0 0 0 2.88-.85c.94-.38 1.87-.8 2.81-1.2s1.78-.73 2.65-1.14 1.81-.91 2.69-1.43 1.68-1.05 2.55-1.53a9.7 9.7 0 0 1 2.75-1.07 5.22 5.22 0 0 1 2.77.18 9.23 9.23 0 0 1 1.38.55c.46.23.9.49 1.34.75.84.51 1.66 1.06 2.53 1.52a11.08 11.08 0 0 0 2.8 1.07 9.64 9.64 0 0 0 2.89.16c1-.09 2-.28 2.94-.41a11.36 11.36 0 0 1 3 0 14.6 14.6 0 0 1 2.84.72c.93.33 1.85.69 2.79 1a15.25 15.25 0 0 0 2.9.67 12.46 12.46 0 0 0 3 0 13.64 13.64 0 0 0 2.88-.65c.92-.31 1.8-.69 2.7-1.06a13.36 13.36 0 0 1 2.81-.91 8.07 8.07 0 0 1 2.94 0 16.35 16.35 0 0 1 2.78.89c.94.38 1.87.79 2.85 1.11a9 9 0 0 0 2.91.44 9.94 9.94 0 0 0 2.86-.56c.95-.32 1.85-.74 2.78-1.11a10.63 10.63 0 0 1 2.8-.84 8.25 8.25 0 0 1 2.89.16 22.81 22.81 0 0 1 2.89 1c.89.34 1.78.69 2.68 1a16.65 16.65 0 0 0 2.84.72 14.48 14.48 0 0 0 2.94.18 14.54 14.54 0 0 0 2.93-.46 15.29 15.29 0 0 0 2.77-1.08 14.12 14.12 0 0 0 2.36-1.55" fill="none" stroke="#3555bf" stroke-linecap="round" stroke-width=".03"/></g><g clip-path="url(#M)"><path d="m.21 6.37a13.37 13.37 0 0 1 2.89.29 9.43 9.43 0 0 1 2.7 1.28c.86.57 1.7 1.2 2.58 1.75a13.2 13.2 0 0 0 2.72 1.31 12.87 12.87 0 0 0 2.89.57 11.15 11.15 0 0 0 2.94-.14 16.56 16.56 0 0 0 2.94-.87c.95-.35 1.87-.76 2.79-1.17s1.77-.8 2.64-1.24 1.8-.95 2.7-1.42a15.13 15.13 0 0 1 2.71-1.18 7.63 7.63 0 0 1 3-.32 13.24 13.24 0 0 1 2.91.75 15.67 15.67 0 0 0 2.92.83 8 8 0 0 0 3-.24 25.79 25.79 0 0 0 2.81-1 14.4 14.4 0 0 1 2.89-.8 6.7 6.7 0 0 1 2.92.23 13.54 13.54 0 0 1 2.7 1.26 21.22 21.22 0 0 0 2.59 1.35 7.06 7.06 0 0 0 2.94.56 8.91 8.91 0 0 0 2.87-.72c.93-.39 1.83-.85 2.75-1.27s1.84-.8 2.78-1.18 1.88-.66 2.83-1 1.92-.59 2.9-.83 2-.45 3-.62a21.94 21.94 0 0 1 3-.32 10.17 10.17 0 0 1 3 .43 18.41 18.41 0 0 1 2.68 1.23c.86.42 1.72.87 2.6 1.23a12.26 12.26 0 0 0 2.88.88 11.81 11.81 0 0 0 3 0 14.34 14.34 0 0 1 3-.14 8 8 0 0 1 2.82.84 19.68 19.68 0 0 1 2.58 1.63c.8.58 1.57 1.19 2.36 1.77a18.3 18.3 0 0 0 2.53 1.65 7.91 7.91 0 0 0 2.88.92 6.62 6.62 0 0 0 2.92-.43 29.44 29.44 0 0 0 2.66-1.27" fill="none" stroke="#478eff" stroke-linecap="round" stroke-width=".03"/></g><g clip-path="url(#N)"><path d="m.23 6.47a15.47 15.47 0 0 1 2.88.39 9.56 9.56 0 0 1 2.67 1.34c.86.6 1.68 1.24 2.55 1.82a12.8 12.8 0 0 0 2.67 1.35 12.79 12.79 0 0 0 2.93.71 10.34 10.34 0 0 0 2.94 0 15.24 15.24 0 0 0 3-.8c.95-.34 1.87-.75 2.79-1.16s1.83-.87 2.73-1.36 1.75-1 2.63-1.5a17.28 17.28 0 0 1 2.6-1.36 6.81 6.81 0 0 1 2.93-.46 10.42 10.42 0 0 1 2.9.75 15.55 15.55 0 0 0 2.89 1 7.25 7.25 0 0 0 3-.11 21.73 21.73 0 0 0 2.82-1 15.4 15.4 0 0 1 2.88-.87 6.22 6.22 0 0 1 1.43-.1 7.08 7.08 0 0 1 1.58.28 11.41 11.41 0 0 1 2.65 1.29 26.53 26.53 0 0 0 2.61 1.44 6.68 6.68 0 0 0 2.91.65 8 8 0 0 0 2.89-.72c.94-.42 1.85-.9 2.77-1.35s1.85-.86 2.8-1.24 1.89-.7 2.84-1 1.88-.62 2.84-.87 1.91-.48 2.87-.65a20.14 20.14 0 0 1 3-.36 8.93 8.93 0 0 1 2.91.34 12.77 12.77 0 0 1 1.47.51c.48.2.95.41 1.41.64.89.43 1.78.89 2.69 1.29a12.86 12.86 0 0 0 2.92.91 11.72 11.72 0 0 0 2.9 0 13.61 13.61 0 0 1 3-.11 8.26 8.26 0 0 1 2.86.84 20.3 20.3 0 0 1 2.61 1.64c.81.58 1.59 1.19 2.39 1.78a18.07 18.07 0 0 0 2.61 1.66 7.67 7.67 0 0 0 2.88.85 6.49 6.49 0 0 0 2.92-.54 26.34 26.34 0 0 0 2.62-1.4" fill="none" stroke="#4769ff" stroke-linecap="round" stroke-width=".03"/></g><g clip-path="url(#O)"><path d="m.19 6.29a12.7 12.7 0 0 1 2.89.18 9.16 9.16 0 0 1 2.72 1.19c.87.54 1.71 1.14 2.6 1.66a11.92 11.92 0 0 0 2.75 1.17 11.68 11.68 0 0 0 2.87.45 11.78 11.78 0 0 0 3-.26 18.82 18.82 0 0 0 2.93-.93c.93-.37 1.85-.77 2.77-1.17s1.8-.78 2.69-1.19 1.85-.88 2.78-1.3a14.94 14.94 0 0 1 2.77-1 8.3 8.3 0 0 1 3-.13 15.94 15.94 0 0 1 2.89.75 13.2 13.2 0 0 0 2.91.66 8.58 8.58 0 0 0 2.89-.34c1-.26 1.92-.63 2.88-1a14.24 14.24 0 0 1 2.88-.7 7.15 7.15 0 0 1 2.87.29 16.09 16.09 0 0 1 2.72 1.38 22.47 22.47 0 0 0 2.71 1.2 7.37 7.37 0 0 0 3 .39 9.21 9.21 0 0 0 2.86-.78c.91-.36 1.8-.79 2.7-1.18s1.82-.74 2.73-1.06 1.86-.6 2.81-.88 2-.54 2.94-.76 1.94-.41 2.92-.56a18.81 18.81 0 0 1 2.89-.26 9.76 9.76 0 0 1 2.89.46 22.36 22.36 0 0 1 2.85 1.21c.9.42 1.76.86 2.7 1.22a10.93 10.93 0 0 0 2.86.78 12.48 12.48 0 0 0 3-.09 14.27 14.27 0 0 1 3-.18 7.83 7.83 0 0 1 2.8.84 18.78 18.78 0 0 1 2.48 1.65c.78.57 1.55 1.17 2.32 1.75a19.34 19.34 0 0 0 2.48 1.64 7.94 7.94 0 0 0 2.87 1 6.7 6.7 0 0 0 2.91-.32c.92-.3 1.8-.73 2.7-1.11" fill="none" stroke="#4769ff" stroke-linecap="round" stroke-width=".03"/></g><g clip-path="url(#P)"><path d="m.24 6.6a16.45 16.45 0 0 1 2.89.48 9.83 9.83 0 0 1 2.66 1.4c.84.62 1.66 1.27 2.51 1.87a13.36 13.36 0 0 0 2.7 1.43 14.15 14.15 0 0 0 2.93.81 10.34 10.34 0 0 0 2.94.06 13.26 13.26 0 0 0 3-.75c1-.34 1.89-.74 2.81-1.17a29.28 29.28 0 0 0 2.54-1.33c.89-.52 1.75-1.07 2.62-1.61a19.68 19.68 0 0 1 2.73-1.51 6.68 6.68 0 0 1 2.92-.57 8.83 8.83 0 0 1 2.84.74 20.56 20.56 0 0 0 2.83 1.07 6.61 6.61 0 0 0 3 .05 20.75 20.75 0 0 0 2.84-.93 16.62 16.62 0 0 1 2.85-.92 6.51 6.51 0 0 1 3 .09 11.29 11.29 0 0 1 2.72 1.29 30.57 30.57 0 0 0 2.72 1.58 6.49 6.49 0 0 0 2.9.7 7.25 7.25 0 0 0 2.89-.72c1-.42 1.84-.93 2.76-1.4s1.78-.88 2.7-1.26 1.9-.76 2.86-1.1 1.91-.65 2.89-.93 1.94-.51 2.92-.7a20.19 20.19 0 0 1 2.9-.38 10.11 10.11 0 0 1 3 .3 16.45 16.45 0 0 1 2.8 1.1c.93.45 1.86.92 2.81 1.34a13.94 13.94 0 0 0 2.87.93 10.86 10.86 0 0 0 3 .08 15 15 0 0 1 2.92-.1 9.18 9.18 0 0 1 2.89.86 18.58 18.58 0 0 1 2.51 1.6c.83.6 1.64 1.22 2.47 1.81a17.14 17.14 0 0 0 2.62 1.58 7.21 7.21 0 0 0 2.91.78 6.65 6.65 0 0 0 2.94-.66 22 22 0 0 0 2.49-1.51" fill="none" stroke="#4769ff" stroke-linecap="round" stroke-width=".03"/></g><g clip-path="url(#Q)"><path d="m.23 10.55a10.66 10.66 0 0 1 2.77-1.04 5.61 5.61 0 0 1 2.9.26 11.94 11.94 0 0 1 2.56 1.38c.8.53 1.6 1.08 2.44 1.55a11.3 11.3 0 0 0 2.73 1.15 7.51 7.51 0 0 0 2.91.16 13.87 13.87 0 0 0 2.91-.84c.91-.37 1.81-.78 2.71-1.17s1.8-.76 2.69-1.17a27.91 27.91 0 0 0 2.64-1.41c.86-.51 1.7-1 2.58-1.53a8.75 8.75 0 0 1 2.65-1 5.82 5.82 0 0 1 1.5-.09 7.77 7.77 0 0 1 1.52.33 7.13 7.13 0 0 1 1.26.51c.42.22.83.46 1.23.7.88.54 1.74 1.09 2.65 1.57a11.46 11.46 0 0 0 2.78 1.09 9.46 9.46 0 0 0 2.91.18c1-.07 1.93-.24 2.89-.34a11.65 11.65 0 0 1 2.89 0 15.84 15.84 0 0 1 2.85.78c.95.34 1.88.72 2.84 1a15 15 0 0 0 2.89.61 12.16 12.16 0 0 0 2.89-.06 14.82 14.82 0 0 0 2.87-.69c.94-.32 1.86-.73 2.78-1.13a20.48 20.48 0 0 1 2.74-1 8.27 8.27 0 0 1 2.93-.24 11.39 11.39 0 0 1 2.86.7c.91.31 1.8.68 2.72 1a11.89 11.89 0 0 0 2.88.59 10.42 10.42 0 0 0 3-.23 28.6 28.6 0 0 0 2.88-.81 13.89 13.89 0 0 1 2.76-.67 8.34 8.34 0 0 1 1.5-.09 10.36 10.36 0 0 1 1.56.18 21.84 21.84 0 0 1 2.84.81c.92.31 1.83.64 2.76.92a21.12 21.12 0 0 0 2.83.66 16.46 16.46 0 0 0 3 .18 13.65 13.65 0 0 0 2.92-.44 12.78 12.78 0 0 0 2.75-1.08 13.14 13.14 0 0 0 2.37-1.6" fill="none" stroke="#4769ff" stroke-linecap="round" stroke-width=".03"/></g><g clip-path="url(#R)"><path d="m.16 6.23a11.18 11.18 0 0 1 2.89.06 8.91 8.91 0 0 1 2.74 1.08c.89.52 1.74 1.09 2.64 1.63a11.44 11.44 0 0 0 2.76 1 12.16 12.16 0 0 0 2.88.31 12.67 12.67 0 0 0 2.93-.31 22.38 22.38 0 0 0 2.9-1c.9-.36 1.79-.76 2.68-1.14s1.85-.77 2.77-1.14 1.87-.77 2.82-1.13a15.1 15.1 0 0 1 2.83-.82 9.73 9.73 0 0 1 2.95 0 24.2 24.2 0 0 1 2.91.71 12.18 12.18 0 0 0 2.86.52 9.73 9.73 0 0 0 2.89-.38c1-.26 1.92-.61 2.88-.9a13.54 13.54 0 0 1 2.88-.6 7.7 7.7 0 0 1 2.9.33 20.4 20.4 0 0 1 2.78 1.16 21.3 21.3 0 0 0 2.79 1.16 7.23 7.23 0 0 0 2.92.29 11 11 0 0 0 2.87-.77c.92-.35 1.82-.76 2.74-1.12s1.84-.68 2.78-1 1.91-.56 2.87-.81 1.93-.48 2.91-.68 1.89-.36 2.85-.49a18.53 18.53 0 0 1 2.88-.19 9.82 9.82 0 0 1 2.94.51 24.56 24.56 0 0 1 2.8 1.2c.88.42 1.75.86 2.67 1.21a10 10 0 0 0 2.85.71 12.33 12.33 0 0 0 3-.17 15.39 15.39 0 0 1 3-.24 7.67 7.67 0 0 1 2.73.78 16.18 16.18 0 0 1 2.54 1.56c.79.56 1.55 1.16 2.33 1.74a19.78 19.78 0 0 0 2.48 1.7 8.39 8.39 0 0 0 2.79 1 7.1 7.1 0 0 0 2.9-.21c.94-.25 1.84-.64 2.75-1" fill="none" stroke="#4769ff" stroke-linecap="round" stroke-width=".03"/></g><g clip-path="url(#S)"><path d="m.25 6.78a17.5 17.5 0 0 1 2.89.52 9.58 9.58 0 0 1 2.64 1.45c.85.63 1.67 1.3 2.52 1.92a13.31 13.31 0 0 0 2.6 1.46 15 15 0 0 0 2.93.9 10.21 10.21 0 0 0 3 .14 13.23 13.23 0 0 0 3-.7c1-.34 1.91-.76 2.84-1.19a27.73 27.73 0 0 0 2.53-1.36c.87-.52 1.71-1.09 2.56-1.65a23.53 23.53 0 0 1 2.69-1.6 6.75 6.75 0 0 1 2.89-.67 7.74 7.74 0 0 1 2.94.75c.93.39 1.82.85 2.79 1.15a6.41 6.41 0 0 0 2.93.17 14.61 14.61 0 0 0 2.89-.88 19.93 19.93 0 0 1 2.89-1 5.93 5.93 0 0 1 3 0 11.7 11.7 0 0 1 2.74 1.31c.87.55 1.72 1.12 2.63 1.59a6.89 6.89 0 0 0 2.85.91 7.07 7.07 0 0 0 3-.7c.91-.39 1.77-.91 2.64-1.38s1.73-.92 2.65-1.34 1.88-.79 2.83-1.15 1.9-.7 2.87-1 2-.55 3-.76a23.28 23.28 0 0 1 3-.42 9.83 9.83 0 0 1 2.91.24 15.05 15.05 0 0 1 2.9 1.1c.92.43 1.82.89 2.75 1.31a13 13 0 0 0 2.85 1 11.22 11.22 0 0 0 3.06.1 19.53 19.53 0 0 1 3-.09 8.91 8.91 0 0 1 2.93.86 18 18 0 0 1 2.5 1.5c.84.58 1.65 1.2 2.49 1.78a16.19 16.19 0 0 0 2.59 1.56 7 7 0 0 0 2.93.73 6.79 6.79 0 0 0 2.93-.73 20.41 20.41 0 0 0 2.52-1.57" fill="none" stroke="#3555bf" stroke-linecap="round" stroke-width=".03"/></g><g clip-path="url(#T)"><path d="m.14 6.16a11.19 11.19 0 0 1 2.86-.05 8.48 8.48 0 0 1 2.75 1c.89.47 1.75 1 2.66 1.46a10.93 10.93 0 0 0 2.78 1 11.61 11.61 0 0 0 2.88.19 13.33 13.33 0 0 0 2.93-.56 25.63 25.63 0 0 0 2.82-1c.88-.37 1.74-.76 2.62-1.12s1.92-.77 2.9-1.12 1.88-.65 2.84-.92a15 15 0 0 1 2.9-.55 11.36 11.36 0 0 1 2.92.14c1 .16 1.9.43 2.85.65a12 12 0 0 0 2.86.37 11.28 11.28 0 0 0 2.88-.43c1-.24 1.91-.56 2.87-.81a14.19 14.19 0 0 1 2.89-.48 8.82 8.82 0 0 1 2.89.35 25.3 25.3 0 0 1 2.78 1.07 19.91 19.91 0 0 0 2.83 1 8.32 8.32 0 0 0 2.9.21 12.44 12.44 0 0 0 2.86-.75c.94-.34 1.86-.72 2.8-1.07s1.85-.61 2.79-.88 1.92-.5 2.88-.72 1.92-.39 2.92-.56 1.88-.31 2.83-.43a17.22 17.22 0 0 1 2.84-.15 10.94 10.94 0 0 1 2.94.52 28.75 28.75 0 0 1 2.8 1.2c.88.42 1.77.85 2.69 1.19a9.62 9.62 0 0 0 2.9.63 11.73 11.73 0 0 0 3-.24 16.85 16.85 0 0 1 2.82-.3 7.32 7.32 0 0 1 2.83.69 15.88 15.88 0 0 1 2.58 1.52c.8.55 1.56 1.15 2.34 1.73a20.15 20.15 0 0 0 2.43 1.6 8.62 8.62 0 0 0 2.75 1 7.65 7.65 0 0 0 2.9-.11c.94-.21 1.85-.55 2.78-.81" fill="none" stroke="#3555bf" stroke-linecap="round" stroke-width=".03"/></g><g clip-path="url(#U)"><path d="m.2 10.51a10.3 10.3 0 0 1 2.8-1.06 5.63 5.63 0 0 1 2.9.28 12.18 12.18 0 0 1 2.56 1.38c.8.52 1.6 1.06 2.45 1.52a11.72 11.72 0 0 0 2.74 1.13 7.36 7.36 0 0 0 2.92.15 13.81 13.81 0 0 0 2.89-.82c.92-.37 1.83-.79 2.74-1.19s1.78-.76 2.66-1.17 1.78-.91 2.64-1.43 1.73-1.05 2.63-1.54a8.27 8.27 0 0 1 2.68-1 5.93 5.93 0 0 1 2.92.31 13.16 13.16 0 0 1 2.56 1.31c.84.62 1.71 1.11 2.6 1.62a11.6 11.6 0 0 0 2.79 1 11.26 11.26 0 0 0 2.9.14c1-.06 1.92-.21 2.88-.28a10.83 10.83 0 0 1 2.9.13 17.61 17.61 0 0 1 2.84.88c.94.35 1.88.73 2.85 1a12.81 12.81 0 0 0 2.89.53 12.71 12.71 0 0 0 2.89-.2 17.55 17.55 0 0 0 2.86-.79c1-.34 1.86-.76 2.78-1.18a22.69 22.69 0 0 1 2.72-1.09 8.76 8.76 0 0 1 2.92-.38 11.43 11.43 0 0 1 2.89.54c.92.26 1.82.6 2.73.88a17.28 17.28 0 0 0 2.85.64 12.83 12.83 0 0 0 3 0 24.52 24.52 0 0 0 2.92-.53 29.36 29.36 0 0 1 3-.52 10.69 10.69 0 0 1 2.88.12 23.13 23.13 0 0 1 2.87.71c.93.27 1.84.56 2.77.82a23.2 23.2 0 0 0 2.84.62 16.2 16.2 0 0 0 3 .2 13.18 13.18 0 0 0 2.93-.41 12.35 12.35 0 0 0 2.75-1.1 12.17 12.17 0 0 0 2.29-1.62" fill="none" stroke="#4769ff" stroke-linecap="round" stroke-width=".03"/></g><g clip-path="url(#V)"><path d="m.25 7a17.5 17.5 0 0 1 2.89.52 9.61 9.61 0 0 1 2.64 1.48c.85.64 1.66 1.32 2.52 2a13.64 13.64 0 0 0 2.59 1.5 15.52 15.52 0 0 0 2.89 1 9.76 9.76 0 0 0 3 .2 12.57 12.57 0 0 0 3-.67 28.7 28.7 0 0 0 2.81-1.17 28.76 28.76 0 0 0 2.63-1.4c.86-.53 1.69-1.11 2.52-1.68a23.83 23.83 0 0 1 2.63-1.78 6.47 6.47 0 0 1 2.88-.76 7.26 7.26 0 0 1 3 .73c.92.4 1.8.88 2.75 1.22a6.47 6.47 0 0 0 3 .32 13.9 13.9 0 0 0 2.9-.82 22.66 22.66 0 0 1 2.89-.94 6.22 6.22 0 0 1 2.91 0 10.49 10.49 0 0 1 2.8 1.35c.83.52 1.64 1.09 2.51 1.55a6.63 6.63 0 0 0 2.87.88 6.77 6.77 0 0 0 3-.65c.92-.41 1.79-.92 2.66-1.41s1.82-1 2.76-1.4 1.79-.78 2.7-1.15 1.86-.71 2.82-1a28.78 28.78 0 0 1 2.9-.77 25.74 25.74 0 0 1 3-.45 10.84 10.84 0 0 1 3.06.21 15.77 15.77 0 0 1 2.97 1.09c.89.39 1.74.85 2.62 1.25a13.69 13.69 0 0 0 2.84 1 11.64 11.64 0 0 0 3.06.22 26.13 26.13 0 0 1 3.06-.09 8.63 8.63 0 0 1 2.9.79 17.15 17.15 0 0 1 2.6 1.49c.84.56 1.66 1.15 2.5 1.72a16 16 0 0 0 2.6 1.5 6.79 6.79 0 0 0 2.94.66 6.93 6.93 0 0 0 2.92-.8 26.92 26.92 0 0 0 2.49-1.59" fill="none" stroke="#3555bf" stroke-linecap="round" stroke-width=".03"/></g><g clip-path="url(#W)"><path d="m.25 7.3a14.76 14.76 0 0 1 2.89.46 9.64 9.64 0 0 1 2.65 1.45c.84.65 1.66 1.33 2.51 2a14.26 14.26 0 0 0 2.58 1.53 15.31 15.31 0 0 0 2.88 1 9.52 9.52 0 0 0 3 .24 12.08 12.08 0 0 0 3-.66 27 27 0 0 0 2.84-1.18 26.27 26.27 0 0 0 2.61-1.41c.9-.56 1.76-1.17 2.62-1.79a22.68 22.68 0 0 1 2.51-1.6 6.34 6.34 0 0 1 2.88-.82 7.06 7.06 0 0 1 3 .73c.92.41 1.8.92 2.74 1.28a6 6 0 0 0 1.39.39 7.79 7.79 0 0 0 1.6 0 11.63 11.63 0 0 0 2.95-.75 28.85 28.85 0 0 1 2.87-.89 6.26 6.26 0 0 1 2.92 0 10.49 10.49 0 0 1 2.8 1.35c.83.52 1.62 1.09 2.48 1.55a6.7 6.7 0 0 0 2.87.9 5.65 5.65 0 0 0 1.52-.08 7.62 7.62 0 0 0 1.39-.48c.91-.41 1.77-.92 2.65-1.41s1.84-1 2.79-1.45 1.81-.86 2.81-1.24 1.89-.75 2.85-1.07a25.84 25.84 0 0 1 2.87-.77 20.6 20.6 0 0 1 2.92-.45 11.39 11.39 0 0 1 3 .17 13 13 0 0 1 2.76.93c.94.44 1.88.9 2.83 1.33a15.76 15.76 0 0 0 2.91 1 10.43 10.43 0 0 0 3 .25c1 0 2-.16 3-.1a8.84 8.84 0 0 1 2.94.7 18.71 18.71 0 0 1 2.75 1.48c.84.54 1.66 1.11 2.51 1.65a16.06 16.06 0 0 0 2.56 1.46 6.36 6.36 0 0 0 5.84-.24c.87-.48 1.68-1.05 2.52-1.57" fill="none" stroke="#3555bf" stroke-linecap="round" stroke-width=".03"/></g><g clip-path="url(#X)"><path d="m.18 10.43a9.87 9.87 0 0 1 2.82-1.04 5.62 5.62 0 0 1 2.9.32 13.22 13.22 0 0 1 2.51 1.39c.81.52 1.61 1.06 2.46 1.51a11.77 11.77 0 0 0 2.73 1.11 7.57 7.57 0 0 0 2.92.16 13.85 13.85 0 0 0 2.9-.8c.91-.36 1.8-.77 2.69-1.17s1.8-.78 2.69-1.21a29.27 29.27 0 0 0 2.58-1.4c.86-.52 1.72-1.06 2.61-1.54a8.27 8.27 0 0 1 2.68-1 7.17 7.17 0 0 1 .81-.07 3.79 3.79 0 0 1 .67.06 5.62 5.62 0 0 1 .7.1c.25.07.5.14.75.23a15.25 15.25 0 0 1 2.57 1.33c.88.53 1.76 1.08 2.68 1.53a11.15 11.15 0 0 0 2.81.92 12.34 12.34 0 0 0 2.91.1c1-.06 1.92-.2 2.89-.24a10.41 10.41 0 0 1 2.89.24 22 22 0 0 1 2.83 1c.93.38 1.86.75 2.82 1a11 11 0 0 0 2.9.44 12.46 12.46 0 0 0 2.92-.34 21.69 21.69 0 0 0 2.84-.88c.92-.35 1.8-.77 2.69-1.18a26 26 0 0 1 2.65-1.1 10.2 10.2 0 0 1 2.89-.55 11.72 11.72 0 0 1 2.95.34c1 .22 1.9.52 2.84.8a28.15 28.15 0 0 0 2.85.69 17.33 17.33 0 0 0 3 .24 24.29 24.29 0 0 0 2.94-.25c1-.13 2-.27 2.94-.35a13.69 13.69 0 0 1 2.93.09 24.07 24.07 0 0 1 2.9.6c.93.25 1.85.52 2.78.76s1.89.47 2.86.63a18.28 18.28 0 0 0 3 .24 12.65 12.65 0 0 0 2.93-.37 11.67 11.67 0 0 0 2.72-1.1 12.19 12.19 0 0 0 2.2-1.67" fill="none" stroke="#3555bf" stroke-linecap="round" stroke-width=".03"/></g><g clip-path="url(#Y)"><path d="m.11 6.1a10.46 10.46 0 0 1 2.89-.16 9 9 0 0 1 2.76.88c.9.44 1.77 1 2.68 1.37a10.56 10.56 0 0 0 2.8.86 11.64 11.64 0 0 0 2.89 0 14.62 14.62 0 0 0 2.92-.63c.92-.29 1.82-.66 2.71-1s1.82-.81 2.75-1.18 1.85-.7 2.8-1a27.63 27.63 0 0 1 2.85-.72 16.82 16.82 0 0 1 2.92-.31 15.78 15.78 0 0 1 2.92.3c1 .17 1.9.41 2.86.59a12.61 12.61 0 0 0 2.87.25 14.78 14.78 0 0 0 2.88-.46c1-.23 1.91-.5 2.87-.71a13.92 13.92 0 0 1 2.87-.36 11.46 11.46 0 0 1 2.86.38c1 .26 1.9.63 2.84 1a20 20 0 0 0 2.85.88 9.28 9.28 0 0 0 2.88.11 14.82 14.82 0 0 0 2.86-.73c1-.33 1.88-.69 2.83-1s1.88-.56 2.83-.79 1.89-.47 2.85-.67 1.85-.33 2.85-.47 1.91-.27 2.86-.36a22.38 22.38 0 0 1 3.04-.17 9.25 9.25 0 0 1 2.75.53 28.25 28.25 0 0 1 2.78 1.18c.89.43 1.79.84 2.72 1.18a9.8 9.8 0 0 0 2.83.6 11.82 11.82 0 0 0 2.9-.31 16.91 16.91 0 0 1 2.91-.44 7.26 7.26 0 0 1 2.84.55 15 15 0 0 1 2.62 1.46c.82.54 1.59 1.14 2.38 1.72a23.4 23.4 0 0 0 2.47 1.63 8.78 8.78 0 0 0 2.66 1 7.91 7.91 0 0 0 2.91 0c1-.17 1.86-.46 2.8-.67" fill="none" stroke="#3555bf" stroke-linecap="round" stroke-width=".03"/></g><g clip-path="url(#Z)"><path d="m.23 7.64a11.83 11.83 0 0 1 2.91.36 9.21 9.21 0 0 1 2.66 1.41c.84.64 1.66 1.32 2.5 1.95a14.71 14.71 0 0 0 2.58 1.55 15.41 15.41 0 0 0 2.88 1 9.55 9.55 0 0 0 3 .25 12.08 12.08 0 0 0 3-.66 26 26 0 0 0 2.79-1.16 27.07 27.07 0 0 0 2.65-1.43c.83-.52 1.63-1.1 2.44-1.67a23.78 23.78 0 0 1 2.6-1.71 6.59 6.59 0 0 1 2.86-.88 5.77 5.77 0 0 1 1.55.18 8.24 8.24 0 0 1 1.35.53c.91.42 1.78 1 2.7 1.33a7 7 0 0 0 3 .6 11.29 11.29 0 0 0 3-.61c1-.3 1.94-.64 2.94-.86a6.57 6.57 0 0 1 3 0 9.84 9.84 0 0 1 2.72 1.29c.83.51 1.62 1.08 2.47 1.54a7.06 7.06 0 0 0 2.88.95 6.23 6.23 0 0 0 2.94-.56c1-.43 1.86-.94 2.77-1.46s1.78-1 2.69-1.41 1.78-.82 2.71-1.17 1.88-.77 2.84-1.11a28.09 28.09 0 0 1 3-.82 20.29 20.29 0 0 1 2.9-.43 10.36 10.36 0 0 1 2.94.14 14.36 14.36 0 0 1 2.85.92c1 .42 1.91.89 2.88 1.32a17.87 17.87 0 0 0 2.77.98 11.12 11.12 0 0 0 3 .29c1 0 1.93-.15 2.9-.11a9.12 9.12 0 0 1 3 .59 20.9 20.9 0 0 1 2.8 1.4c.87.51 1.73 1.07 2.6 1.6a14.55 14.55 0 0 0 2.57 1.33 7 7 0 0 0 3 .53 7.22 7.22 0 0 0 2.89-.89c.86-.47 1.66-1 2.51-1.54" fill="none" stroke="#3555bf" stroke-linecap="round" stroke-width=".03"/></g><g clip-path="url(#aa)"><path d="m.16 10.31a9.16 9.16 0 0 1 2.77-1 5.64 5.64 0 0 1 2.9.38 14.27 14.27 0 0 1 2.53 1.42c.81.52 1.62 1.06 2.48 1.5a12.27 12.27 0 0 0 2.74 1.1 7.76 7.76 0 0 0 2.92.18 13.16 13.16 0 0 0 2.89-.79c.92-.35 1.82-.76 2.71-1.16s1.8-.8 2.68-1.23 1.71-.9 2.53-1.4 1.74-1.06 2.69-1.54a8.09 8.09 0 0 1 2.73-1 6.11 6.11 0 0 1 2.93.39 17.2 17.2 0 0 1 2.55 1.34 26.91 26.91 0 0 0 2.63 1.5 10.36 10.36 0 0 0 2.82.82 12.88 12.88 0 0 0 2.91 0c1-.07 1.92-.2 2.89-.21a10.45 10.45 0 0 1 2.89.35 24.22 24.22 0 0 1 2.83 1.08 25.65 25.65 0 0 0 2.82 1.12 9.61 9.61 0 0 0 2.92.34 12.57 12.57 0 0 0 2.9-.5 26.08 26.08 0 0 0 2.82-1c.91-.36 1.8-.79 2.68-1.21a28.32 28.32 0 0 1 2.68-1.14 10.52 10.52 0 0 1 2.83-.65 11.74 11.74 0 0 1 3 .18c1 .17 1.91.42 2.85.67s1.9.52 2.86.73a22 22 0 0 0 2.91.44 23 23 0 0 0 3 0c1 0 2-.14 3-.2a19.38 19.38 0 0 1 2.95.06 22.3 22.3 0 0 1 2.9.51c.94.21 1.87.47 2.8.72s1.9.48 2.87.66a18.11 18.11 0 0 0 2.93.32 12.25 12.25 0 0 0 3-.3 10.77 10.77 0 0 0 2.73-1.1 13.07 13.07 0 0 0 2.13-1.69" fill="none" stroke="#3555bf" stroke-linecap="round" stroke-width=".03"/></g><g clip-path="url(#ab)"><path d="m.09 6a10.11 10.11 0 0 1 2.91-.23 8.89 8.89 0 0 1 2.77.79c.91.41 1.79.89 2.71 1.27a10.14 10.14 0 0 0 2.81.74 11.27 11.27 0 0 0 2.9-.07 16.26 16.26 0 0 0 2.9-.75c.89-.3 1.76-.68 2.61-1.06s1.86-.83 2.81-1.21a21.94 21.94 0 0 1 2.74-.9 20.34 20.34 0 0 1 2.89-.51 16.88 16.88 0 0 1 2.92-.07 25.77 25.77 0 0 1 2.94.42c1 .19 1.91.4 2.87.55a13.33 13.33 0 0 0 2.89.12 20.13 20.13 0 0 0 2.88-.48c1-.21 1.9-.44 2.87-.6a13.91 13.91 0 0 1 2.88-.2 13.28 13.28 0 0 1 2.86.43c.95.24 1.89.56 2.83.86a18.69 18.69 0 0 0 2.84.7 9.72 9.72 0 0 0 2.9 0 15.66 15.66 0 0 0 2.85-.72c.93-.3 1.86-.63 2.79-.92s1.9-.52 2.86-.72 1.9-.37 2.86-.52 1.82-.27 2.82-.38 1.89-.2 2.84-.28a21.63 21.63 0 0 1 2.9-.1 10.32 10.32 0 0 1 2.86.53 29.19 29.19 0 0 1 2.83 1.19c.87.4 1.74.81 2.64 1.12a10.1 10.1 0 0 0 2.88.58 11.28 11.28 0 0 0 2.89-.36 19.18 19.18 0 0 1 2.89-.57 7.16 7.16 0 0 1 2.9.39 13.27 13.27 0 0 1 2.65 1.36c.82.53 1.6 1.12 2.39 1.69s1.61 1.12 2.46 1.61a9.69 9.69 0 0 0 2.64 1 8.43 8.43 0 0 0 2.92.08c.94-.14 1.86-.39 2.8-.55" fill="none" stroke="#3555bf" stroke-linecap="round" stroke-width=".03"/></g><g clip-path="url(#ac)"><path d="m.21 8a9.6 9.6 0 0 1 2.93.2 8.62 8.62 0 0 1 2.68 1.38c.84.62 1.66 1.29 2.5 1.92a16 16 0 0 0 2.57 1.55 14.69 14.69 0 0 0 2.83 1 9.37 9.37 0 0 0 3 .26 11.56 11.56 0 0 0 2.95-.66 26.63 26.63 0 0 0 2.71-1.12 27.77 27.77 0 0 0 2.74-1.48c.88-.49 1.68-1.05 2.48-1.64a22.71 22.71 0 0 1 2.48-1.65 7 7 0 0 1 2.92-.94 6.25 6.25 0 0 1 2.91.64c.91.43 1.78 1 2.69 1.37a7.48 7.48 0 0 0 2.89.77 10.31 10.31 0 0 0 3-.43c1-.28 2-.61 3-.81a7.56 7.56 0 0 1 3.07 0 9 9 0 0 1 2.7 1.18c.87.53 1.71 1.12 2.61 1.61a7.53 7.53 0 0 0 2.86 1 6.33 6.33 0 0 0 2.92-.5 24.85 24.85 0 0 0 2.72-1.39c.86-.49 1.72-1 2.61-1.39s1.68-.87 2.6-1.32 1.86-.81 2.82-1.15a24.81 24.81 0 0 1 2.94-.87 21.76 21.76 0 0 1 3-.44 11.51 11.51 0 0 1 3 .14 14.37 14.37 0 0 1 2.88.9c.92.38 1.82.82 2.74 1.22a17.43 17.43 0 0 0 2.81 1 12.3 12.3 0 0 0 3 .34c1 0 2-.12 3-.11a9.67 9.67 0 0 1 3 .53 16.58 16.58 0 0 1 2.68 1.22c.92.5 1.82 1 2.73 1.56a14.21 14.21 0 0 0 2.61 1.25 6.9 6.9 0 0 0 3 .45 7.32 7.32 0 0 0 2.88-.92c.86-.48 1.66-1 2.5-1.56" fill="none" stroke="#3555bf" stroke-linecap="round" stroke-width=".03"/></g><g clip-path="url(#ad)"><path d="m.15 10.15a9.38 9.38 0 0 1 1.31-.56 8.5 8.5 0 0 1 1.54-.36 5.63 5.63 0 0 1 2.85.53 15.4 15.4 0 0 1 2.51 1.47 26.56 26.56 0 0 0 2.45 1.48 12.37 12.37 0 0 0 2.74 1.07 8.13 8.13 0 0 0 3 .18 12.36 12.36 0 0 0 2.85-.75c.94-.36 1.86-.77 2.78-1.19s1.75-.78 2.6-1.21 1.74-.94 2.58-1.47 1.71-1.07 2.6-1.55a8.7 8.7 0 0 1 1.36-.61 4.55 4.55 0 0 1 1.31-.31 7.4 7.4 0 0 1 1.56 0 6.71 6.71 0 0 1 1.45.43 17.14 17.14 0 0 1 2.54 1.35 21 21 0 0 0 2.69 1.43 9.69 9.69 0 0 0 2.85.71 16.41 16.41 0 0 0 2.89 0 23.89 23.89 0 0 1 2.93-.19 9.59 9.59 0 0 1 2.91.48c.94.32 1.84.74 2.75 1.15a17.32 17.32 0 0 0 2.8 1.04 8.65 8.65 0 0 0 3 .23 13.62 13.62 0 0 0 2.88-.64c1-.31 1.89-.67 2.81-1.06s1.79-.81 2.67-1.24 1.69-.86 2.64-1.21a11.83 11.83 0 0 1 2.86-.75 12.22 12.22 0 0 1 3 0 26.87 26.87 0 0 1 2.92.57l2.86.74c.94.24 1.89.46 2.86.61a22.9 22.9 0 0 0 3 .26c1 0 2 0 3-.05a26.4 26.4 0 0 1 3 0 19.24 19.24 0 0 1 2.92.44c1 .2 1.91.46 2.86.72s1.85.5 2.8.71a18 18 0 0 0 2.93.42 10.42 10.42 0 0 0 3-.23 10.08 10.08 0 0 0 2.75-1.1 14.19 14.19 0 0 0 2.26-1.67" fill="none" stroke="#4769ff" stroke-linecap="round" stroke-width=".03"/></g><g clip-path="url(#ae)"><path d="m.3 18.88a24.57 24.57 0 0 1 2.44-1.14 8.42 8.42 0 0 1 2.62-.57 7.36 7.36 0 0 1 2.64.37c.88.3 1.72.69 2.59 1a6.21 6.21 0 0 0 2.55.47 9.81 9.81 0 0 0 2.68-.53c.83-.27 1.65-.6 2.47-.9a16 16 0 0 1 2.71-.69 5.72 5.72 0 0 1 2.57.16 14.94 14.94 0 0 1 2.53 1.11c.76.38 1.53.77 2.32 1.1a27.6 27.6 0 0 0 2.65.91c.84.24 1.71.42 2.58.6s1.75.34 2.62.55 1.79.48 2.69.72a12.47 12.47 0 0 0 2.57.45 14 14 0 0 0 2.74-.13c.89-.12 1.77-.32 2.64-.52s1.71-.4 2.58-.53a19.73 19.73 0 0 1 2.77-.19h.64.26a1.34 1.34 0 0 0 .35 0c-.07.05-.28 0-.37 0h-.26-.67c-.48 0-1 0-1.44.05a15.71 15.71 0 0 0 -2.55.48c-.91.23-1.81.47-2.72.68a14.15 14.15 0 0 1 -2.59.35 11.46 11.46 0 0 1 -2.68-.21c-.91-.2-1.78-.51-2.66-.78a24.6 24.6 0 0 0 -2.57-.69c-.92-.18-1.83-.34-2.74-.53a26.85 26.85 0 0 1 -2.64-.67 21.09 21.09 0 0 1 -2.43-.95c-.82-.37-1.61-.8-2.42-1.19a6.57 6.57 0 0 0 -2.56-.66 9 9 0 0 0 -2.73.35c-.85.22-1.67.53-2.5.8a17.24 17.24 0 0 1 -2.62.72 6.42 6.42 0 0 1 -2.62-.05 17.31 17.31 0 0 1 -2.56-1.12 8.49 8.49 0 0 0 -2.52-.7 7 7 0 0 0 -2.66.23 13.12 13.12 0 0 0 -2.45 1l-1.19.65" fill="none" stroke="#47bcff" stroke-linecap="round" stroke-width=".03"/></g><g clip-path="url(#af)"><path d="m.2 8.38a8.48 8.48 0 0 1 2.93 0 7.94 7.94 0 0 1 2.69 1.31c.86.6 1.67 1.26 2.52 1.88a15.53 15.53 0 0 0 2.53 1.54 14.08 14.08 0 0 0 2.83 1 9.74 9.74 0 0 0 3 .26 11.79 11.79 0 0 0 2.92-.67 23.25 23.25 0 0 0 2.68-1.11c.95-.45 1.88-.94 2.78-1.47s1.67-1.1 2.49-1.67a23.5 23.5 0 0 1 2.45-1.61 6.86 6.86 0 0 1 2.88-1 6 6 0 0 1 2.86.63c.94.43 1.82 1 2.75 1.43a8.07 8.07 0 0 0 2.84.86 9.43 9.43 0 0 0 2.94-.29c1-.23 1.92-.53 2.9-.71a8 8 0 0 1 3-.07 8.9 8.9 0 0 1 2.81 1.2c.9.53 1.77 1.11 2.69 1.62a8.35 8.35 0 0 0 2.82 1 6.13 6.13 0 0 0 3-.45 20 20 0 0 0 2.67-1.31c.87-.47 1.73-.94 2.62-1.37s1.83-.87 2.75-1.29 1.85-.83 2.8-1.18a23.39 23.39 0 0 1 2.83-.91 18.76 18.76 0 0 1 3-.42 13.28 13.28 0 0 1 3 .14 14.37 14.37 0 0 1 2.87.86c.95.42 1.95.82 2.85 1.22a18.64 18.64 0 0 0 2.72 1 12 12 0 0 0 3 .36c1 0 2-.11 3-.1a10.89 10.89 0 0 1 3 .44 15.64 15.64 0 0 1 2.72 1.1c.94.47 1.86 1 2.8 1.46a15.12 15.12 0 0 0 2.67 1.17 7.23 7.23 0 0 0 3 .36 7.61 7.61 0 0 0 2.85-.94c.86-.49 1.66-1.06 2.48-1.6" fill="none" stroke="#3555bf" stroke-linecap="round" stroke-width=".03"/></g><g clip-path="url(#ag)"><path d="m.15 9.94a10.19 10.19 0 0 1 1.33-.52 8.33 8.33 0 0 1 1.57-.28 5.55 5.55 0 0 1 2.82.65 19.36 19.36 0 0 1 2.54 1.55 23.72 23.72 0 0 0 2.47 1.48 12.09 12.09 0 0 0 2.74 1 8.77 8.77 0 0 0 3 .19 11.79 11.79 0 0 0 2.8-.73c1-.37 1.89-.78 2.83-1.2s1.73-.78 2.57-1.23 1.75-1 2.6-1.52 1.69-1.05 2.58-1.54a9.09 9.09 0 0 1 1.28-.57 9 9 0 0 1 1.62-.33 3.74 3.74 0 0 1 1.3.11 8.23 8.23 0 0 1 1.53.48 19.59 19.59 0 0 1 2.54 1.39 16 16 0 0 0 2.62 1.31 9.16 9.16 0 0 0 2.88.57 22.79 22.79 0 0 0 3-.15 18.61 18.61 0 0 1 3-.16 9.19 9.19 0 0 1 2.88.64c.9.35 1.75.8 2.63 1.21a14.36 14.36 0 0 0 2.82 1.07 7.7 7.7 0 0 0 2.91.13 14.16 14.16 0 0 0 2.87-.78c1-.36 1.88-.75 2.81-1.16s1.79-.83 2.68-1.27 1.7-.9 2.63-1.28a13.44 13.44 0 0 1 2.85-.81 12.91 12.91 0 0 1 3-.09 20.81 20.81 0 0 1 2.93.48c1 .21 1.92.48 2.86.75s1.92.54 2.89.76a20.77 20.77 0 0 0 2.81.44c1 .07 2.07.1 3.11.08s2 0 2.95 0a18.22 18.22 0 0 1 2.93.38c1 .2 1.93.47 2.89.75s1.85.55 2.79.79a16.5 16.5 0 0 0 2.87.54 10.06 10.06 0 0 0 3-.15 9.33 9.33 0 0 0 2.75-1.08 14.33 14.33 0 0 0 2.27-1.68" fill="none" stroke="#4769ff" stroke-linecap="round" stroke-width=".03"/></g><g clip-path="url(#ah)"><path d="m.07 5.92a10.21 10.21 0 0 1 2.93-.33 9 9 0 0 1 2.79.72c.91.37 1.79.82 2.72 1.17a10 10 0 0 0 2.82.64 11.74 11.74 0 0 0 2.9-.2 18.5 18.5 0 0 0 2.84-.83c.88-.32 1.74-.71 2.59-1.1s1.84-.84 2.78-1.21a16.44 16.44 0 0 1 2.73-.78 15.1 15.1 0 0 1 2.93-.31 19.82 19.82 0 0 1 2.88.2c1 .14 1.92.34 2.88.54s1.91.38 2.89.5a13.86 13.86 0 0 0 2.88 0 28.88 28.88 0 0 0 2.93-.49c1-.19 1.92-.37 2.9-.48a15.29 15.29 0 0 1 2.87 0 18.38 18.38 0 0 1 2.86.49c1 .23 1.89.51 2.84.75a18.59 18.59 0 0 0 2.87.53 12.07 12.07 0 0 0 2.88-.12 23.39 23.39 0 0 0 2.85-.74c.93-.3 1.86-.61 2.8-.87s1.91-.46 2.87-.63 1.9-.29 2.85-.4 1.9-.19 2.85-.27 1.9-.14 2.84-.2a25.21 25.21 0 0 1 2.88 0 11.21 11.21 0 0 1 2.87.55 26.59 26.59 0 0 1 2.82 1.17 27.21 27.21 0 0 0 2.59.95 9.58 9.58 0 0 0 2.86.53 11.25 11.25 0 0 0 2.88-.41 21.54 21.54 0 0 1 2.85-.7 7 7 0 0 1 2.87.17 11.87 11.87 0 0 1 2.76 1.24c.85.5 1.64 1.08 2.44 1.64s1.61 1.1 2.45 1.59a9.7 9.7 0 0 0 2.63 1.07 8.9 8.9 0 0 0 2.91.15c.95-.1 1.88-.32 2.82-.45" fill="none" stroke="#4769ff" stroke-linecap="round" stroke-width=".03"/></g><g clip-path="url(#ai)"><path d="m.18 8.74a8.21 8.21 0 0 1 2.92-.15 7.57 7.57 0 0 1 2.72 1.17c.87.58 1.7 1.23 2.54 1.84a16.54 16.54 0 0 0 2.52 1.52 14.32 14.32 0 0 0 2.85 1.05 9.84 9.84 0 0 0 3 .23 11.72 11.72 0 0 0 2.92-.69 25.73 25.73 0 0 0 2.66-1.11c.95-.45 1.87-.93 2.78-1.46s1.69-1.08 2.51-1.65c.4-.28.81-.57 1.22-.84s.87-.53 1.33-.78a6.54 6.54 0 0 1 2.85-.87 6 6 0 0 1 2.83.62c.94.43 1.82 1 2.74 1.46a9.11 9.11 0 0 0 2.83 1 9.23 9.23 0 0 0 2.92-.14c1-.18 1.93-.44 2.9-.61a8.35 8.35 0 0 1 3-.08 9.15 9.15 0 0 1 2.78 1c.9.52 1.79 1.07 2.7 1.57a8.5 8.5 0 0 0 2.8 1 6.63 6.63 0 0 0 3-.38 16.83 16.83 0 0 0 2.69-1.25c.86-.45 1.73-.91 2.61-1.33s1.79-.86 2.72-1.34 1.85-.84 2.8-1.21a20.15 20.15 0 0 1 2.84-.85 16.89 16.89 0 0 1 2.93-.37 13.77 13.77 0 0 1 3 .18 15.89 15.89 0 0 1 2.91.84c.92.35 1.81.74 2.72 1.1a21.76 21.76 0 0 0 2.93.95 12.55 12.55 0 0 0 2.93.34c1 0 2-.1 3-.09a12.42 12.42 0 0 1 3 .38 19.2 19.2 0 0 1 2.78 1c.95.43 1.88.9 2.82 1.34a15.56 15.56 0 0 0 2.7 1 7.56 7.56 0 0 0 3 .26 8 8 0 0 0 2.84-1c.85-.49 1.64-1.07 2.44-1.63" fill="none" stroke="#4769ff" stroke-linecap="round" stroke-width=".03"/></g><g clip-path="url(#aj)"><path d="m.15 9.69a8 8 0 0 1 2.93-.69 6.22 6.22 0 0 1 2.79.78 29.73 29.73 0 0 1 2.55 1.63 21.1 21.1 0 0 0 2.46 1.48 12.43 12.43 0 0 0 2.76 1 8.79 8.79 0 0 0 3 .19 11.15 11.15 0 0 0 2.85-.72c1-.36 1.89-.77 2.81-1.19s1.7-.74 2.57-1.17 1.77-1 2.64-1.59 1.67-1.1 2.55-1.56a7.71 7.71 0 0 1 2.84-.88 5.9 5.9 0 0 1 2.86.58 25.27 25.27 0 0 1 2.55 1.4 12.12 12.12 0 0 0 2.63 1.23 9.49 9.49 0 0 0 3 .43c1 0 2-.16 3-.28a15.73 15.73 0 0 1 3-.13 9.33 9.33 0 0 1 2.88.78c.88.38 1.71.86 2.57 1.28a12.09 12.09 0 0 0 2.77 1.06 7.1 7.1 0 0 0 2.94 0 16.56 16.56 0 0 0 2.82-.91c.95-.4 1.89-.82 2.82-1.25s1.82-.86 2.73-1.3 1.69-.86 2.6-1.23a14.81 14.81 0 0 1 2.85-.84 14.58 14.58 0 0 1 3-.18 18.58 18.58 0 0 1 3 .39c1 .2 1.94.49 2.89.78s1.86.59 2.79.86a27.87 27.87 0 0 0 3 .63 18.67 18.67 0 0 0 2.9.16h3a17.09 17.09 0 0 1 2.93.34 27.11 27.11 0 0 1 2.9.8c.94.3 1.88.63 2.83.92a18.41 18.41 0 0 0 2.85.66 9.37 9.37 0 0 0 3-.06 8.87 8.87 0 0 0 2.61-1.09 16.9 16.9 0 0 0 2.29-1.66" fill="none" stroke="#4769ff" stroke-linecap="round" stroke-width=".03"/></g><g clip-path="url(#ak)"><path d="m.16 9.08a8 8 0 0 1 2.92-.32 6.77 6.77 0 0 1 2.75 1c.89.55 1.71 1.19 2.56 1.79a18.59 18.59 0 0 0 2.5 1.5 13.44 13.44 0 0 0 2.82 1 9.55 9.55 0 0 0 3 .22 12 12 0 0 0 2.89-.71 28.4 28.4 0 0 0 2.67-1.12c.94-.44 1.87-.9 2.76-1.42s1.73-1.02 2.57-1.56a26 26 0 0 1 2.45-1.56 7.58 7.58 0 0 1 2.88-.9 6.11 6.11 0 0 1 2.85.62c.91.42 1.76 1 2.64 1.43a9.88 9.88 0 0 0 2.76 1.07 9.22 9.22 0 0 0 3 .05c1-.11 2-.35 3-.51a9.72 9.72 0 0 1 2.9-.09 9.15 9.15 0 0 1 2.83 1c.91.47 1.77 1 2.67 1.49a8.74 8.74 0 0 0 2.75 1 6.77 6.77 0 0 0 3-.24 17.34 17.34 0 0 0 2.67-1.17c.89-.44 1.78-.89 2.68-1.32l2.8-1.33c.89-.42 1.8-.83 2.72-1.2a18.12 18.12 0 0 1 2.86-.87 15.19 15.19 0 0 1 2.94-.34 14.69 14.69 0 0 1 2.89.21 19 19 0 0 1 2.89.8c1 .35 1.93.74 2.9 1.1a24.15 24.15 0 0 0 2.9.86 13.83 13.83 0 0 0 2.94.29c1 0 1.93-.07 2.9-.06a12.76 12.76 0 0 1 2.95.32 22.85 22.85 0 0 1 2.9 1c.93.38 1.84.79 2.77 1.17a15.86 15.86 0 0 0 2.77.94 8.2 8.2 0 0 0 3 .17 8.36 8.36 0 0 0 2.82-1 23.41 23.41 0 0 0 2.37-1.72" fill="none" stroke="#4769ff" stroke-linecap="round" stroke-width=".03"/></g><g clip-path="url(#al)"><path d="m0 4.7a10.28 10.28 0 0 1 3-.39 10.77 10.77 0 0 1 2.81.5c.93.27 1.85.6 2.79.81a9.15 9.15 0 0 0 2.9.2 14.45 14.45 0 0 0 2.9-.64c1-.32 1.87-.71 2.78-1.12s1.74-.8 2.61-1.2a25.6 25.6 0 0 1 2.84-1.09 7.9 7.9 0 0 1 2.86-.32 8.34 8.34 0 0 1 2.8.81c.88.4 1.71.89 2.56 1.33a14.59 14.59 0 0 0 2.67 1.14 8.19 8.19 0 0 0 2.91.34 20.07 20.07 0 0 0 2.87-.51 15.22 15.22 0 0 1 2.91-.47 10.15 10.15 0 0 1 2.91.31 24 24 0 0 1 2.74.95 25.23 25.23 0 0 0 2.76 1 9.46 9.46 0 0 0 2.9.36 12.38 12.38 0 0 0 2.89-.48 28.86 28.86 0 0 0 2.84-1c.91-.37 1.81-.75 2.73-1.11a19.67 19.67 0 0 1 2.79-.89 13.09 13.09 0 0 1 2.93-.32 19 19 0 0 1 2.91.25c1 .15 2 .35 2.92.54s1.94.37 2.91.51 1.94.24 2.91.35a19 19 0 0 1 2.9.55 29.19 29.19 0 0 1 2.75 1 26.2 26.2 0 0 0 2.68 1 9.15 9.15 0 0 0 2.89.42 8.82 8.82 0 0 0 2.83-.53c.92-.38 1.78-.84 2.66-1.31a13.82 13.82 0 0 1 2.74-1.23 6.23 6.23 0 0 1 2.88-.07 11 11 0 0 1 2.73 1.06c.88.46 1.74 1 2.61 1.42a13.22 13.22 0 0 0 2.61 1.13 9 9 0 0 0 2.92.32 19 19 0 0 0 2.82-.45" fill="none" stroke="#478eff" stroke-linecap="round" stroke-width=".03"/></g><g clip-path="url(#am)"><path d="m.05 5.8a9.91 9.91 0 0 1 2.95-.39 9.27 9.27 0 0 1 2.8.64c.91.34 1.79.76 2.71 1.08a9.59 9.59 0 0 0 2.85.54 11.42 11.42 0 0 0 2.91-.3 19 19 0 0 0 2.73-.88c.9-.35 1.78-.76 2.65-1.17s1.76-.81 2.66-1.16a12.92 12.92 0 0 1 2.69-.78 12.22 12.22 0 0 1 2.9-.13 19.74 19.74 0 0 1 2.86.43c1 .21 1.91.45 2.87.67a19.83 19.83 0 0 0 2.86.47 14.24 14.24 0 0 0 2.92-.07c1-.13 2-.32 2.93-.49a23.68 23.68 0 0 1 2.9-.36 16.75 16.75 0 0 1 2.95.1c1 .12 1.92.34 2.87.55s1.94.45 2.94.67a17.53 17.53 0 0 0 2.9.34 12.7 12.7 0 0 0 2.88-.25 27.22 27.22 0 0 0 2.82-.75c.92-.29 1.84-.58 2.77-.82a28.31 28.31 0 0 1 2.89-.55c1-.13 1.91-.21 2.88-.28s1.86-.12 2.86-.16l2.87-.1a27.47 27.47 0 0 1 2.87 0 11.29 11.29 0 0 1 2.88.55 26.49 26.49 0 0 1 2.71 1.1 25 25 0 0 0 2.63 1.07 9.76 9.76 0 0 0 2.88.52 9.81 9.81 0 0 0 2.85-.45c.94-.28 1.85-.63 2.81-.83a6.78 6.78 0 0 1 2.87-.08 10.69 10.69 0 0 1 2.84 1.11c.86.47 1.68 1 2.49 1.59s1.62 1.09 2.47 1.58a10.36 10.36 0 0 0 2.6 1.08 9.23 9.23 0 0 0 2.92.21c.94-.08 1.87-.27 2.81-.38" fill="none" stroke="#478eff" stroke-linecap="round" stroke-width=".03"/></g><g clip-path="url(#an)"><path d="m0 5a10 10 0 0 1 3-.44 10.07 10.07 0 0 1 2.82.5c.93.27 1.83.62 2.78.84a9.26 9.26 0 0 0 2.87.25 13.57 13.57 0 0 0 2.91-.61c.94-.31 1.86-.69 2.76-1.09l2.64-1.23a27.07 27.07 0 0 1 2.74-1.11 8.45 8.45 0 0 1 2.86-.43 8.52 8.52 0 0 1 2.85.66c.88.34 1.73.78 2.58 1.19a17.41 17.41 0 0 0 2.69 1.09 8.78 8.78 0 0 0 2.83.38 17.7 17.7 0 0 0 2.89-.44 21.1 21.1 0 0 1 2.86-.49 10.93 10.93 0 0 1 2.92.16 20.91 20.91 0 0 1 2.8.77c.93.33 1.85.67 2.8.91a11.86 11.86 0 0 0 2.9.4 13.52 13.52 0 0 0 2.91-.31 25.24 25.24 0 0 0 2.82-.82c1-.33 1.88-.7 2.83-1a24.56 24.56 0 0 1 2.81-.84 14.61 14.61 0 0 1 2.88-.34 21.3 21.3 0 0 1 2.88.16c1 .1 1.92.25 2.88.39s1.93.28 2.9.39 1.94.16 2.9.26a15.91 15.91 0 0 1 2.9.53 29.6 29.6 0 0 1 2.85 1.06c.88.36 1.76.73 2.67 1a9.12 9.12 0 0 0 2.88.41 8.76 8.76 0 0 0 2.86-.61c.9-.35 1.75-.79 2.63-1.21a10.34 10.34 0 0 1 2.76-1 6.43 6.43 0 0 1 2.86.17 15 15 0 0 1 2.78 1.23c.87.48 1.71 1 2.59 1.47a11.41 11.41 0 0 0 2.57 1.09 9.5 9.5 0 0 0 2.91.32 22.26 22.26 0 0 0 2.82-.4" fill="none" stroke="#478eff" stroke-linecap="round" stroke-width=".03"/></g><g clip-path="url(#ao)"><path d="m.05 4.36a11.93 11.93 0 0 1 2.95-.31 11.94 11.94 0 0 1 2.83.51c.93.27 1.86.61 2.82.8a9.31 9.31 0 0 0 2.93.14 14 14 0 0 0 2.85-.66c.93-.32 1.83-.69 2.72-1.09s1.8-.82 2.71-1.2a19.61 19.61 0 0 1 2.86-1 7.56 7.56 0 0 1 2.88-.22 9.12 9.12 0 0 1 2.77 1c.88.45 1.73 1 2.59 1.45a12.91 12.91 0 0 0 2.64 1.16 8 8 0 0 0 2.93.27 23.31 23.31 0 0 0 2.88-.58 13.28 13.28 0 0 1 2.94-.42 9.71 9.71 0 0 1 2.88.48 24.83 24.83 0 0 1 2.67 1.08 19.32 19.32 0 0 0 2.7.98 8.46 8.46 0 0 0 2.92.31 12.78 12.78 0 0 0 2.87-.62c1-.33 1.89-.72 2.82-1.14s1.79-.83 2.79-1.23a17.41 17.41 0 0 1 2.78-.92 11.57 11.57 0 0 1 2.93-.29 17.1 17.1 0 0 1 2.94.35c1 .18 1.9.42 2.84.65s1.9.45 2.86.63 2 .32 2.94.45a21.89 21.89 0 0 1 2.88.57 23 23 0 0 1 2.67 1c.92.37 1.84.76 2.79 1a9.41 9.41 0 0 0 2.88.49 8.47 8.47 0 0 0 2.84-.62 20.55 20.55 0 0 0 2.65-1.38 18.55 18.55 0 0 1 2.6-1.3 6.11 6.11 0 0 1 2.9-.36 8.24 8.24 0 0 1 2.7.84c.93.44 1.83.94 2.75 1.41a13.72 13.72 0 0 0 2.63 1.08 9.25 9.25 0 0 0 2.92.3 17 17 0 0 0 2.82-.5" fill="none" stroke="#478eff" stroke-linecap="round" stroke-width=".03"/></g><g clip-path="url(#ap)"><path d="m.15 9.4a8 8 0 0 1 2.93-.49 6.31 6.31 0 0 1 2.76.91c.9.51 1.73 1.13 2.57 1.71a19.24 19.24 0 0 0 2.5 1.5 13.45 13.45 0 0 0 2.8 1 9.17 9.17 0 0 0 3 .19 11.06 11.06 0 0 0 2.84-.71c.93-.34 1.83-.73 2.72-1.14s1.84-.84 2.73-1.37 1.73-1 2.57-1.61a28.06 28.06 0 0 1 2.5-1.55 9.25 9.25 0 0 1 1.42-.59 5.63 5.63 0 0 1 1.4-.25 5.8 5.8 0 0 1 2.87.6 29.1 29.1 0 0 1 2.57 1.4 11.15 11.15 0 0 0 2.67 1.15 9.14 9.14 0 0 0 3 .25c1-.07 2-.26 3-.4a11.3 11.3 0 0 1 3-.1 9.4 9.4 0 0 1 2.84.89c.89.42 1.72.93 2.59 1.38a9.85 9.85 0 0 0 2.77 1 7.11 7.11 0 0 0 3-.12 16.06 16.06 0 0 0 2.8-1.05l2.73-1.28 2.8-1.34c.9-.43 1.8-.85 2.73-1.22a16 16 0 0 1 2.87-.85 14.24 14.24 0 0 1 2.87-.21 15.57 15.57 0 0 1 2.89.3 22.51 22.51 0 0 1 2.89.8c1 .32 1.92.68 2.9 1a23.35 23.35 0 0 0 2.88.73 16.13 16.13 0 0 0 2.94.24c1 0 1.93-.06 2.89-.05a15.22 15.22 0 0 1 2.94.33 25.07 25.07 0 0 1 2.92.87c.94.34 1.86.71 2.8 1a15.57 15.57 0 0 0 2.84.8 8 8 0 0 0 5.76-1 19 19 0 0 0 2.35-1.63" fill="none" stroke="#4769ff" stroke-linecap="round" stroke-width=".03"/></g><g clip-path="url(#aq)"><path d="m0 5.26a9.69 9.69 0 0 1 3-.47 10.1 10.1 0 0 1 2.82.52c.92.28 1.83.64 2.77.88a9.14 9.14 0 0 0 2.85.3 11.68 11.68 0 0 0 2.93-.56 25.32 25.32 0 0 0 2.74-1c.89-.4 1.77-.83 2.65-1.24a26.3 26.3 0 0 1 2.64-1.17 9.23 9.23 0 0 1 2.85-.52 8.73 8.73 0 0 1 2.86.49c.92.3 1.8.69 2.69 1.07a21.58 21.58 0 0 0 2.72 1 10.1 10.1 0 0 0 2.9.39 17.6 17.6 0 0 0 2.88-.37c1-.19 1.92-.4 2.89-.5a12.32 12.32 0 0 1 2.91.05 19.59 19.59 0 0 1 2.9.62c.92.27 1.83.57 2.76.79a14.83 14.83 0 0 0 2.84.46 15.19 15.19 0 0 0 2.94-.18 21.35 21.35 0 0 0 2.82-.66c.93-.29 1.85-.62 2.77-.92a28.13 28.13 0 0 1 2.81-.82 17.46 17.46 0 0 1 2.88-.42 28 28 0 0 1 2.9 0c1 .07 1.93.16 2.89.26s2 .19 3.08.26 1.87.1 2.8.18a14.1 14.1 0 0 1 2.87.54c.93.29 1.82.66 2.72 1s1.85.76 2.81 1.05a9.14 9.14 0 0 0 2.89.4 8.92 8.92 0 0 0 2.84-.62c.91-.33 1.79-.77 2.68-1.14a8.86 8.86 0 0 1 2.8-.74 6.67 6.67 0 0 1 2.83.46 17.64 17.64 0 0 1 2.67 1.36c.84.5 1.66 1 2.51 1.48a11.23 11.23 0 0 0 2.58 1.09 9.47 9.47 0 0 0 2.9.32c1-.06 1.89-.23 2.82-.36" fill="none" stroke="#478eff" stroke-linecap="round" stroke-width=".03"/></g><g clip-path="url(#ar)"><path d="m.07 4a15.76 15.76 0 0 1 2.93-.21 13.14 13.14 0 0 1 2.85.53 25.88 25.88 0 0 0 2.85.78 9.37 9.37 0 0 0 2.94.1 14.59 14.59 0 0 0 2.83-.68c1-.34 1.92-.73 2.87-1.14s1.79-.79 2.7-1.16a15.8 15.8 0 0 1 2.74-.93 7 7 0 0 1 2.92-.1 9.36 9.36 0 0 1 2.74 1.07c.88.5 1.74 1.05 2.62 1.55a12.94 12.94 0 0 0 2.71 1.19 7.43 7.43 0 0 0 2.93.16 25.82 25.82 0 0 0 2.87-.64 11.2 11.2 0 0 1 2.94-.33 9.5 9.5 0 0 1 2.87.65c.91.35 1.79.8 2.67 1.24a14.72 14.72 0 0 0 2.66 1.09 7.78 7.78 0 0 0 3 .24 12.09 12.09 0 0 0 2.83-.76c.92-.37 1.82-.8 2.71-1.24s1.8-.91 2.71-1.33a15.4 15.4 0 0 1 2.74-1 10.91 10.91 0 0 1 3-.29 15.45 15.45 0 0 1 2.94.43c1 .21 1.91.5 2.86.77s1.89.53 2.85.75 1.9.38 2.86.53a23.37 23.37 0 0 1 2.79.57 25.91 25.91 0 0 1 2.72 1 29.49 29.49 0 0 0 2.88 1.06 9.54 9.54 0 0 0 2.91.43 8.08 8.08 0 0 0 2.86-.63 17.73 17.73 0 0 0 2.63-1.38 21.25 21.25 0 0 1 2.5-1.43 6.51 6.51 0 0 1 2.84-.67 8 8 0 0 1 2.85.67c.94.4 1.85.87 2.76 1.32a15.23 15.23 0 0 0 2.69 1.07 8.72 8.72 0 0 0 2.92.28 17.85 17.85 0 0 0 2.76-.56" fill="none" stroke="#478eff" stroke-linecap="round" stroke-width=".03"/></g><g clip-path="url(#as)"><path d="m.1 3.56c1 0 1.94-.1 2.9 0a14.09 14.09 0 0 1 2.88.55 26 26 0 0 0 2.88.77 9.61 9.61 0 0 0 3 .05 14.73 14.73 0 0 0 2.84-.7c.94-.32 1.86-.69 2.78-1.07s1.87-.8 2.82-1.17a15.9 15.9 0 0 1 2.8-.87 7.1 7.1 0 0 1 2.94 0 9.79 9.79 0 0 1 2.69 1.18c.84.5 1.65 1 2.5 1.52a10.78 10.78 0 0 0 2.73 1.18 7.22 7.22 0 0 0 2.89.1c1-.15 1.94-.45 2.91-.67a8.42 8.42 0 0 1 5.75.5c.93.4 1.83.9 2.73 1.37a13.5 13.5 0 0 0 2.65 1.14 7 7 0 0 0 3 .19 10.54 10.54 0 0 0 2.78-.86c.92-.4 1.8-.87 2.68-1.35s1.74-1 2.62-1.39a14.16 14.16 0 0 1 2.69-1.03 9.83 9.83 0 0 1 3-.33 14.68 14.68 0 0 1 2.94.49c.91.23 1.81.52 2.71.81s1.92.64 2.9.9 1.91.46 2.87.63a25.4 25.4 0 0 1 2.88.61 28.7 28.7 0 0 1 2.86 1c.91.37 1.82.75 2.75 1a9.54 9.54 0 0 0 2.9.49 8 8 0 0 0 2.93-.59 13.66 13.66 0 0 0 2.53-1.35c.86-.56 1.69-1.15 2.59-1.63a7.06 7.06 0 0 1 2.79-.91 7 7 0 0 1 2.92.47 28.08 28.08 0 0 1 2.69 1.18 16.49 16.49 0 0 0 2.78 1.08 8.53 8.53 0 0 0 2.93.25 24.94 24.94 0 0 0 2.82-.52" fill="none" stroke="#47a5ff" stroke-linecap="round" stroke-width=".03"/></g><g clip-path="url(#at)"><path d="m0 5.65a10 10 0 0 1 3-.43 9.26 9.26 0 0 1 2.8.58c.92.32 1.82.72 2.75 1a9.74 9.74 0 0 0 2.84.45 11.62 11.62 0 0 0 2.92-.41 20.38 20.38 0 0 0 2.69-.94c.9-.37 1.78-.79 2.66-1.21s1.76-.81 2.67-1.15a11.33 11.33 0 0 1 2.79-.71 11.09 11.09 0 0 1 2.88.09 25.13 25.13 0 0 1 2.85.68c.95.28 1.9.58 2.86.81a14.74 14.74 0 0 0 2.87.43 16 16 0 0 0 2.93-.21c1-.15 2-.35 2.93-.5a20 20 0 0 1 2.89-.21 17.75 17.75 0 0 1 2.9.32c1 .17 1.92.41 2.88.63s1.89.41 2.89.55a16.42 16.42 0 0 0 2.89.14 15.72 15.72 0 0 0 2.89-.41c.94-.22 1.87-.51 2.8-.8s1.84-.56 2.78-.78a21.44 21.44 0 0 1 2.87-.46c.95-.11 1.91-.11 2.87-.11s1.92 0 2.88 0h2.88c1 0 1.92 0 2.88.06a12.7 12.7 0 0 1 2.87.57 28.22 28.22 0 0 1 2.68 1.07 21.75 21.75 0 0 0 2.71.99 9.43 9.43 0 0 0 2.88.46 9.5 9.5 0 0 0 2.84-.52c.93-.31 1.84-.69 2.78-1a7.19 7.19 0 0 1 2.8-.23 9.21 9.21 0 0 1 2.88.95 24.26 24.26 0 0 1 2.49 1.51c.81.53 1.62 1.06 2.46 1.54a10.36 10.36 0 0 0 2.6 1.08 9.78 9.78 0 0 0 2.9.27c.94-.07 1.88-.24 2.82-.35" fill="none" stroke="#47bcff" stroke-linecap="round" stroke-width=".03"/></g><g clip-path="url(#au)"><path d="m.11 3.21c1 .06 1.93 0 2.89.07a14.92 14.92 0 0 1 2.89.56 24.2 24.2 0 0 0 2.9.75 10 10 0 0 0 3 0 16.14 16.14 0 0 0 2.84-.7c.94-.32 1.85-.67 2.76-1s1.91-.77 2.88-1.12a17 17 0 0 1 2.86-.77 6.75 6.75 0 0 1 2.93.15 10.89 10.89 0 0 1 2.69 1.25c.83.5 1.63 1.05 2.47 1.52a9.91 9.91 0 0 0 2.71 1.13 7.81 7.81 0 0 0 3 0c1-.19 1.92-.48 2.88-.68a8.86 8.86 0 0 1 3-.17 9.61 9.61 0 0 1 2.81.9c.9.44 1.77 1 2.64 1.44a14.5 14.5 0 0 0 2.74 1.24 6.49 6.49 0 0 0 2.94.1 10.51 10.51 0 0 0 2.77-1c.87-.42 1.71-.9 2.54-1.39s1.75-1.02 2.66-1.49a13.4 13.4 0 0 1 2.68-1.11 9 9 0 0 1 3-.32 13.54 13.54 0 0 1 3 .54c1 .28 1.94.63 2.9 1s1.75.64 2.64.91 1.91.53 2.88.73a28.94 28.94 0 0 1 2.9.66 28.33 28.33 0 0 1 2.88 1.07c.91.39 1.81.78 2.75 1.08a9.62 9.62 0 0 0 2.92.5 8 8 0 0 0 2.93-.59 13.1 13.1 0 0 0 2.46-1.47c.84-.57 1.67-1.18 2.54-1.71a8 8 0 0 1 2.73-1.1 6.2 6.2 0 0 1 2.93.25 21.19 21.19 0 0 1 2.67 1.06 17.85 17.85 0 0 0 2.83 1.06 8.44 8.44 0 0 0 2.92.22 27.52 27.52 0 0 0 2.82-.55" fill="none" stroke="#47bcff" stroke-linecap="round" stroke-width=".03"/></g><g clip-path="url(#av)"><path d="m.12 2.92c.96.08 1.93.08 2.88.08a16.08 16.08 0 0 1 2.91.56 24.48 24.48 0 0 0 2.92.74 10.4 10.4 0 0 0 3 0 14.94 14.94 0 0 0 2.73-.68c1-.32 1.92-.66 2.86-1s1.91-.74 2.88-1.06a16.21 16.21 0 0 1 2.9-.73 7 7 0 0 1 2.87.21 12.14 12.14 0 0 1 2.74 1.36c.85.52 1.67 1.08 2.53 1.56a9.21 9.21 0 0 0 2.71 1.04 7.82 7.82 0 0 0 3 0c1-.19 1.92-.49 2.9-.68a8.4 8.4 0 0 1 3-.07 9.59 9.59 0 0 1 2.78 1c.86.44 1.67 1 2.5 1.44a12.9 12.9 0 0 0 2.82 1.31 6.22 6.22 0 0 0 2.95.07 11.32 11.32 0 0 0 2.79-1.07c.85-.43 1.67-.94 2.48-1.45s1.73-1.09 2.62-1.55a13.27 13.27 0 0 1 2.67-1.19 8.71 8.71 0 0 1 3-.35 12.83 12.83 0 0 1 3 .57c.93.28 1.85.64 2.76 1s1.83.73 2.77 1 1.91.6 2.89.83 2 .42 2.91.71a27.32 27.32 0 0 1 2.89 1.11c.9.39 1.79.8 2.72 1.1a9.26 9.26 0 0 0 2.9.55 7.72 7.72 0 0 0 2.93-.53 12.06 12.06 0 0 0 2.47-1.4c.85-.59 1.67-1.23 2.52-1.82a9 9 0 0 1 2.68-1.3 6.34 6.34 0 0 1 3 0 16.44 16.44 0 0 1 2.71 1 21.23 21.23 0 0 0 2.86 1 8.5 8.5 0 0 0 2.93.19 22.7 22.7 0 0 0 2.81-.61" fill="none" stroke="#47eaff" stroke-linecap="round" stroke-width=".03"/></g><g clip-path="url(#aw)"><path d="m.12 2.71c1 .07 1.94 0 2.9.11a16.27 16.27 0 0 1 2.98.55 24.68 24.68 0 0 0 2.94.71 10.47 10.47 0 0 0 3 0 22 22 0 0 0 3-.75c.91-.28 1.8-.62 2.7-.94s1.86-.68 2.81-1a13.39 13.39 0 0 1 2.86-.64 7 7 0 0 1 2.94.31 12.77 12.77 0 0 1 2.63 1.34c.88.6 1.75 1.13 2.67 1.6a9.21 9.21 0 0 0 2.8 1 7.86 7.86 0 0 0 2.94-.14c1-.21 1.93-.52 2.92-.69a7.5 7.5 0 0 1 2.91 0 11.06 11.06 0 0 1 2.81 1.14c.87.48 1.71 1 2.57 1.54a9.78 9.78 0 0 0 2.67 1.22 6.09 6.09 0 0 0 3 0 12.1 12.1 0 0 0 2.77-1.12c.88-.49 1.73-1 2.57-1.6s1.7-1.13 2.58-1.65a12.7 12.7 0 0 1 2.68-1.22 8.15 8.15 0 0 1 3-.32 12.21 12.21 0 0 1 2.92.65c.94.3 1.85.68 2.76 1.06s1.78.77 2.68 1.1a26.49 26.49 0 0 0 2.87 1.03c1 .24 2 .46 2.9.77s1.93.74 2.87 1.16 1.72.79 2.63 1.07a9.37 9.37 0 0 0 2.91.59 7.64 7.64 0 0 0 3-.5 11.62 11.62 0 0 0 2.53-1.39c.83-.6 1.62-1.25 2.44-1.87a9.4 9.4 0 0 1 2.5-1.47 6.87 6.87 0 0 1 1.55-.36 6.06 6.06 0 0 1 1.41 0 14.23 14.23 0 0 1 2.84.84 23.33 23.33 0 0 0 2.92 1 8.26 8.26 0 0 0 2.93.18 18.14 18.14 0 0 0 2.8-.68" fill="none" stroke="#47eaff" stroke-linecap="round" stroke-width=".03"/></g><g clip-path="url(#ax)"><path d="m.1 2.54c1 0 2 0 2.93.06a17.31 17.31 0 0 1 2.97.55 25.18 25.18 0 0 0 3 .68 10.54 10.54 0 0 0 3-.07 20.78 20.78 0 0 0 2.86-.76c1-.29 1.89-.62 2.83-.94s1.88-.63 2.83-.9a15.72 15.72 0 0 1 3-.56 7.47 7.47 0 0 1 3 .42 12.93 12.93 0 0 1 2.48 1.42c.88.56 1.72 1.09 2.6 1.56a9 9 0 0 0 2.81 1 8.3 8.3 0 0 0 3-.19c1-.23 1.94-.54 2.93-.68a7.5 7.5 0 0 1 3 .14 10.58 10.58 0 0 1 2.66 1.14c.9.53 1.77 1.1 2.65 1.64a9.83 9.83 0 0 0 2.66 1.21 5.94 5.94 0 0 0 3 0 10.46 10.46 0 0 0 2.69-1.19c.9-.53 1.75-1.1 2.6-1.69s1.61-1.13 2.45-1.65a13.5 13.5 0 0 1 2.8-1.33 7.43 7.43 0 0 1 2.93-.3 11.69 11.69 0 0 1 2.91.66c1 .34 1.9.75 2.83 1.16s1.78.81 2.68 1.17a25.79 25.79 0 0 0 2.8.91c1 .27 1.95.49 2.89.83a30.56 30.56 0 0 1 2.9 1.27c.88.42 1.76.85 2.67 1.18a9.28 9.28 0 0 0 2.89.62 7.7 7.7 0 0 0 3-.5 10.4 10.4 0 0 0 2.56-1.4c.81-.61 1.58-1.28 2.37-1.92a11.78 11.78 0 0 1 2.45-1.64 5.58 5.58 0 0 1 2.9-.57 12.05 12.05 0 0 1 2.89.69 27.67 27.67 0 0 0 3 1 8.25 8.25 0 0 0 2.93.16 13.9 13.9 0 0 0 2.78-.74" fill="none" stroke="#47bcff" stroke-linecap="round" stroke-width=".03"/></g><g clip-path="url(#ay)"><path d="m.09 2.42c1 0 2-.1 2.94 0a16.64 16.64 0 0 1 3 .52 23.68 23.68 0 0 0 3 .66 10.12 10.12 0 0 0 3-.12 24.31 24.31 0 0 0 2.94-.74c1-.29 1.92-.61 2.88-.91s1.91-.59 2.88-.83a15.14 15.14 0 0 1 3-.47 6.75 6.75 0 0 1 2.91.5 16.81 16.81 0 0 1 2.66 1.47 28.46 28.46 0 0 0 2.5 1.5 8.63 8.63 0 0 0 2.84.89 8.92 8.92 0 0 0 3-.29 30.13 30.13 0 0 1 3-.67 7 7 0 0 1 3 .26 12 12 0 0 1 2.7 1.31c.83.5 1.62 1.06 2.44 1.57a10.84 10.84 0 0 0 2.81 1.29 5.72 5.72 0 0 0 3-.1 11.61 11.61 0 0 0 2.68-1.26c.87-.52 1.69-1.12 2.51-1.71s1.56-1.16 2.38-1.68a12.65 12.65 0 0 1 2.77-1.4 7.26 7.26 0 0 1 2.89-.31 12.74 12.74 0 0 1 3 .74 28.63 28.63 0 0 1 2.79 1.16c.93.44 1.85.89 2.79 1.3a23.16 23.16 0 0 0 2.75 1c.95.28 1.91.5 2.83.86a29.22 29.22 0 0 1 2.85 1.29 27 27 0 0 0 2.68 1.24 9.26 9.26 0 0 0 2.92.67 7.68 7.68 0 0 0 3-.48 9.44 9.44 0 0 0 2.57-1.46c.81-.64 1.57-1.34 2.35-2a14.06 14.06 0 0 1 2.41-1.81 5.91 5.91 0 0 1 2.8-.79 9 9 0 0 1 3 .55c1 .32 2 .7 3 .94a8 8 0 0 0 3 .16 12.25 12.25 0 0 0 2.78-.79" fill="none" stroke="#478eff" stroke-linecap="round" stroke-width=".03"/></g><g clip-path="url(#az)"><path d="m.07 2.33a21.24 21.24 0 0 1 3-.14 16.1 16.1 0 0 1 3 .52 23.36 23.36 0 0 0 3 .63 9.64 9.64 0 0 0 3-.17c1-.2 2-.47 3-.75l2.9-.88c1-.29 1.94-.55 2.92-.77a14.84 14.84 0 0 1 3-.4 6.78 6.78 0 0 1 2.72.53 17.72 17.72 0 0 1 2.72 1.53 26.16 26.16 0 0 0 2.67 1.57 8.45 8.45 0 0 0 2.9.82 8.28 8.28 0 0 0 3-.37 19.49 19.49 0 0 1 2.93-.69 6.86 6.86 0 0 1 2.95.31 13.73 13.73 0 0 1 2.76 1.39c.79.54 1.59 1.11 2.46 1.65a8.69 8.69 0 0 0 2.7 1.28 5.73 5.73 0 0 0 3-.12 12.57 12.57 0 0 0 2.79-1.34c.84-.53 1.63-1.13 2.41-1.73s1.65-1.26 2.51-1.84a9.64 9.64 0 0 1 2.59-1.36 7.77 7.77 0 0 1 1.58-.32 6.92 6.92 0 0 1 1.44 0 12.31 12.31 0 0 1 3 .76 26.08 26.08 0 0 1 2.7 1.2c.93.47 1.86 1 2.81 1.39a21.26 21.26 0 0 0 2.82 1.07c1 .29 1.92.53 2.85.91a26.47 26.47 0 0 1 2.67 1.32 26.38 26.38 0 0 0 2.78 1.35 8.64 8.64 0 0 0 2.92.68 7.62 7.62 0 0 0 3-.5 8.22 8.22 0 0 0 2.53-1.43c.8-.66 1.53-1.39 2.28-2.11a17.57 17.57 0 0 1 2.35-2 5.87 5.87 0 0 1 2.79-1 7.77 7.77 0 0 1 2.94.42c1 .3 2 .69 3 .94a7.77 7.77 0 0 0 3 .15 11.15 11.15 0 0 0 2.68-.83" fill="none" stroke="#478eff" stroke-linecap="round" stroke-width=".03"/></g><g clip-path="url(#aA)"><path d="m0 2.27a13.61 13.61 0 0 1 3-.27 16.27 16.27 0 0 1 3 .5 21.78 21.78 0 0 0 3 .65 9.38 9.38 0 0 0 3-.25c1-.21 2-.48 3-.76s2-.58 2.94-.85 1.95-.51 2.95-.7a17.32 17.32 0 0 1 3-.34 7.15 7.15 0 0 1 1.6.12 6.66 6.66 0 0 1 1.38.49 24.06 24.06 0 0 1 2.53 1.51 22.68 22.68 0 0 0 2.7 1.63 8 8 0 0 0 2.9.73 8.42 8.42 0 0 0 3-.45 13.91 13.91 0 0 1 3-.75 6.59 6.59 0 0 1 3.07.4 11.32 11.32 0 0 1 2.61 1.4c.87.59 1.71 1.22 2.59 1.81a7.82 7.82 0 0 0 2.62 1.29 6 6 0 0 0 1.59.14 6.34 6.34 0 0 0 1.44-.29 10.71 10.71 0 0 0 2.61-1.28c.86-.58 1.68-1.21 2.49-1.85s1.63-1.31 2.47-1.92a9.45 9.45 0 0 1 2.59-1.45 6.34 6.34 0 0 1 1.57-.31 7.53 7.53 0 0 1 1.5.05 12.33 12.33 0 0 1 3 .79 24.37 24.37 0 0 1 2.69 1.26c.91.48 1.81 1 2.73 1.44a20.62 20.62 0 0 0 2.89 1.18c.46.14.93.23 1.38.36a13.34 13.34 0 0 1 1.53.57 25.88 25.88 0 0 1 2.63 1.35 25.16 25.16 0 0 0 2.82 1.47 8.68 8.68 0 0 0 2.92.71 7.67 7.67 0 0 0 3-.51 7.83 7.83 0 0 0 2.55-1.54c.77-.68 1.46-1.44 2.16-2.19a22.67 22.67 0 0 1 2.26-2.12 6.27 6.27 0 0 1 2.76-1.29 6.78 6.78 0 0 1 3 .3c1 .29 1.93.7 2.93 1a7.31 7.31 0 0 0 3 .17 11.54 11.54 0 0 0 2.78-.81" fill="none" stroke="#478eff" stroke-linecap="round" stroke-width=".03"/></g><g clip-path="url(#aB)"><path d="m0 2.22a9.56 9.56 0 0 1 3-.49 13.4 13.4 0 0 1 3.08.51 18.38 18.38 0 0 0 3 .7 9.3 9.3 0 0 0 3-.34c1-.22 2-.52 3-.8s1.92-.58 2.92-.8 2-.48 3-.63a30.56 30.56 0 0 1 3.12-.37 4.1 4.1 0 0 1 1.44.13 8.49 8.49 0 0 1 1.53.63 27.84 27.84 0 0 1 2.56 1.65 17.42 17.42 0 0 0 2.61 1.59 7.84 7.84 0 0 0 3 .73 7.79 7.79 0 0 0 3-.65 10.51 10.51 0 0 1 3-.78 6.33 6.33 0 0 1 2.94.5 13.65 13.65 0 0 1 2.71 1.59c.82.59 1.59 1.23 2.41 1.81a10.46 10.46 0 0 0 1.28.8 6.61 6.61 0 0 0 .76.36 6.59 6.59 0 0 0 .79.24 4.54 4.54 0 0 0 1.47 0 6.78 6.78 0 0 0 1.53-.35 11.57 11.57 0 0 0 2.76-1.51c.85-.6 1.64-1.27 2.43-1.94s1.52-1.31 2.32-1.92a9.9 9.9 0 0 1 2.71-1.56 4.35 4.35 0 0 1 1.43-.21 9.13 9.13 0 0 1 1.57.08 12.43 12.43 0 0 1 2.93.84 29.33 29.33 0 0 1 2.86 1.43c.86.47 1.7 1 2.57 1.45a13.93 13.93 0 0 0 2.83 1.23c.53.13 1.07.2 1.6.34a6.75 6.75 0 0 1 1.34.55c.91.48 1.77 1.06 2.64 1.61a22.78 22.78 0 0 0 2.77 1.55 8.75 8.75 0 0 0 3 .73 7.38 7.38 0 0 0 3-.52 8 8 0 0 0 1.4-.64 7 7 0 0 0 1.28-1 30 30 0 0 0 2-2.32 23.82 23.82 0 0 1 2.13-2.25 6.36 6.36 0 0 1 2.61-1.48 5.68 5.68 0 0 1 3.06.15c1 .28 1.9.77 2.88 1.07a7 7 0 0 0 3.06.2 13 13 0 0 0 2.81-.79" fill="none" stroke="#478eff" stroke-linecap="round" stroke-width=".03"/></g></svg>